G75*
%MOIN*%
%OFA0B0*%
%FSLAX25Y25*%
%IPPOS*%
%LPD*%
%AMOC8*
5,1,8,0,0,1.08239X$1,22.5*
%
%ADD10C,0.01200*%
%ADD11C,0.00000*%
%ADD12C,0.00512*%
%ADD13C,0.00600*%
%ADD14R,0.02000X0.07000*%
%ADD15R,0.02500X0.14000*%
%ADD16R,0.05500X0.03000*%
%ADD17C,0.00200*%
%ADD18R,0.01500X0.16000*%
%ADD19R,0.03500X0.00500*%
%ADD20R,0.02500X0.04500*%
%ADD21R,0.02500X0.16000*%
%ADD22R,0.40000X0.02000*%
%ADD23R,0.15500X0.00500*%
%ADD24R,0.19000X0.02000*%
%ADD25C,0.00500*%
%ADD26C,0.00400*%
%ADD27R,0.74606X0.06594*%
%ADD28C,0.00800*%
%ADD29C,0.01600*%
%ADD30R,0.03000X0.42000*%
%ADD31R,0.02000X0.07500*%
%ADD32R,0.02000X0.03000*%
%ADD33C,0.00394*%
D10*
X0038342Y0026433D02*
X0440842Y0026433D01*
X0440842Y0306433D01*
X0038342Y0306433D01*
X0038342Y0026433D01*
D11*
X0042948Y0036492D02*
X0042950Y0036645D01*
X0042956Y0036799D01*
X0042966Y0036952D01*
X0042980Y0037104D01*
X0042998Y0037257D01*
X0043020Y0037408D01*
X0043045Y0037559D01*
X0043075Y0037710D01*
X0043109Y0037860D01*
X0043146Y0038008D01*
X0043187Y0038156D01*
X0043232Y0038302D01*
X0043281Y0038448D01*
X0043334Y0038592D01*
X0043390Y0038734D01*
X0043450Y0038875D01*
X0043514Y0039015D01*
X0043581Y0039153D01*
X0043652Y0039289D01*
X0043727Y0039423D01*
X0043804Y0039555D01*
X0043886Y0039685D01*
X0043970Y0039813D01*
X0044058Y0039939D01*
X0044149Y0040062D01*
X0044243Y0040183D01*
X0044341Y0040301D01*
X0044441Y0040417D01*
X0044545Y0040530D01*
X0044651Y0040641D01*
X0044760Y0040749D01*
X0044872Y0040854D01*
X0044986Y0040955D01*
X0045104Y0041054D01*
X0045223Y0041150D01*
X0045345Y0041243D01*
X0045470Y0041332D01*
X0045597Y0041419D01*
X0045726Y0041501D01*
X0045857Y0041581D01*
X0045990Y0041657D01*
X0046125Y0041730D01*
X0046262Y0041799D01*
X0046401Y0041864D01*
X0046541Y0041926D01*
X0046683Y0041984D01*
X0046826Y0042039D01*
X0046971Y0042090D01*
X0047117Y0042137D01*
X0047264Y0042180D01*
X0047412Y0042219D01*
X0047561Y0042255D01*
X0047711Y0042286D01*
X0047862Y0042314D01*
X0048013Y0042338D01*
X0048166Y0042358D01*
X0048318Y0042374D01*
X0048471Y0042386D01*
X0048624Y0042394D01*
X0048777Y0042398D01*
X0048931Y0042398D01*
X0049084Y0042394D01*
X0049237Y0042386D01*
X0049390Y0042374D01*
X0049542Y0042358D01*
X0049695Y0042338D01*
X0049846Y0042314D01*
X0049997Y0042286D01*
X0050147Y0042255D01*
X0050296Y0042219D01*
X0050444Y0042180D01*
X0050591Y0042137D01*
X0050737Y0042090D01*
X0050882Y0042039D01*
X0051025Y0041984D01*
X0051167Y0041926D01*
X0051307Y0041864D01*
X0051446Y0041799D01*
X0051583Y0041730D01*
X0051718Y0041657D01*
X0051851Y0041581D01*
X0051982Y0041501D01*
X0052111Y0041419D01*
X0052238Y0041332D01*
X0052363Y0041243D01*
X0052485Y0041150D01*
X0052604Y0041054D01*
X0052722Y0040955D01*
X0052836Y0040854D01*
X0052948Y0040749D01*
X0053057Y0040641D01*
X0053163Y0040530D01*
X0053267Y0040417D01*
X0053367Y0040301D01*
X0053465Y0040183D01*
X0053559Y0040062D01*
X0053650Y0039939D01*
X0053738Y0039813D01*
X0053822Y0039685D01*
X0053904Y0039555D01*
X0053981Y0039423D01*
X0054056Y0039289D01*
X0054127Y0039153D01*
X0054194Y0039015D01*
X0054258Y0038875D01*
X0054318Y0038734D01*
X0054374Y0038592D01*
X0054427Y0038448D01*
X0054476Y0038302D01*
X0054521Y0038156D01*
X0054562Y0038008D01*
X0054599Y0037860D01*
X0054633Y0037710D01*
X0054663Y0037559D01*
X0054688Y0037408D01*
X0054710Y0037257D01*
X0054728Y0037104D01*
X0054742Y0036952D01*
X0054752Y0036799D01*
X0054758Y0036645D01*
X0054760Y0036492D01*
X0054758Y0036339D01*
X0054752Y0036185D01*
X0054742Y0036032D01*
X0054728Y0035880D01*
X0054710Y0035727D01*
X0054688Y0035576D01*
X0054663Y0035425D01*
X0054633Y0035274D01*
X0054599Y0035124D01*
X0054562Y0034976D01*
X0054521Y0034828D01*
X0054476Y0034682D01*
X0054427Y0034536D01*
X0054374Y0034392D01*
X0054318Y0034250D01*
X0054258Y0034109D01*
X0054194Y0033969D01*
X0054127Y0033831D01*
X0054056Y0033695D01*
X0053981Y0033561D01*
X0053904Y0033429D01*
X0053822Y0033299D01*
X0053738Y0033171D01*
X0053650Y0033045D01*
X0053559Y0032922D01*
X0053465Y0032801D01*
X0053367Y0032683D01*
X0053267Y0032567D01*
X0053163Y0032454D01*
X0053057Y0032343D01*
X0052948Y0032235D01*
X0052836Y0032130D01*
X0052722Y0032029D01*
X0052604Y0031930D01*
X0052485Y0031834D01*
X0052363Y0031741D01*
X0052238Y0031652D01*
X0052111Y0031565D01*
X0051982Y0031483D01*
X0051851Y0031403D01*
X0051718Y0031327D01*
X0051583Y0031254D01*
X0051446Y0031185D01*
X0051307Y0031120D01*
X0051167Y0031058D01*
X0051025Y0031000D01*
X0050882Y0030945D01*
X0050737Y0030894D01*
X0050591Y0030847D01*
X0050444Y0030804D01*
X0050296Y0030765D01*
X0050147Y0030729D01*
X0049997Y0030698D01*
X0049846Y0030670D01*
X0049695Y0030646D01*
X0049542Y0030626D01*
X0049390Y0030610D01*
X0049237Y0030598D01*
X0049084Y0030590D01*
X0048931Y0030586D01*
X0048777Y0030586D01*
X0048624Y0030590D01*
X0048471Y0030598D01*
X0048318Y0030610D01*
X0048166Y0030626D01*
X0048013Y0030646D01*
X0047862Y0030670D01*
X0047711Y0030698D01*
X0047561Y0030729D01*
X0047412Y0030765D01*
X0047264Y0030804D01*
X0047117Y0030847D01*
X0046971Y0030894D01*
X0046826Y0030945D01*
X0046683Y0031000D01*
X0046541Y0031058D01*
X0046401Y0031120D01*
X0046262Y0031185D01*
X0046125Y0031254D01*
X0045990Y0031327D01*
X0045857Y0031403D01*
X0045726Y0031483D01*
X0045597Y0031565D01*
X0045470Y0031652D01*
X0045345Y0031741D01*
X0045223Y0031834D01*
X0045104Y0031930D01*
X0044986Y0032029D01*
X0044872Y0032130D01*
X0044760Y0032235D01*
X0044651Y0032343D01*
X0044545Y0032454D01*
X0044441Y0032567D01*
X0044341Y0032683D01*
X0044243Y0032801D01*
X0044149Y0032922D01*
X0044058Y0033045D01*
X0043970Y0033171D01*
X0043886Y0033299D01*
X0043804Y0033429D01*
X0043727Y0033561D01*
X0043652Y0033695D01*
X0043581Y0033831D01*
X0043514Y0033969D01*
X0043450Y0034109D01*
X0043390Y0034250D01*
X0043334Y0034392D01*
X0043281Y0034536D01*
X0043232Y0034682D01*
X0043187Y0034828D01*
X0043146Y0034976D01*
X0043109Y0035124D01*
X0043075Y0035274D01*
X0043045Y0035425D01*
X0043020Y0035576D01*
X0042998Y0035727D01*
X0042980Y0035880D01*
X0042966Y0036032D01*
X0042956Y0036185D01*
X0042950Y0036339D01*
X0042948Y0036492D01*
X0042948Y0296335D02*
X0042950Y0296488D01*
X0042956Y0296642D01*
X0042966Y0296795D01*
X0042980Y0296947D01*
X0042998Y0297100D01*
X0043020Y0297251D01*
X0043045Y0297402D01*
X0043075Y0297553D01*
X0043109Y0297703D01*
X0043146Y0297851D01*
X0043187Y0297999D01*
X0043232Y0298145D01*
X0043281Y0298291D01*
X0043334Y0298435D01*
X0043390Y0298577D01*
X0043450Y0298718D01*
X0043514Y0298858D01*
X0043581Y0298996D01*
X0043652Y0299132D01*
X0043727Y0299266D01*
X0043804Y0299398D01*
X0043886Y0299528D01*
X0043970Y0299656D01*
X0044058Y0299782D01*
X0044149Y0299905D01*
X0044243Y0300026D01*
X0044341Y0300144D01*
X0044441Y0300260D01*
X0044545Y0300373D01*
X0044651Y0300484D01*
X0044760Y0300592D01*
X0044872Y0300697D01*
X0044986Y0300798D01*
X0045104Y0300897D01*
X0045223Y0300993D01*
X0045345Y0301086D01*
X0045470Y0301175D01*
X0045597Y0301262D01*
X0045726Y0301344D01*
X0045857Y0301424D01*
X0045990Y0301500D01*
X0046125Y0301573D01*
X0046262Y0301642D01*
X0046401Y0301707D01*
X0046541Y0301769D01*
X0046683Y0301827D01*
X0046826Y0301882D01*
X0046971Y0301933D01*
X0047117Y0301980D01*
X0047264Y0302023D01*
X0047412Y0302062D01*
X0047561Y0302098D01*
X0047711Y0302129D01*
X0047862Y0302157D01*
X0048013Y0302181D01*
X0048166Y0302201D01*
X0048318Y0302217D01*
X0048471Y0302229D01*
X0048624Y0302237D01*
X0048777Y0302241D01*
X0048931Y0302241D01*
X0049084Y0302237D01*
X0049237Y0302229D01*
X0049390Y0302217D01*
X0049542Y0302201D01*
X0049695Y0302181D01*
X0049846Y0302157D01*
X0049997Y0302129D01*
X0050147Y0302098D01*
X0050296Y0302062D01*
X0050444Y0302023D01*
X0050591Y0301980D01*
X0050737Y0301933D01*
X0050882Y0301882D01*
X0051025Y0301827D01*
X0051167Y0301769D01*
X0051307Y0301707D01*
X0051446Y0301642D01*
X0051583Y0301573D01*
X0051718Y0301500D01*
X0051851Y0301424D01*
X0051982Y0301344D01*
X0052111Y0301262D01*
X0052238Y0301175D01*
X0052363Y0301086D01*
X0052485Y0300993D01*
X0052604Y0300897D01*
X0052722Y0300798D01*
X0052836Y0300697D01*
X0052948Y0300592D01*
X0053057Y0300484D01*
X0053163Y0300373D01*
X0053267Y0300260D01*
X0053367Y0300144D01*
X0053465Y0300026D01*
X0053559Y0299905D01*
X0053650Y0299782D01*
X0053738Y0299656D01*
X0053822Y0299528D01*
X0053904Y0299398D01*
X0053981Y0299266D01*
X0054056Y0299132D01*
X0054127Y0298996D01*
X0054194Y0298858D01*
X0054258Y0298718D01*
X0054318Y0298577D01*
X0054374Y0298435D01*
X0054427Y0298291D01*
X0054476Y0298145D01*
X0054521Y0297999D01*
X0054562Y0297851D01*
X0054599Y0297703D01*
X0054633Y0297553D01*
X0054663Y0297402D01*
X0054688Y0297251D01*
X0054710Y0297100D01*
X0054728Y0296947D01*
X0054742Y0296795D01*
X0054752Y0296642D01*
X0054758Y0296488D01*
X0054760Y0296335D01*
X0054758Y0296182D01*
X0054752Y0296028D01*
X0054742Y0295875D01*
X0054728Y0295723D01*
X0054710Y0295570D01*
X0054688Y0295419D01*
X0054663Y0295268D01*
X0054633Y0295117D01*
X0054599Y0294967D01*
X0054562Y0294819D01*
X0054521Y0294671D01*
X0054476Y0294525D01*
X0054427Y0294379D01*
X0054374Y0294235D01*
X0054318Y0294093D01*
X0054258Y0293952D01*
X0054194Y0293812D01*
X0054127Y0293674D01*
X0054056Y0293538D01*
X0053981Y0293404D01*
X0053904Y0293272D01*
X0053822Y0293142D01*
X0053738Y0293014D01*
X0053650Y0292888D01*
X0053559Y0292765D01*
X0053465Y0292644D01*
X0053367Y0292526D01*
X0053267Y0292410D01*
X0053163Y0292297D01*
X0053057Y0292186D01*
X0052948Y0292078D01*
X0052836Y0291973D01*
X0052722Y0291872D01*
X0052604Y0291773D01*
X0052485Y0291677D01*
X0052363Y0291584D01*
X0052238Y0291495D01*
X0052111Y0291408D01*
X0051982Y0291326D01*
X0051851Y0291246D01*
X0051718Y0291170D01*
X0051583Y0291097D01*
X0051446Y0291028D01*
X0051307Y0290963D01*
X0051167Y0290901D01*
X0051025Y0290843D01*
X0050882Y0290788D01*
X0050737Y0290737D01*
X0050591Y0290690D01*
X0050444Y0290647D01*
X0050296Y0290608D01*
X0050147Y0290572D01*
X0049997Y0290541D01*
X0049846Y0290513D01*
X0049695Y0290489D01*
X0049542Y0290469D01*
X0049390Y0290453D01*
X0049237Y0290441D01*
X0049084Y0290433D01*
X0048931Y0290429D01*
X0048777Y0290429D01*
X0048624Y0290433D01*
X0048471Y0290441D01*
X0048318Y0290453D01*
X0048166Y0290469D01*
X0048013Y0290489D01*
X0047862Y0290513D01*
X0047711Y0290541D01*
X0047561Y0290572D01*
X0047412Y0290608D01*
X0047264Y0290647D01*
X0047117Y0290690D01*
X0046971Y0290737D01*
X0046826Y0290788D01*
X0046683Y0290843D01*
X0046541Y0290901D01*
X0046401Y0290963D01*
X0046262Y0291028D01*
X0046125Y0291097D01*
X0045990Y0291170D01*
X0045857Y0291246D01*
X0045726Y0291326D01*
X0045597Y0291408D01*
X0045470Y0291495D01*
X0045345Y0291584D01*
X0045223Y0291677D01*
X0045104Y0291773D01*
X0044986Y0291872D01*
X0044872Y0291973D01*
X0044760Y0292078D01*
X0044651Y0292186D01*
X0044545Y0292297D01*
X0044441Y0292410D01*
X0044341Y0292526D01*
X0044243Y0292644D01*
X0044149Y0292765D01*
X0044058Y0292888D01*
X0043970Y0293014D01*
X0043886Y0293142D01*
X0043804Y0293272D01*
X0043727Y0293404D01*
X0043652Y0293538D01*
X0043581Y0293674D01*
X0043514Y0293812D01*
X0043450Y0293952D01*
X0043390Y0294093D01*
X0043334Y0294235D01*
X0043281Y0294379D01*
X0043232Y0294525D01*
X0043187Y0294671D01*
X0043146Y0294819D01*
X0043109Y0294967D01*
X0043075Y0295117D01*
X0043045Y0295268D01*
X0043020Y0295419D01*
X0042998Y0295570D01*
X0042980Y0295723D01*
X0042966Y0295875D01*
X0042956Y0296028D01*
X0042950Y0296182D01*
X0042948Y0296335D01*
X0422869Y0296335D02*
X0422871Y0296488D01*
X0422877Y0296642D01*
X0422887Y0296795D01*
X0422901Y0296947D01*
X0422919Y0297100D01*
X0422941Y0297251D01*
X0422966Y0297402D01*
X0422996Y0297553D01*
X0423030Y0297703D01*
X0423067Y0297851D01*
X0423108Y0297999D01*
X0423153Y0298145D01*
X0423202Y0298291D01*
X0423255Y0298435D01*
X0423311Y0298577D01*
X0423371Y0298718D01*
X0423435Y0298858D01*
X0423502Y0298996D01*
X0423573Y0299132D01*
X0423648Y0299266D01*
X0423725Y0299398D01*
X0423807Y0299528D01*
X0423891Y0299656D01*
X0423979Y0299782D01*
X0424070Y0299905D01*
X0424164Y0300026D01*
X0424262Y0300144D01*
X0424362Y0300260D01*
X0424466Y0300373D01*
X0424572Y0300484D01*
X0424681Y0300592D01*
X0424793Y0300697D01*
X0424907Y0300798D01*
X0425025Y0300897D01*
X0425144Y0300993D01*
X0425266Y0301086D01*
X0425391Y0301175D01*
X0425518Y0301262D01*
X0425647Y0301344D01*
X0425778Y0301424D01*
X0425911Y0301500D01*
X0426046Y0301573D01*
X0426183Y0301642D01*
X0426322Y0301707D01*
X0426462Y0301769D01*
X0426604Y0301827D01*
X0426747Y0301882D01*
X0426892Y0301933D01*
X0427038Y0301980D01*
X0427185Y0302023D01*
X0427333Y0302062D01*
X0427482Y0302098D01*
X0427632Y0302129D01*
X0427783Y0302157D01*
X0427934Y0302181D01*
X0428087Y0302201D01*
X0428239Y0302217D01*
X0428392Y0302229D01*
X0428545Y0302237D01*
X0428698Y0302241D01*
X0428852Y0302241D01*
X0429005Y0302237D01*
X0429158Y0302229D01*
X0429311Y0302217D01*
X0429463Y0302201D01*
X0429616Y0302181D01*
X0429767Y0302157D01*
X0429918Y0302129D01*
X0430068Y0302098D01*
X0430217Y0302062D01*
X0430365Y0302023D01*
X0430512Y0301980D01*
X0430658Y0301933D01*
X0430803Y0301882D01*
X0430946Y0301827D01*
X0431088Y0301769D01*
X0431228Y0301707D01*
X0431367Y0301642D01*
X0431504Y0301573D01*
X0431639Y0301500D01*
X0431772Y0301424D01*
X0431903Y0301344D01*
X0432032Y0301262D01*
X0432159Y0301175D01*
X0432284Y0301086D01*
X0432406Y0300993D01*
X0432525Y0300897D01*
X0432643Y0300798D01*
X0432757Y0300697D01*
X0432869Y0300592D01*
X0432978Y0300484D01*
X0433084Y0300373D01*
X0433188Y0300260D01*
X0433288Y0300144D01*
X0433386Y0300026D01*
X0433480Y0299905D01*
X0433571Y0299782D01*
X0433659Y0299656D01*
X0433743Y0299528D01*
X0433825Y0299398D01*
X0433902Y0299266D01*
X0433977Y0299132D01*
X0434048Y0298996D01*
X0434115Y0298858D01*
X0434179Y0298718D01*
X0434239Y0298577D01*
X0434295Y0298435D01*
X0434348Y0298291D01*
X0434397Y0298145D01*
X0434442Y0297999D01*
X0434483Y0297851D01*
X0434520Y0297703D01*
X0434554Y0297553D01*
X0434584Y0297402D01*
X0434609Y0297251D01*
X0434631Y0297100D01*
X0434649Y0296947D01*
X0434663Y0296795D01*
X0434673Y0296642D01*
X0434679Y0296488D01*
X0434681Y0296335D01*
X0434679Y0296182D01*
X0434673Y0296028D01*
X0434663Y0295875D01*
X0434649Y0295723D01*
X0434631Y0295570D01*
X0434609Y0295419D01*
X0434584Y0295268D01*
X0434554Y0295117D01*
X0434520Y0294967D01*
X0434483Y0294819D01*
X0434442Y0294671D01*
X0434397Y0294525D01*
X0434348Y0294379D01*
X0434295Y0294235D01*
X0434239Y0294093D01*
X0434179Y0293952D01*
X0434115Y0293812D01*
X0434048Y0293674D01*
X0433977Y0293538D01*
X0433902Y0293404D01*
X0433825Y0293272D01*
X0433743Y0293142D01*
X0433659Y0293014D01*
X0433571Y0292888D01*
X0433480Y0292765D01*
X0433386Y0292644D01*
X0433288Y0292526D01*
X0433188Y0292410D01*
X0433084Y0292297D01*
X0432978Y0292186D01*
X0432869Y0292078D01*
X0432757Y0291973D01*
X0432643Y0291872D01*
X0432525Y0291773D01*
X0432406Y0291677D01*
X0432284Y0291584D01*
X0432159Y0291495D01*
X0432032Y0291408D01*
X0431903Y0291326D01*
X0431772Y0291246D01*
X0431639Y0291170D01*
X0431504Y0291097D01*
X0431367Y0291028D01*
X0431228Y0290963D01*
X0431088Y0290901D01*
X0430946Y0290843D01*
X0430803Y0290788D01*
X0430658Y0290737D01*
X0430512Y0290690D01*
X0430365Y0290647D01*
X0430217Y0290608D01*
X0430068Y0290572D01*
X0429918Y0290541D01*
X0429767Y0290513D01*
X0429616Y0290489D01*
X0429463Y0290469D01*
X0429311Y0290453D01*
X0429158Y0290441D01*
X0429005Y0290433D01*
X0428852Y0290429D01*
X0428698Y0290429D01*
X0428545Y0290433D01*
X0428392Y0290441D01*
X0428239Y0290453D01*
X0428087Y0290469D01*
X0427934Y0290489D01*
X0427783Y0290513D01*
X0427632Y0290541D01*
X0427482Y0290572D01*
X0427333Y0290608D01*
X0427185Y0290647D01*
X0427038Y0290690D01*
X0426892Y0290737D01*
X0426747Y0290788D01*
X0426604Y0290843D01*
X0426462Y0290901D01*
X0426322Y0290963D01*
X0426183Y0291028D01*
X0426046Y0291097D01*
X0425911Y0291170D01*
X0425778Y0291246D01*
X0425647Y0291326D01*
X0425518Y0291408D01*
X0425391Y0291495D01*
X0425266Y0291584D01*
X0425144Y0291677D01*
X0425025Y0291773D01*
X0424907Y0291872D01*
X0424793Y0291973D01*
X0424681Y0292078D01*
X0424572Y0292186D01*
X0424466Y0292297D01*
X0424362Y0292410D01*
X0424262Y0292526D01*
X0424164Y0292644D01*
X0424070Y0292765D01*
X0423979Y0292888D01*
X0423891Y0293014D01*
X0423807Y0293142D01*
X0423725Y0293272D01*
X0423648Y0293404D01*
X0423573Y0293538D01*
X0423502Y0293674D01*
X0423435Y0293812D01*
X0423371Y0293952D01*
X0423311Y0294093D01*
X0423255Y0294235D01*
X0423202Y0294379D01*
X0423153Y0294525D01*
X0423108Y0294671D01*
X0423067Y0294819D01*
X0423030Y0294967D01*
X0422996Y0295117D01*
X0422966Y0295268D01*
X0422941Y0295419D01*
X0422919Y0295570D01*
X0422901Y0295723D01*
X0422887Y0295875D01*
X0422877Y0296028D01*
X0422871Y0296182D01*
X0422869Y0296335D01*
X0422869Y0036492D02*
X0422871Y0036645D01*
X0422877Y0036799D01*
X0422887Y0036952D01*
X0422901Y0037104D01*
X0422919Y0037257D01*
X0422941Y0037408D01*
X0422966Y0037559D01*
X0422996Y0037710D01*
X0423030Y0037860D01*
X0423067Y0038008D01*
X0423108Y0038156D01*
X0423153Y0038302D01*
X0423202Y0038448D01*
X0423255Y0038592D01*
X0423311Y0038734D01*
X0423371Y0038875D01*
X0423435Y0039015D01*
X0423502Y0039153D01*
X0423573Y0039289D01*
X0423648Y0039423D01*
X0423725Y0039555D01*
X0423807Y0039685D01*
X0423891Y0039813D01*
X0423979Y0039939D01*
X0424070Y0040062D01*
X0424164Y0040183D01*
X0424262Y0040301D01*
X0424362Y0040417D01*
X0424466Y0040530D01*
X0424572Y0040641D01*
X0424681Y0040749D01*
X0424793Y0040854D01*
X0424907Y0040955D01*
X0425025Y0041054D01*
X0425144Y0041150D01*
X0425266Y0041243D01*
X0425391Y0041332D01*
X0425518Y0041419D01*
X0425647Y0041501D01*
X0425778Y0041581D01*
X0425911Y0041657D01*
X0426046Y0041730D01*
X0426183Y0041799D01*
X0426322Y0041864D01*
X0426462Y0041926D01*
X0426604Y0041984D01*
X0426747Y0042039D01*
X0426892Y0042090D01*
X0427038Y0042137D01*
X0427185Y0042180D01*
X0427333Y0042219D01*
X0427482Y0042255D01*
X0427632Y0042286D01*
X0427783Y0042314D01*
X0427934Y0042338D01*
X0428087Y0042358D01*
X0428239Y0042374D01*
X0428392Y0042386D01*
X0428545Y0042394D01*
X0428698Y0042398D01*
X0428852Y0042398D01*
X0429005Y0042394D01*
X0429158Y0042386D01*
X0429311Y0042374D01*
X0429463Y0042358D01*
X0429616Y0042338D01*
X0429767Y0042314D01*
X0429918Y0042286D01*
X0430068Y0042255D01*
X0430217Y0042219D01*
X0430365Y0042180D01*
X0430512Y0042137D01*
X0430658Y0042090D01*
X0430803Y0042039D01*
X0430946Y0041984D01*
X0431088Y0041926D01*
X0431228Y0041864D01*
X0431367Y0041799D01*
X0431504Y0041730D01*
X0431639Y0041657D01*
X0431772Y0041581D01*
X0431903Y0041501D01*
X0432032Y0041419D01*
X0432159Y0041332D01*
X0432284Y0041243D01*
X0432406Y0041150D01*
X0432525Y0041054D01*
X0432643Y0040955D01*
X0432757Y0040854D01*
X0432869Y0040749D01*
X0432978Y0040641D01*
X0433084Y0040530D01*
X0433188Y0040417D01*
X0433288Y0040301D01*
X0433386Y0040183D01*
X0433480Y0040062D01*
X0433571Y0039939D01*
X0433659Y0039813D01*
X0433743Y0039685D01*
X0433825Y0039555D01*
X0433902Y0039423D01*
X0433977Y0039289D01*
X0434048Y0039153D01*
X0434115Y0039015D01*
X0434179Y0038875D01*
X0434239Y0038734D01*
X0434295Y0038592D01*
X0434348Y0038448D01*
X0434397Y0038302D01*
X0434442Y0038156D01*
X0434483Y0038008D01*
X0434520Y0037860D01*
X0434554Y0037710D01*
X0434584Y0037559D01*
X0434609Y0037408D01*
X0434631Y0037257D01*
X0434649Y0037104D01*
X0434663Y0036952D01*
X0434673Y0036799D01*
X0434679Y0036645D01*
X0434681Y0036492D01*
X0434679Y0036339D01*
X0434673Y0036185D01*
X0434663Y0036032D01*
X0434649Y0035880D01*
X0434631Y0035727D01*
X0434609Y0035576D01*
X0434584Y0035425D01*
X0434554Y0035274D01*
X0434520Y0035124D01*
X0434483Y0034976D01*
X0434442Y0034828D01*
X0434397Y0034682D01*
X0434348Y0034536D01*
X0434295Y0034392D01*
X0434239Y0034250D01*
X0434179Y0034109D01*
X0434115Y0033969D01*
X0434048Y0033831D01*
X0433977Y0033695D01*
X0433902Y0033561D01*
X0433825Y0033429D01*
X0433743Y0033299D01*
X0433659Y0033171D01*
X0433571Y0033045D01*
X0433480Y0032922D01*
X0433386Y0032801D01*
X0433288Y0032683D01*
X0433188Y0032567D01*
X0433084Y0032454D01*
X0432978Y0032343D01*
X0432869Y0032235D01*
X0432757Y0032130D01*
X0432643Y0032029D01*
X0432525Y0031930D01*
X0432406Y0031834D01*
X0432284Y0031741D01*
X0432159Y0031652D01*
X0432032Y0031565D01*
X0431903Y0031483D01*
X0431772Y0031403D01*
X0431639Y0031327D01*
X0431504Y0031254D01*
X0431367Y0031185D01*
X0431228Y0031120D01*
X0431088Y0031058D01*
X0430946Y0031000D01*
X0430803Y0030945D01*
X0430658Y0030894D01*
X0430512Y0030847D01*
X0430365Y0030804D01*
X0430217Y0030765D01*
X0430068Y0030729D01*
X0429918Y0030698D01*
X0429767Y0030670D01*
X0429616Y0030646D01*
X0429463Y0030626D01*
X0429311Y0030610D01*
X0429158Y0030598D01*
X0429005Y0030590D01*
X0428852Y0030586D01*
X0428698Y0030586D01*
X0428545Y0030590D01*
X0428392Y0030598D01*
X0428239Y0030610D01*
X0428087Y0030626D01*
X0427934Y0030646D01*
X0427783Y0030670D01*
X0427632Y0030698D01*
X0427482Y0030729D01*
X0427333Y0030765D01*
X0427185Y0030804D01*
X0427038Y0030847D01*
X0426892Y0030894D01*
X0426747Y0030945D01*
X0426604Y0031000D01*
X0426462Y0031058D01*
X0426322Y0031120D01*
X0426183Y0031185D01*
X0426046Y0031254D01*
X0425911Y0031327D01*
X0425778Y0031403D01*
X0425647Y0031483D01*
X0425518Y0031565D01*
X0425391Y0031652D01*
X0425266Y0031741D01*
X0425144Y0031834D01*
X0425025Y0031930D01*
X0424907Y0032029D01*
X0424793Y0032130D01*
X0424681Y0032235D01*
X0424572Y0032343D01*
X0424466Y0032454D01*
X0424362Y0032567D01*
X0424262Y0032683D01*
X0424164Y0032801D01*
X0424070Y0032922D01*
X0423979Y0033045D01*
X0423891Y0033171D01*
X0423807Y0033299D01*
X0423725Y0033429D01*
X0423648Y0033561D01*
X0423573Y0033695D01*
X0423502Y0033831D01*
X0423435Y0033969D01*
X0423371Y0034109D01*
X0423311Y0034250D01*
X0423255Y0034392D01*
X0423202Y0034536D01*
X0423153Y0034682D01*
X0423108Y0034828D01*
X0423067Y0034976D01*
X0423030Y0035124D01*
X0422996Y0035274D01*
X0422966Y0035425D01*
X0422941Y0035576D01*
X0422919Y0035727D01*
X0422901Y0035880D01*
X0422887Y0036032D01*
X0422877Y0036185D01*
X0422871Y0036339D01*
X0422869Y0036492D01*
D12*
X0038342Y0026433D02*
X0005665Y0026433D01*
X0013342Y0026689D02*
X0014365Y0036669D01*
X0014599Y0036669D02*
X0013342Y0026689D01*
X0012318Y0036669D01*
X0012085Y0036669D02*
X0014599Y0036669D01*
X0013854Y0036669D02*
X0013342Y0026689D01*
X0012830Y0036669D01*
X0012085Y0036669D02*
X0013342Y0026689D01*
X0013342Y0306177D01*
X0014365Y0296197D01*
X0014599Y0296197D02*
X0013342Y0306177D01*
X0012318Y0296197D01*
X0012085Y0296197D02*
X0014599Y0296197D01*
X0013854Y0296197D02*
X0013342Y0306177D01*
X0012830Y0296197D01*
X0012085Y0296197D02*
X0013342Y0306177D01*
X0005665Y0306433D02*
X0038342Y0306433D01*
X0038342Y0329110D01*
X0038598Y0321433D02*
X0048578Y0320409D01*
X0048578Y0320176D02*
X0038598Y0321433D01*
X0048578Y0322457D01*
X0048578Y0322690D02*
X0048578Y0320176D01*
X0048578Y0320921D02*
X0038598Y0321433D01*
X0048578Y0321945D01*
X0048578Y0322690D02*
X0038598Y0321433D01*
X0440586Y0321433D01*
X0430606Y0320409D01*
X0430606Y0320176D02*
X0440586Y0321433D01*
X0430606Y0322457D01*
X0430606Y0322690D02*
X0430606Y0320176D01*
X0430606Y0320921D02*
X0440586Y0321433D01*
X0430606Y0321945D01*
X0430606Y0322690D02*
X0440586Y0321433D01*
X0440842Y0329110D02*
X0440842Y0301433D01*
X0440842Y0306433D02*
X0466019Y0306433D01*
X0458342Y0306177D02*
X0459365Y0296197D01*
X0459599Y0296197D02*
X0458342Y0306177D01*
X0457318Y0296197D01*
X0457085Y0296197D02*
X0459599Y0296197D01*
X0458854Y0296197D02*
X0458342Y0306177D01*
X0457830Y0296197D01*
X0457085Y0296197D02*
X0458342Y0306177D01*
X0458342Y0026689D01*
X0459365Y0036669D01*
X0459599Y0036669D02*
X0458342Y0026689D01*
X0457318Y0036669D01*
X0457085Y0036669D02*
X0459599Y0036669D01*
X0458854Y0036669D02*
X0458342Y0026689D01*
X0457830Y0036669D01*
X0457085Y0036669D02*
X0458342Y0026689D01*
X0466019Y0026433D02*
X0440842Y0026433D01*
X0440842Y0001256D01*
X0440586Y0008933D02*
X0430606Y0007909D01*
X0430606Y0007676D02*
X0440586Y0008933D01*
X0430606Y0009957D01*
X0430606Y0010190D02*
X0430606Y0007676D01*
X0430606Y0008421D02*
X0440586Y0008933D01*
X0430606Y0009445D01*
X0430606Y0010190D02*
X0440586Y0008933D01*
X0038598Y0008933D01*
X0048578Y0007909D01*
X0048578Y0007676D02*
X0038598Y0008933D01*
X0048578Y0009957D01*
X0048578Y0010190D02*
X0048578Y0007676D01*
X0048578Y0008421D02*
X0038598Y0008933D01*
X0048578Y0009445D01*
X0048578Y0010190D02*
X0038598Y0008933D01*
X0038342Y0001256D02*
X0038342Y0026433D01*
D13*
X0060783Y0035646D02*
X0060783Y0040646D01*
X0063283Y0043146D01*
X0060783Y0045646D01*
X0060783Y0050646D01*
X0063283Y0053146D01*
X0060783Y0055646D01*
X0060783Y0060646D01*
X0063283Y0063146D01*
X0060783Y0065646D01*
X0060783Y0070646D01*
X0063283Y0073146D01*
X0060783Y0075646D01*
X0060783Y0080646D01*
X0063283Y0083146D01*
X0068283Y0083146D01*
X0070783Y0080646D01*
X0070783Y0075646D01*
X0068283Y0073146D01*
X0070783Y0070646D01*
X0070783Y0065646D01*
X0068283Y0063146D01*
X0063283Y0063146D01*
X0068283Y0063146D02*
X0070783Y0060646D01*
X0070783Y0055646D01*
X0068283Y0053146D01*
X0070783Y0050646D01*
X0070783Y0045646D01*
X0068283Y0043146D01*
X0070783Y0040646D01*
X0070783Y0035646D01*
X0068283Y0033146D01*
X0063283Y0033146D01*
X0060783Y0035646D01*
X0063283Y0043146D02*
X0068283Y0043146D01*
X0068283Y0053146D02*
X0063283Y0053146D01*
X0083062Y0053295D02*
X0083062Y0039795D01*
X0186062Y0039795D01*
X0186062Y0053295D01*
X0177062Y0051295D02*
X0177062Y0046795D01*
X0157062Y0046795D01*
X0157062Y0051295D01*
X0177062Y0051295D01*
X0178562Y0069295D02*
X0178562Y0073795D01*
X0177062Y0073795D01*
X0177062Y0071295D01*
X0157062Y0071295D01*
X0157062Y0075795D01*
X0177062Y0075795D01*
X0179562Y0075795D01*
X0179562Y0069295D01*
X0186062Y0069295D02*
X0186062Y0082795D01*
X0083062Y0082795D01*
X0083062Y0069295D01*
X0092062Y0071295D02*
X0092062Y0075795D01*
X0112062Y0075795D01*
X0112062Y0071295D01*
X0092062Y0071295D01*
X0068283Y0073146D02*
X0063283Y0073146D01*
X0089562Y0053295D02*
X0089562Y0046795D01*
X0092062Y0046795D01*
X0112062Y0046795D01*
X0112062Y0051295D01*
X0092062Y0051295D01*
X0092062Y0048795D01*
X0090562Y0048795D01*
X0090562Y0053295D01*
X0092062Y0048795D02*
X0092062Y0046795D01*
X0079507Y0095902D02*
X0079510Y0096172D01*
X0079520Y0096442D01*
X0079537Y0096711D01*
X0079560Y0096980D01*
X0079590Y0097249D01*
X0079626Y0097516D01*
X0079669Y0097783D01*
X0079718Y0098048D01*
X0079774Y0098312D01*
X0079837Y0098575D01*
X0079905Y0098836D01*
X0079981Y0099095D01*
X0080062Y0099352D01*
X0080150Y0099608D01*
X0080244Y0099861D01*
X0080344Y0100112D01*
X0080451Y0100360D01*
X0080563Y0100605D01*
X0080682Y0100848D01*
X0080806Y0101087D01*
X0080936Y0101324D01*
X0081072Y0101557D01*
X0081214Y0101787D01*
X0081361Y0102013D01*
X0081514Y0102236D01*
X0081672Y0102455D01*
X0081835Y0102670D01*
X0082004Y0102880D01*
X0082178Y0103087D01*
X0082357Y0103289D01*
X0082540Y0103487D01*
X0082729Y0103680D01*
X0082922Y0103869D01*
X0083120Y0104052D01*
X0083322Y0104231D01*
X0083529Y0104405D01*
X0083739Y0104574D01*
X0083954Y0104737D01*
X0084173Y0104895D01*
X0084396Y0105048D01*
X0084622Y0105195D01*
X0084852Y0105337D01*
X0085085Y0105473D01*
X0085322Y0105603D01*
X0085561Y0105727D01*
X0085804Y0105846D01*
X0086049Y0105958D01*
X0086297Y0106065D01*
X0086548Y0106165D01*
X0086801Y0106259D01*
X0087057Y0106347D01*
X0087314Y0106428D01*
X0087573Y0106504D01*
X0087834Y0106572D01*
X0088097Y0106635D01*
X0088361Y0106691D01*
X0088626Y0106740D01*
X0088893Y0106783D01*
X0089160Y0106819D01*
X0089429Y0106849D01*
X0089698Y0106872D01*
X0089967Y0106889D01*
X0090237Y0106899D01*
X0090507Y0106902D01*
X0090777Y0106899D01*
X0091047Y0106889D01*
X0091316Y0106872D01*
X0091585Y0106849D01*
X0091854Y0106819D01*
X0092121Y0106783D01*
X0092388Y0106740D01*
X0092653Y0106691D01*
X0092917Y0106635D01*
X0093180Y0106572D01*
X0093441Y0106504D01*
X0093700Y0106428D01*
X0093957Y0106347D01*
X0094213Y0106259D01*
X0094466Y0106165D01*
X0094717Y0106065D01*
X0094965Y0105958D01*
X0095210Y0105846D01*
X0095453Y0105727D01*
X0095692Y0105603D01*
X0095929Y0105473D01*
X0096162Y0105337D01*
X0096392Y0105195D01*
X0096618Y0105048D01*
X0096841Y0104895D01*
X0097060Y0104737D01*
X0097275Y0104574D01*
X0097485Y0104405D01*
X0097692Y0104231D01*
X0097894Y0104052D01*
X0098092Y0103869D01*
X0098285Y0103680D01*
X0098474Y0103487D01*
X0098657Y0103289D01*
X0098836Y0103087D01*
X0099010Y0102880D01*
X0099179Y0102670D01*
X0099342Y0102455D01*
X0099500Y0102236D01*
X0099653Y0102013D01*
X0099800Y0101787D01*
X0099942Y0101557D01*
X0100078Y0101324D01*
X0100208Y0101087D01*
X0100332Y0100848D01*
X0100451Y0100605D01*
X0100563Y0100360D01*
X0100670Y0100112D01*
X0100770Y0099861D01*
X0100864Y0099608D01*
X0100952Y0099352D01*
X0101033Y0099095D01*
X0101109Y0098836D01*
X0101177Y0098575D01*
X0101240Y0098312D01*
X0101296Y0098048D01*
X0101345Y0097783D01*
X0101388Y0097516D01*
X0101424Y0097249D01*
X0101454Y0096980D01*
X0101477Y0096711D01*
X0101494Y0096442D01*
X0101504Y0096172D01*
X0101507Y0095902D01*
X0101504Y0095632D01*
X0101494Y0095362D01*
X0101477Y0095093D01*
X0101454Y0094824D01*
X0101424Y0094555D01*
X0101388Y0094288D01*
X0101345Y0094021D01*
X0101296Y0093756D01*
X0101240Y0093492D01*
X0101177Y0093229D01*
X0101109Y0092968D01*
X0101033Y0092709D01*
X0100952Y0092452D01*
X0100864Y0092196D01*
X0100770Y0091943D01*
X0100670Y0091692D01*
X0100563Y0091444D01*
X0100451Y0091199D01*
X0100332Y0090956D01*
X0100208Y0090717D01*
X0100078Y0090480D01*
X0099942Y0090247D01*
X0099800Y0090017D01*
X0099653Y0089791D01*
X0099500Y0089568D01*
X0099342Y0089349D01*
X0099179Y0089134D01*
X0099010Y0088924D01*
X0098836Y0088717D01*
X0098657Y0088515D01*
X0098474Y0088317D01*
X0098285Y0088124D01*
X0098092Y0087935D01*
X0097894Y0087752D01*
X0097692Y0087573D01*
X0097485Y0087399D01*
X0097275Y0087230D01*
X0097060Y0087067D01*
X0096841Y0086909D01*
X0096618Y0086756D01*
X0096392Y0086609D01*
X0096162Y0086467D01*
X0095929Y0086331D01*
X0095692Y0086201D01*
X0095453Y0086077D01*
X0095210Y0085958D01*
X0094965Y0085846D01*
X0094717Y0085739D01*
X0094466Y0085639D01*
X0094213Y0085545D01*
X0093957Y0085457D01*
X0093700Y0085376D01*
X0093441Y0085300D01*
X0093180Y0085232D01*
X0092917Y0085169D01*
X0092653Y0085113D01*
X0092388Y0085064D01*
X0092121Y0085021D01*
X0091854Y0084985D01*
X0091585Y0084955D01*
X0091316Y0084932D01*
X0091047Y0084915D01*
X0090777Y0084905D01*
X0090507Y0084902D01*
X0090237Y0084905D01*
X0089967Y0084915D01*
X0089698Y0084932D01*
X0089429Y0084955D01*
X0089160Y0084985D01*
X0088893Y0085021D01*
X0088626Y0085064D01*
X0088361Y0085113D01*
X0088097Y0085169D01*
X0087834Y0085232D01*
X0087573Y0085300D01*
X0087314Y0085376D01*
X0087057Y0085457D01*
X0086801Y0085545D01*
X0086548Y0085639D01*
X0086297Y0085739D01*
X0086049Y0085846D01*
X0085804Y0085958D01*
X0085561Y0086077D01*
X0085322Y0086201D01*
X0085085Y0086331D01*
X0084852Y0086467D01*
X0084622Y0086609D01*
X0084396Y0086756D01*
X0084173Y0086909D01*
X0083954Y0087067D01*
X0083739Y0087230D01*
X0083529Y0087399D01*
X0083322Y0087573D01*
X0083120Y0087752D01*
X0082922Y0087935D01*
X0082729Y0088124D01*
X0082540Y0088317D01*
X0082357Y0088515D01*
X0082178Y0088717D01*
X0082004Y0088924D01*
X0081835Y0089134D01*
X0081672Y0089349D01*
X0081514Y0089568D01*
X0081361Y0089791D01*
X0081214Y0090017D01*
X0081072Y0090247D01*
X0080936Y0090480D01*
X0080806Y0090717D01*
X0080682Y0090956D01*
X0080563Y0091199D01*
X0080451Y0091444D01*
X0080344Y0091692D01*
X0080244Y0091943D01*
X0080150Y0092196D01*
X0080062Y0092452D01*
X0079981Y0092709D01*
X0079905Y0092968D01*
X0079837Y0093229D01*
X0079774Y0093492D01*
X0079718Y0093756D01*
X0079669Y0094021D01*
X0079626Y0094288D01*
X0079590Y0094555D01*
X0079560Y0094824D01*
X0079537Y0095093D01*
X0079520Y0095362D01*
X0079510Y0095632D01*
X0079507Y0095902D01*
X0084007Y0099402D02*
X0084007Y0100902D01*
X0084007Y0102402D01*
X0084007Y0100902D02*
X0085507Y0100902D01*
X0084007Y0100902D02*
X0082507Y0100902D01*
X0079743Y0119996D02*
X0079746Y0120266D01*
X0079756Y0120536D01*
X0079773Y0120805D01*
X0079796Y0121074D01*
X0079826Y0121343D01*
X0079862Y0121610D01*
X0079905Y0121877D01*
X0079954Y0122142D01*
X0080010Y0122406D01*
X0080073Y0122669D01*
X0080141Y0122930D01*
X0080217Y0123189D01*
X0080298Y0123446D01*
X0080386Y0123702D01*
X0080480Y0123955D01*
X0080580Y0124206D01*
X0080687Y0124454D01*
X0080799Y0124699D01*
X0080918Y0124942D01*
X0081042Y0125181D01*
X0081172Y0125418D01*
X0081308Y0125651D01*
X0081450Y0125881D01*
X0081597Y0126107D01*
X0081750Y0126330D01*
X0081908Y0126549D01*
X0082071Y0126764D01*
X0082240Y0126974D01*
X0082414Y0127181D01*
X0082593Y0127383D01*
X0082776Y0127581D01*
X0082965Y0127774D01*
X0083158Y0127963D01*
X0083356Y0128146D01*
X0083558Y0128325D01*
X0083765Y0128499D01*
X0083975Y0128668D01*
X0084190Y0128831D01*
X0084409Y0128989D01*
X0084632Y0129142D01*
X0084858Y0129289D01*
X0085088Y0129431D01*
X0085321Y0129567D01*
X0085558Y0129697D01*
X0085797Y0129821D01*
X0086040Y0129940D01*
X0086285Y0130052D01*
X0086533Y0130159D01*
X0086784Y0130259D01*
X0087037Y0130353D01*
X0087293Y0130441D01*
X0087550Y0130522D01*
X0087809Y0130598D01*
X0088070Y0130666D01*
X0088333Y0130729D01*
X0088597Y0130785D01*
X0088862Y0130834D01*
X0089129Y0130877D01*
X0089396Y0130913D01*
X0089665Y0130943D01*
X0089934Y0130966D01*
X0090203Y0130983D01*
X0090473Y0130993D01*
X0090743Y0130996D01*
X0091013Y0130993D01*
X0091283Y0130983D01*
X0091552Y0130966D01*
X0091821Y0130943D01*
X0092090Y0130913D01*
X0092357Y0130877D01*
X0092624Y0130834D01*
X0092889Y0130785D01*
X0093153Y0130729D01*
X0093416Y0130666D01*
X0093677Y0130598D01*
X0093936Y0130522D01*
X0094193Y0130441D01*
X0094449Y0130353D01*
X0094702Y0130259D01*
X0094953Y0130159D01*
X0095201Y0130052D01*
X0095446Y0129940D01*
X0095689Y0129821D01*
X0095928Y0129697D01*
X0096165Y0129567D01*
X0096398Y0129431D01*
X0096628Y0129289D01*
X0096854Y0129142D01*
X0097077Y0128989D01*
X0097296Y0128831D01*
X0097511Y0128668D01*
X0097721Y0128499D01*
X0097928Y0128325D01*
X0098130Y0128146D01*
X0098328Y0127963D01*
X0098521Y0127774D01*
X0098710Y0127581D01*
X0098893Y0127383D01*
X0099072Y0127181D01*
X0099246Y0126974D01*
X0099415Y0126764D01*
X0099578Y0126549D01*
X0099736Y0126330D01*
X0099889Y0126107D01*
X0100036Y0125881D01*
X0100178Y0125651D01*
X0100314Y0125418D01*
X0100444Y0125181D01*
X0100568Y0124942D01*
X0100687Y0124699D01*
X0100799Y0124454D01*
X0100906Y0124206D01*
X0101006Y0123955D01*
X0101100Y0123702D01*
X0101188Y0123446D01*
X0101269Y0123189D01*
X0101345Y0122930D01*
X0101413Y0122669D01*
X0101476Y0122406D01*
X0101532Y0122142D01*
X0101581Y0121877D01*
X0101624Y0121610D01*
X0101660Y0121343D01*
X0101690Y0121074D01*
X0101713Y0120805D01*
X0101730Y0120536D01*
X0101740Y0120266D01*
X0101743Y0119996D01*
X0101740Y0119726D01*
X0101730Y0119456D01*
X0101713Y0119187D01*
X0101690Y0118918D01*
X0101660Y0118649D01*
X0101624Y0118382D01*
X0101581Y0118115D01*
X0101532Y0117850D01*
X0101476Y0117586D01*
X0101413Y0117323D01*
X0101345Y0117062D01*
X0101269Y0116803D01*
X0101188Y0116546D01*
X0101100Y0116290D01*
X0101006Y0116037D01*
X0100906Y0115786D01*
X0100799Y0115538D01*
X0100687Y0115293D01*
X0100568Y0115050D01*
X0100444Y0114811D01*
X0100314Y0114574D01*
X0100178Y0114341D01*
X0100036Y0114111D01*
X0099889Y0113885D01*
X0099736Y0113662D01*
X0099578Y0113443D01*
X0099415Y0113228D01*
X0099246Y0113018D01*
X0099072Y0112811D01*
X0098893Y0112609D01*
X0098710Y0112411D01*
X0098521Y0112218D01*
X0098328Y0112029D01*
X0098130Y0111846D01*
X0097928Y0111667D01*
X0097721Y0111493D01*
X0097511Y0111324D01*
X0097296Y0111161D01*
X0097077Y0111003D01*
X0096854Y0110850D01*
X0096628Y0110703D01*
X0096398Y0110561D01*
X0096165Y0110425D01*
X0095928Y0110295D01*
X0095689Y0110171D01*
X0095446Y0110052D01*
X0095201Y0109940D01*
X0094953Y0109833D01*
X0094702Y0109733D01*
X0094449Y0109639D01*
X0094193Y0109551D01*
X0093936Y0109470D01*
X0093677Y0109394D01*
X0093416Y0109326D01*
X0093153Y0109263D01*
X0092889Y0109207D01*
X0092624Y0109158D01*
X0092357Y0109115D01*
X0092090Y0109079D01*
X0091821Y0109049D01*
X0091552Y0109026D01*
X0091283Y0109009D01*
X0091013Y0108999D01*
X0090743Y0108996D01*
X0090473Y0108999D01*
X0090203Y0109009D01*
X0089934Y0109026D01*
X0089665Y0109049D01*
X0089396Y0109079D01*
X0089129Y0109115D01*
X0088862Y0109158D01*
X0088597Y0109207D01*
X0088333Y0109263D01*
X0088070Y0109326D01*
X0087809Y0109394D01*
X0087550Y0109470D01*
X0087293Y0109551D01*
X0087037Y0109639D01*
X0086784Y0109733D01*
X0086533Y0109833D01*
X0086285Y0109940D01*
X0086040Y0110052D01*
X0085797Y0110171D01*
X0085558Y0110295D01*
X0085321Y0110425D01*
X0085088Y0110561D01*
X0084858Y0110703D01*
X0084632Y0110850D01*
X0084409Y0111003D01*
X0084190Y0111161D01*
X0083975Y0111324D01*
X0083765Y0111493D01*
X0083558Y0111667D01*
X0083356Y0111846D01*
X0083158Y0112029D01*
X0082965Y0112218D01*
X0082776Y0112411D01*
X0082593Y0112609D01*
X0082414Y0112811D01*
X0082240Y0113018D01*
X0082071Y0113228D01*
X0081908Y0113443D01*
X0081750Y0113662D01*
X0081597Y0113885D01*
X0081450Y0114111D01*
X0081308Y0114341D01*
X0081172Y0114574D01*
X0081042Y0114811D01*
X0080918Y0115050D01*
X0080799Y0115293D01*
X0080687Y0115538D01*
X0080580Y0115786D01*
X0080480Y0116037D01*
X0080386Y0116290D01*
X0080298Y0116546D01*
X0080217Y0116803D01*
X0080141Y0117062D01*
X0080073Y0117323D01*
X0080010Y0117586D01*
X0079954Y0117850D01*
X0079905Y0118115D01*
X0079862Y0118382D01*
X0079826Y0118649D01*
X0079796Y0118918D01*
X0079773Y0119187D01*
X0079756Y0119456D01*
X0079746Y0119726D01*
X0079743Y0119996D01*
X0084243Y0123496D02*
X0084243Y0124996D01*
X0084243Y0126496D01*
X0084243Y0124996D02*
X0085743Y0124996D01*
X0084243Y0124996D02*
X0082743Y0124996D01*
X0079586Y0143185D02*
X0079589Y0143455D01*
X0079599Y0143725D01*
X0079616Y0143994D01*
X0079639Y0144263D01*
X0079669Y0144532D01*
X0079705Y0144799D01*
X0079748Y0145066D01*
X0079797Y0145331D01*
X0079853Y0145595D01*
X0079916Y0145858D01*
X0079984Y0146119D01*
X0080060Y0146378D01*
X0080141Y0146635D01*
X0080229Y0146891D01*
X0080323Y0147144D01*
X0080423Y0147395D01*
X0080530Y0147643D01*
X0080642Y0147888D01*
X0080761Y0148131D01*
X0080885Y0148370D01*
X0081015Y0148607D01*
X0081151Y0148840D01*
X0081293Y0149070D01*
X0081440Y0149296D01*
X0081593Y0149519D01*
X0081751Y0149738D01*
X0081914Y0149953D01*
X0082083Y0150163D01*
X0082257Y0150370D01*
X0082436Y0150572D01*
X0082619Y0150770D01*
X0082808Y0150963D01*
X0083001Y0151152D01*
X0083199Y0151335D01*
X0083401Y0151514D01*
X0083608Y0151688D01*
X0083818Y0151857D01*
X0084033Y0152020D01*
X0084252Y0152178D01*
X0084475Y0152331D01*
X0084701Y0152478D01*
X0084931Y0152620D01*
X0085164Y0152756D01*
X0085401Y0152886D01*
X0085640Y0153010D01*
X0085883Y0153129D01*
X0086128Y0153241D01*
X0086376Y0153348D01*
X0086627Y0153448D01*
X0086880Y0153542D01*
X0087136Y0153630D01*
X0087393Y0153711D01*
X0087652Y0153787D01*
X0087913Y0153855D01*
X0088176Y0153918D01*
X0088440Y0153974D01*
X0088705Y0154023D01*
X0088972Y0154066D01*
X0089239Y0154102D01*
X0089508Y0154132D01*
X0089777Y0154155D01*
X0090046Y0154172D01*
X0090316Y0154182D01*
X0090586Y0154185D01*
X0090856Y0154182D01*
X0091126Y0154172D01*
X0091395Y0154155D01*
X0091664Y0154132D01*
X0091933Y0154102D01*
X0092200Y0154066D01*
X0092467Y0154023D01*
X0092732Y0153974D01*
X0092996Y0153918D01*
X0093259Y0153855D01*
X0093520Y0153787D01*
X0093779Y0153711D01*
X0094036Y0153630D01*
X0094292Y0153542D01*
X0094545Y0153448D01*
X0094796Y0153348D01*
X0095044Y0153241D01*
X0095289Y0153129D01*
X0095532Y0153010D01*
X0095771Y0152886D01*
X0096008Y0152756D01*
X0096241Y0152620D01*
X0096471Y0152478D01*
X0096697Y0152331D01*
X0096920Y0152178D01*
X0097139Y0152020D01*
X0097354Y0151857D01*
X0097564Y0151688D01*
X0097771Y0151514D01*
X0097973Y0151335D01*
X0098171Y0151152D01*
X0098364Y0150963D01*
X0098553Y0150770D01*
X0098736Y0150572D01*
X0098915Y0150370D01*
X0099089Y0150163D01*
X0099258Y0149953D01*
X0099421Y0149738D01*
X0099579Y0149519D01*
X0099732Y0149296D01*
X0099879Y0149070D01*
X0100021Y0148840D01*
X0100157Y0148607D01*
X0100287Y0148370D01*
X0100411Y0148131D01*
X0100530Y0147888D01*
X0100642Y0147643D01*
X0100749Y0147395D01*
X0100849Y0147144D01*
X0100943Y0146891D01*
X0101031Y0146635D01*
X0101112Y0146378D01*
X0101188Y0146119D01*
X0101256Y0145858D01*
X0101319Y0145595D01*
X0101375Y0145331D01*
X0101424Y0145066D01*
X0101467Y0144799D01*
X0101503Y0144532D01*
X0101533Y0144263D01*
X0101556Y0143994D01*
X0101573Y0143725D01*
X0101583Y0143455D01*
X0101586Y0143185D01*
X0101583Y0142915D01*
X0101573Y0142645D01*
X0101556Y0142376D01*
X0101533Y0142107D01*
X0101503Y0141838D01*
X0101467Y0141571D01*
X0101424Y0141304D01*
X0101375Y0141039D01*
X0101319Y0140775D01*
X0101256Y0140512D01*
X0101188Y0140251D01*
X0101112Y0139992D01*
X0101031Y0139735D01*
X0100943Y0139479D01*
X0100849Y0139226D01*
X0100749Y0138975D01*
X0100642Y0138727D01*
X0100530Y0138482D01*
X0100411Y0138239D01*
X0100287Y0138000D01*
X0100157Y0137763D01*
X0100021Y0137530D01*
X0099879Y0137300D01*
X0099732Y0137074D01*
X0099579Y0136851D01*
X0099421Y0136632D01*
X0099258Y0136417D01*
X0099089Y0136207D01*
X0098915Y0136000D01*
X0098736Y0135798D01*
X0098553Y0135600D01*
X0098364Y0135407D01*
X0098171Y0135218D01*
X0097973Y0135035D01*
X0097771Y0134856D01*
X0097564Y0134682D01*
X0097354Y0134513D01*
X0097139Y0134350D01*
X0096920Y0134192D01*
X0096697Y0134039D01*
X0096471Y0133892D01*
X0096241Y0133750D01*
X0096008Y0133614D01*
X0095771Y0133484D01*
X0095532Y0133360D01*
X0095289Y0133241D01*
X0095044Y0133129D01*
X0094796Y0133022D01*
X0094545Y0132922D01*
X0094292Y0132828D01*
X0094036Y0132740D01*
X0093779Y0132659D01*
X0093520Y0132583D01*
X0093259Y0132515D01*
X0092996Y0132452D01*
X0092732Y0132396D01*
X0092467Y0132347D01*
X0092200Y0132304D01*
X0091933Y0132268D01*
X0091664Y0132238D01*
X0091395Y0132215D01*
X0091126Y0132198D01*
X0090856Y0132188D01*
X0090586Y0132185D01*
X0090316Y0132188D01*
X0090046Y0132198D01*
X0089777Y0132215D01*
X0089508Y0132238D01*
X0089239Y0132268D01*
X0088972Y0132304D01*
X0088705Y0132347D01*
X0088440Y0132396D01*
X0088176Y0132452D01*
X0087913Y0132515D01*
X0087652Y0132583D01*
X0087393Y0132659D01*
X0087136Y0132740D01*
X0086880Y0132828D01*
X0086627Y0132922D01*
X0086376Y0133022D01*
X0086128Y0133129D01*
X0085883Y0133241D01*
X0085640Y0133360D01*
X0085401Y0133484D01*
X0085164Y0133614D01*
X0084931Y0133750D01*
X0084701Y0133892D01*
X0084475Y0134039D01*
X0084252Y0134192D01*
X0084033Y0134350D01*
X0083818Y0134513D01*
X0083608Y0134682D01*
X0083401Y0134856D01*
X0083199Y0135035D01*
X0083001Y0135218D01*
X0082808Y0135407D01*
X0082619Y0135600D01*
X0082436Y0135798D01*
X0082257Y0136000D01*
X0082083Y0136207D01*
X0081914Y0136417D01*
X0081751Y0136632D01*
X0081593Y0136851D01*
X0081440Y0137074D01*
X0081293Y0137300D01*
X0081151Y0137530D01*
X0081015Y0137763D01*
X0080885Y0138000D01*
X0080761Y0138239D01*
X0080642Y0138482D01*
X0080530Y0138727D01*
X0080423Y0138975D01*
X0080323Y0139226D01*
X0080229Y0139479D01*
X0080141Y0139735D01*
X0080060Y0139992D01*
X0079984Y0140251D01*
X0079916Y0140512D01*
X0079853Y0140775D01*
X0079797Y0141039D01*
X0079748Y0141304D01*
X0079705Y0141571D01*
X0079669Y0141838D01*
X0079639Y0142107D01*
X0079616Y0142376D01*
X0079599Y0142645D01*
X0079589Y0142915D01*
X0079586Y0143185D01*
X0084086Y0146685D02*
X0084086Y0148185D01*
X0084086Y0149685D01*
X0084086Y0148185D02*
X0085586Y0148185D01*
X0084086Y0148185D02*
X0082586Y0148185D01*
X0080373Y0166807D02*
X0080376Y0167077D01*
X0080386Y0167347D01*
X0080403Y0167616D01*
X0080426Y0167885D01*
X0080456Y0168154D01*
X0080492Y0168421D01*
X0080535Y0168688D01*
X0080584Y0168953D01*
X0080640Y0169217D01*
X0080703Y0169480D01*
X0080771Y0169741D01*
X0080847Y0170000D01*
X0080928Y0170257D01*
X0081016Y0170513D01*
X0081110Y0170766D01*
X0081210Y0171017D01*
X0081317Y0171265D01*
X0081429Y0171510D01*
X0081548Y0171753D01*
X0081672Y0171992D01*
X0081802Y0172229D01*
X0081938Y0172462D01*
X0082080Y0172692D01*
X0082227Y0172918D01*
X0082380Y0173141D01*
X0082538Y0173360D01*
X0082701Y0173575D01*
X0082870Y0173785D01*
X0083044Y0173992D01*
X0083223Y0174194D01*
X0083406Y0174392D01*
X0083595Y0174585D01*
X0083788Y0174774D01*
X0083986Y0174957D01*
X0084188Y0175136D01*
X0084395Y0175310D01*
X0084605Y0175479D01*
X0084820Y0175642D01*
X0085039Y0175800D01*
X0085262Y0175953D01*
X0085488Y0176100D01*
X0085718Y0176242D01*
X0085951Y0176378D01*
X0086188Y0176508D01*
X0086427Y0176632D01*
X0086670Y0176751D01*
X0086915Y0176863D01*
X0087163Y0176970D01*
X0087414Y0177070D01*
X0087667Y0177164D01*
X0087923Y0177252D01*
X0088180Y0177333D01*
X0088439Y0177409D01*
X0088700Y0177477D01*
X0088963Y0177540D01*
X0089227Y0177596D01*
X0089492Y0177645D01*
X0089759Y0177688D01*
X0090026Y0177724D01*
X0090295Y0177754D01*
X0090564Y0177777D01*
X0090833Y0177794D01*
X0091103Y0177804D01*
X0091373Y0177807D01*
X0091643Y0177804D01*
X0091913Y0177794D01*
X0092182Y0177777D01*
X0092451Y0177754D01*
X0092720Y0177724D01*
X0092987Y0177688D01*
X0093254Y0177645D01*
X0093519Y0177596D01*
X0093783Y0177540D01*
X0094046Y0177477D01*
X0094307Y0177409D01*
X0094566Y0177333D01*
X0094823Y0177252D01*
X0095079Y0177164D01*
X0095332Y0177070D01*
X0095583Y0176970D01*
X0095831Y0176863D01*
X0096076Y0176751D01*
X0096319Y0176632D01*
X0096558Y0176508D01*
X0096795Y0176378D01*
X0097028Y0176242D01*
X0097258Y0176100D01*
X0097484Y0175953D01*
X0097707Y0175800D01*
X0097926Y0175642D01*
X0098141Y0175479D01*
X0098351Y0175310D01*
X0098558Y0175136D01*
X0098760Y0174957D01*
X0098958Y0174774D01*
X0099151Y0174585D01*
X0099340Y0174392D01*
X0099523Y0174194D01*
X0099702Y0173992D01*
X0099876Y0173785D01*
X0100045Y0173575D01*
X0100208Y0173360D01*
X0100366Y0173141D01*
X0100519Y0172918D01*
X0100666Y0172692D01*
X0100808Y0172462D01*
X0100944Y0172229D01*
X0101074Y0171992D01*
X0101198Y0171753D01*
X0101317Y0171510D01*
X0101429Y0171265D01*
X0101536Y0171017D01*
X0101636Y0170766D01*
X0101730Y0170513D01*
X0101818Y0170257D01*
X0101899Y0170000D01*
X0101975Y0169741D01*
X0102043Y0169480D01*
X0102106Y0169217D01*
X0102162Y0168953D01*
X0102211Y0168688D01*
X0102254Y0168421D01*
X0102290Y0168154D01*
X0102320Y0167885D01*
X0102343Y0167616D01*
X0102360Y0167347D01*
X0102370Y0167077D01*
X0102373Y0166807D01*
X0102370Y0166537D01*
X0102360Y0166267D01*
X0102343Y0165998D01*
X0102320Y0165729D01*
X0102290Y0165460D01*
X0102254Y0165193D01*
X0102211Y0164926D01*
X0102162Y0164661D01*
X0102106Y0164397D01*
X0102043Y0164134D01*
X0101975Y0163873D01*
X0101899Y0163614D01*
X0101818Y0163357D01*
X0101730Y0163101D01*
X0101636Y0162848D01*
X0101536Y0162597D01*
X0101429Y0162349D01*
X0101317Y0162104D01*
X0101198Y0161861D01*
X0101074Y0161622D01*
X0100944Y0161385D01*
X0100808Y0161152D01*
X0100666Y0160922D01*
X0100519Y0160696D01*
X0100366Y0160473D01*
X0100208Y0160254D01*
X0100045Y0160039D01*
X0099876Y0159829D01*
X0099702Y0159622D01*
X0099523Y0159420D01*
X0099340Y0159222D01*
X0099151Y0159029D01*
X0098958Y0158840D01*
X0098760Y0158657D01*
X0098558Y0158478D01*
X0098351Y0158304D01*
X0098141Y0158135D01*
X0097926Y0157972D01*
X0097707Y0157814D01*
X0097484Y0157661D01*
X0097258Y0157514D01*
X0097028Y0157372D01*
X0096795Y0157236D01*
X0096558Y0157106D01*
X0096319Y0156982D01*
X0096076Y0156863D01*
X0095831Y0156751D01*
X0095583Y0156644D01*
X0095332Y0156544D01*
X0095079Y0156450D01*
X0094823Y0156362D01*
X0094566Y0156281D01*
X0094307Y0156205D01*
X0094046Y0156137D01*
X0093783Y0156074D01*
X0093519Y0156018D01*
X0093254Y0155969D01*
X0092987Y0155926D01*
X0092720Y0155890D01*
X0092451Y0155860D01*
X0092182Y0155837D01*
X0091913Y0155820D01*
X0091643Y0155810D01*
X0091373Y0155807D01*
X0091103Y0155810D01*
X0090833Y0155820D01*
X0090564Y0155837D01*
X0090295Y0155860D01*
X0090026Y0155890D01*
X0089759Y0155926D01*
X0089492Y0155969D01*
X0089227Y0156018D01*
X0088963Y0156074D01*
X0088700Y0156137D01*
X0088439Y0156205D01*
X0088180Y0156281D01*
X0087923Y0156362D01*
X0087667Y0156450D01*
X0087414Y0156544D01*
X0087163Y0156644D01*
X0086915Y0156751D01*
X0086670Y0156863D01*
X0086427Y0156982D01*
X0086188Y0157106D01*
X0085951Y0157236D01*
X0085718Y0157372D01*
X0085488Y0157514D01*
X0085262Y0157661D01*
X0085039Y0157814D01*
X0084820Y0157972D01*
X0084605Y0158135D01*
X0084395Y0158304D01*
X0084188Y0158478D01*
X0083986Y0158657D01*
X0083788Y0158840D01*
X0083595Y0159029D01*
X0083406Y0159222D01*
X0083223Y0159420D01*
X0083044Y0159622D01*
X0082870Y0159829D01*
X0082701Y0160039D01*
X0082538Y0160254D01*
X0082380Y0160473D01*
X0082227Y0160696D01*
X0082080Y0160922D01*
X0081938Y0161152D01*
X0081802Y0161385D01*
X0081672Y0161622D01*
X0081548Y0161861D01*
X0081429Y0162104D01*
X0081317Y0162349D01*
X0081210Y0162597D01*
X0081110Y0162848D01*
X0081016Y0163101D01*
X0080928Y0163357D01*
X0080847Y0163614D01*
X0080771Y0163873D01*
X0080703Y0164134D01*
X0080640Y0164397D01*
X0080584Y0164661D01*
X0080535Y0164926D01*
X0080492Y0165193D01*
X0080456Y0165460D01*
X0080426Y0165729D01*
X0080403Y0165998D01*
X0080386Y0166267D01*
X0080376Y0166537D01*
X0080373Y0166807D01*
X0084873Y0170307D02*
X0084873Y0171807D01*
X0084873Y0173307D01*
X0084873Y0171807D02*
X0086373Y0171807D01*
X0084873Y0171807D02*
X0083373Y0171807D01*
X0076865Y0182717D02*
X0076865Y0186217D01*
X0076865Y0189717D01*
X0091865Y0189717D01*
X0091865Y0186217D01*
X0091865Y0182717D01*
X0076865Y0182717D01*
X0076865Y0186217D02*
X0073365Y0186217D01*
X0091865Y0186217D02*
X0095365Y0186217D01*
X0109995Y0188402D02*
X0112495Y0185902D01*
X0117495Y0185902D01*
X0119995Y0188402D01*
X0119995Y0193402D01*
X0117495Y0195902D01*
X0119995Y0198402D01*
X0119995Y0203402D01*
X0117495Y0205902D01*
X0112495Y0205902D01*
X0109995Y0203402D01*
X0109995Y0198402D01*
X0112495Y0195902D01*
X0117495Y0195902D01*
X0112495Y0195902D02*
X0109995Y0193402D01*
X0109995Y0188402D01*
X0128499Y0187535D02*
X0128499Y0192535D01*
X0130999Y0195035D01*
X0128499Y0197535D01*
X0128499Y0202535D01*
X0130999Y0205035D01*
X0128499Y0207535D01*
X0128499Y0212535D01*
X0130999Y0215035D01*
X0128499Y0217535D01*
X0128499Y0222535D01*
X0130999Y0225035D01*
X0128499Y0227535D01*
X0128499Y0232535D01*
X0130999Y0235035D01*
X0128499Y0237535D01*
X0128499Y0242535D01*
X0130999Y0245035D01*
X0128499Y0247535D01*
X0128499Y0252535D01*
X0130999Y0255035D01*
X0128499Y0257535D01*
X0128499Y0262535D01*
X0130999Y0265035D01*
X0128499Y0267535D01*
X0128499Y0272535D01*
X0130999Y0275035D01*
X0128499Y0277535D01*
X0128499Y0282535D01*
X0130999Y0285035D01*
X0135999Y0285035D01*
X0138499Y0282535D01*
X0138499Y0277535D01*
X0135999Y0275035D01*
X0138499Y0272535D01*
X0138499Y0267535D01*
X0135999Y0265035D01*
X0130999Y0265035D01*
X0135999Y0265035D02*
X0138499Y0262535D01*
X0138499Y0257535D01*
X0135999Y0255035D01*
X0138499Y0252535D01*
X0138499Y0247535D01*
X0135999Y0245035D01*
X0138499Y0242535D01*
X0138499Y0237535D01*
X0135999Y0235035D01*
X0130999Y0235035D01*
X0135999Y0235035D02*
X0138499Y0232535D01*
X0138499Y0227535D01*
X0135999Y0225035D01*
X0138499Y0222535D01*
X0138499Y0217535D01*
X0135999Y0215035D01*
X0138499Y0212535D01*
X0138499Y0207535D01*
X0135999Y0205035D01*
X0130999Y0205035D01*
X0135999Y0205035D02*
X0138499Y0202535D01*
X0138499Y0197535D01*
X0135999Y0195035D01*
X0138499Y0192535D01*
X0138499Y0187535D01*
X0135999Y0185035D01*
X0138499Y0182535D01*
X0138499Y0177535D01*
X0135999Y0175035D01*
X0130999Y0175035D01*
X0128499Y0177535D01*
X0128499Y0182535D01*
X0130999Y0185035D01*
X0128499Y0187535D01*
X0130999Y0185035D02*
X0135999Y0185035D01*
X0135999Y0175035D02*
X0138499Y0172535D01*
X0138499Y0167535D01*
X0135999Y0165035D01*
X0138499Y0162535D01*
X0138499Y0157535D01*
X0135999Y0155035D01*
X0138499Y0152535D01*
X0138499Y0147535D01*
X0135999Y0145035D01*
X0130999Y0145035D01*
X0128499Y0147535D01*
X0128499Y0152535D01*
X0130999Y0155035D01*
X0128499Y0157535D01*
X0128499Y0162535D01*
X0130999Y0165035D01*
X0128499Y0167535D01*
X0128499Y0172535D01*
X0130999Y0175035D01*
X0130999Y0165035D02*
X0135999Y0165035D01*
X0135999Y0155035D02*
X0130999Y0155035D01*
X0130999Y0145035D02*
X0128499Y0142535D01*
X0128499Y0137535D01*
X0130999Y0135035D01*
X0128499Y0132535D01*
X0128499Y0127535D01*
X0130999Y0125035D01*
X0128499Y0122535D01*
X0128499Y0117535D01*
X0130999Y0115035D01*
X0135999Y0115035D01*
X0138499Y0117535D01*
X0138499Y0122535D01*
X0135999Y0125035D01*
X0130999Y0125035D01*
X0135999Y0125035D02*
X0138499Y0127535D01*
X0138499Y0132535D01*
X0135999Y0135035D01*
X0130999Y0135035D01*
X0135999Y0135035D02*
X0138499Y0137535D01*
X0138499Y0142535D01*
X0135999Y0145035D01*
X0120389Y0145409D02*
X0117889Y0142909D01*
X0120389Y0140409D01*
X0120389Y0135409D01*
X0117889Y0132909D01*
X0120389Y0130409D01*
X0120389Y0125409D01*
X0117889Y0122909D01*
X0112889Y0122909D01*
X0110389Y0125409D01*
X0110389Y0130409D01*
X0112889Y0132909D01*
X0110389Y0135409D01*
X0110389Y0140409D01*
X0112889Y0142909D01*
X0110389Y0145409D01*
X0110389Y0150409D01*
X0112889Y0152909D01*
X0110389Y0155409D01*
X0110389Y0160409D01*
X0112889Y0162909D01*
X0110389Y0165409D01*
X0110389Y0170409D01*
X0112889Y0172909D01*
X0117889Y0172909D01*
X0120389Y0170409D01*
X0120389Y0165409D01*
X0117889Y0162909D01*
X0120389Y0160409D01*
X0120389Y0155409D01*
X0117889Y0152909D01*
X0112889Y0152909D01*
X0117889Y0152909D02*
X0120389Y0150409D01*
X0120389Y0145409D01*
X0117889Y0142909D02*
X0112889Y0142909D01*
X0112889Y0132909D02*
X0117889Y0132909D01*
X0130999Y0115035D02*
X0128499Y0112535D01*
X0128499Y0107535D01*
X0130999Y0105035D01*
X0128499Y0102535D01*
X0128499Y0097535D01*
X0130999Y0095035D01*
X0135999Y0095035D01*
X0138499Y0097535D01*
X0138499Y0102535D01*
X0135999Y0105035D01*
X0130999Y0105035D01*
X0135999Y0105035D02*
X0138499Y0107535D01*
X0138499Y0112535D01*
X0135999Y0115035D01*
X0156058Y0112535D02*
X0156058Y0107535D01*
X0158558Y0105035D01*
X0156058Y0102535D01*
X0156058Y0097535D01*
X0158558Y0095035D01*
X0163558Y0095035D01*
X0166058Y0097535D01*
X0166058Y0102535D01*
X0163558Y0105035D01*
X0158558Y0105035D01*
X0163558Y0105035D02*
X0166058Y0107535D01*
X0166058Y0112535D01*
X0163558Y0115035D01*
X0158558Y0115035D01*
X0156058Y0117535D01*
X0156058Y0122535D01*
X0158558Y0125035D01*
X0156058Y0127535D01*
X0156058Y0132535D01*
X0158558Y0135035D01*
X0156058Y0137535D01*
X0156058Y0142535D01*
X0158558Y0145035D01*
X0156058Y0147535D01*
X0156058Y0152535D01*
X0158558Y0155035D01*
X0156058Y0157535D01*
X0156058Y0162535D01*
X0158558Y0165035D01*
X0156058Y0167535D01*
X0156058Y0172535D01*
X0158558Y0175035D01*
X0156058Y0177535D01*
X0156058Y0182535D01*
X0158558Y0185035D01*
X0156058Y0187535D01*
X0156058Y0192535D01*
X0158558Y0195035D01*
X0156058Y0197535D01*
X0156058Y0202535D01*
X0158558Y0205035D01*
X0156058Y0207535D01*
X0156058Y0212535D01*
X0158558Y0215035D01*
X0156058Y0217535D01*
X0156058Y0222535D01*
X0158558Y0225035D01*
X0156058Y0227535D01*
X0156058Y0232535D01*
X0158558Y0235035D01*
X0156058Y0237535D01*
X0156058Y0242535D01*
X0158558Y0245035D01*
X0156058Y0247535D01*
X0156058Y0252535D01*
X0158558Y0255035D01*
X0156058Y0257535D01*
X0156058Y0262535D01*
X0158558Y0265035D01*
X0156058Y0267535D01*
X0156058Y0272535D01*
X0158558Y0275035D01*
X0156058Y0277535D01*
X0156058Y0282535D01*
X0158558Y0285035D01*
X0163558Y0285035D01*
X0166058Y0282535D01*
X0166058Y0277535D01*
X0163558Y0275035D01*
X0166058Y0272535D01*
X0166058Y0267535D01*
X0163558Y0265035D01*
X0158558Y0265035D01*
X0163558Y0265035D02*
X0166058Y0262535D01*
X0166058Y0257535D01*
X0163558Y0255035D01*
X0166058Y0252535D01*
X0166058Y0247535D01*
X0163558Y0245035D01*
X0166058Y0242535D01*
X0166058Y0237535D01*
X0163558Y0235035D01*
X0158558Y0235035D01*
X0163558Y0235035D02*
X0166058Y0232535D01*
X0166058Y0227535D01*
X0163558Y0225035D01*
X0166058Y0222535D01*
X0166058Y0217535D01*
X0163558Y0215035D01*
X0166058Y0212535D01*
X0166058Y0207535D01*
X0163558Y0205035D01*
X0158558Y0205035D01*
X0163558Y0205035D02*
X0166058Y0202535D01*
X0166058Y0197535D01*
X0163558Y0195035D01*
X0166058Y0192535D01*
X0166058Y0187535D01*
X0163558Y0185035D01*
X0166058Y0182535D01*
X0166058Y0177535D01*
X0163558Y0175035D01*
X0158558Y0175035D01*
X0163558Y0175035D02*
X0166058Y0172535D01*
X0166058Y0167535D01*
X0163558Y0165035D01*
X0166058Y0162535D01*
X0166058Y0157535D01*
X0163558Y0155035D01*
X0166058Y0152535D01*
X0166058Y0147535D01*
X0163558Y0145035D01*
X0158558Y0145035D01*
X0163558Y0145035D02*
X0166058Y0142535D01*
X0166058Y0137535D01*
X0163558Y0135035D01*
X0166058Y0132535D01*
X0166058Y0127535D01*
X0163558Y0125035D01*
X0166058Y0122535D01*
X0166058Y0117535D01*
X0163558Y0115035D01*
X0158558Y0115035D02*
X0156058Y0112535D01*
X0158558Y0125035D02*
X0163558Y0125035D01*
X0163558Y0135035D02*
X0158558Y0135035D01*
X0158558Y0155035D02*
X0163558Y0155035D01*
X0163558Y0165035D02*
X0158558Y0165035D01*
X0158558Y0185035D02*
X0163558Y0185035D01*
X0163558Y0195035D02*
X0158558Y0195035D01*
X0135999Y0195035D02*
X0130999Y0195035D01*
X0119995Y0208402D02*
X0117495Y0205902D01*
X0119995Y0208402D02*
X0119995Y0213402D01*
X0117495Y0215902D01*
X0119995Y0218402D01*
X0119995Y0223402D01*
X0117495Y0225902D01*
X0119995Y0228402D01*
X0119995Y0233402D01*
X0117495Y0235902D01*
X0112495Y0235902D01*
X0109995Y0233402D01*
X0109995Y0228402D01*
X0112495Y0225902D01*
X0117495Y0225902D01*
X0112495Y0225902D02*
X0109995Y0223402D01*
X0109995Y0218402D01*
X0112495Y0215902D01*
X0117495Y0215902D01*
X0112495Y0215902D02*
X0109995Y0213402D01*
X0109995Y0208402D01*
X0112495Y0205902D01*
X0130999Y0215035D02*
X0135999Y0215035D01*
X0135999Y0225035D02*
X0130999Y0225035D01*
X0158558Y0225035D02*
X0163558Y0225035D01*
X0163558Y0215035D02*
X0158558Y0215035D01*
X0158558Y0245035D02*
X0163558Y0245035D01*
X0163558Y0255035D02*
X0158558Y0255035D01*
X0135999Y0255035D02*
X0130999Y0255035D01*
X0130999Y0245035D02*
X0135999Y0245035D01*
X0119602Y0248244D02*
X0117102Y0245744D01*
X0112102Y0245744D01*
X0109602Y0248244D01*
X0109602Y0253244D01*
X0112102Y0255744D01*
X0109602Y0258244D01*
X0109602Y0263244D01*
X0112102Y0265744D01*
X0117102Y0265744D01*
X0119602Y0263244D01*
X0119602Y0258244D01*
X0117102Y0255744D01*
X0119602Y0253244D01*
X0119602Y0248244D01*
X0117102Y0255744D02*
X0112102Y0255744D01*
X0112102Y0265744D02*
X0109602Y0268244D01*
X0109602Y0273244D01*
X0112102Y0275744D01*
X0109602Y0278244D01*
X0109602Y0283244D01*
X0112102Y0285744D01*
X0109602Y0288244D01*
X0109602Y0293244D01*
X0112102Y0295744D01*
X0117102Y0295744D01*
X0119602Y0293244D01*
X0119602Y0288244D01*
X0117102Y0285744D01*
X0119602Y0283244D01*
X0119602Y0278244D01*
X0117102Y0275744D01*
X0119602Y0273244D01*
X0119602Y0268244D01*
X0117102Y0265744D01*
X0117102Y0275744D02*
X0112102Y0275744D01*
X0112102Y0285744D02*
X0117102Y0285744D01*
X0130999Y0275035D02*
X0135999Y0275035D01*
X0158558Y0275035D02*
X0163558Y0275035D01*
X0203342Y0255933D02*
X0203342Y0241933D01*
X0233342Y0241933D01*
X0233342Y0255933D01*
X0203342Y0255933D01*
X0203342Y0233177D02*
X0203342Y0219177D01*
X0233342Y0219177D01*
X0233342Y0233177D01*
X0203342Y0233177D01*
X0256452Y0232535D02*
X0256452Y0227535D01*
X0258952Y0225035D01*
X0256452Y0222535D01*
X0256452Y0217535D01*
X0258952Y0215035D01*
X0256452Y0212535D01*
X0256452Y0207535D01*
X0258952Y0205035D01*
X0263952Y0205035D01*
X0266452Y0207535D01*
X0266452Y0212535D01*
X0263952Y0215035D01*
X0258952Y0215035D01*
X0263952Y0215035D02*
X0266452Y0217535D01*
X0266452Y0222535D01*
X0263952Y0225035D01*
X0258952Y0225035D01*
X0263952Y0225035D02*
X0266452Y0227535D01*
X0266452Y0232535D01*
X0263952Y0235035D01*
X0258952Y0235035D01*
X0256452Y0237535D01*
X0256452Y0242535D01*
X0258952Y0245035D01*
X0256452Y0247535D01*
X0256452Y0252535D01*
X0258952Y0255035D01*
X0256452Y0257535D01*
X0256452Y0262535D01*
X0258952Y0265035D01*
X0256452Y0267535D01*
X0256452Y0272535D01*
X0258952Y0275035D01*
X0256452Y0277535D01*
X0256452Y0282535D01*
X0258952Y0285035D01*
X0263952Y0285035D01*
X0266452Y0282535D01*
X0266452Y0277535D01*
X0263952Y0275035D01*
X0266452Y0272535D01*
X0266452Y0267535D01*
X0263952Y0265035D01*
X0258952Y0265035D01*
X0263952Y0265035D02*
X0266452Y0262535D01*
X0266452Y0257535D01*
X0263952Y0255035D01*
X0266452Y0252535D01*
X0266452Y0247535D01*
X0263952Y0245035D01*
X0266452Y0242535D01*
X0266452Y0237535D01*
X0263952Y0235035D01*
X0258952Y0235035D02*
X0256452Y0232535D01*
X0258952Y0245035D02*
X0263952Y0245035D01*
X0263952Y0255035D02*
X0258952Y0255035D01*
X0284011Y0252535D02*
X0284011Y0247535D01*
X0286511Y0245035D01*
X0284011Y0242535D01*
X0284011Y0237535D01*
X0286511Y0235035D01*
X0291511Y0235035D01*
X0294011Y0237535D01*
X0294011Y0242535D01*
X0291511Y0245035D01*
X0286511Y0245035D01*
X0291511Y0245035D02*
X0294011Y0247535D01*
X0294011Y0252535D01*
X0291511Y0255035D01*
X0286511Y0255035D01*
X0284011Y0252535D01*
X0286511Y0255035D02*
X0284011Y0257535D01*
X0284011Y0262535D01*
X0286511Y0265035D01*
X0284011Y0267535D01*
X0284011Y0272535D01*
X0286511Y0275035D01*
X0284011Y0277535D01*
X0284011Y0282535D01*
X0286511Y0285035D01*
X0291511Y0285035D01*
X0294011Y0282535D01*
X0294011Y0277535D01*
X0291511Y0275035D01*
X0294011Y0272535D01*
X0294011Y0267535D01*
X0291511Y0265035D01*
X0286511Y0265035D01*
X0291511Y0265035D02*
X0294011Y0262535D01*
X0294011Y0257535D01*
X0291511Y0255035D01*
X0291511Y0235035D02*
X0294011Y0232535D01*
X0294011Y0227535D01*
X0291511Y0225035D01*
X0294011Y0222535D01*
X0294011Y0217535D01*
X0291511Y0215035D01*
X0294011Y0212535D01*
X0294011Y0207535D01*
X0291511Y0205035D01*
X0286511Y0205035D01*
X0284011Y0207535D01*
X0284011Y0212535D01*
X0286511Y0215035D01*
X0284011Y0217535D01*
X0284011Y0222535D01*
X0286511Y0225035D01*
X0284011Y0227535D01*
X0284011Y0232535D01*
X0286511Y0235035D01*
X0286511Y0225035D02*
X0291511Y0225035D01*
X0291511Y0215035D02*
X0286511Y0215035D01*
X0286511Y0205035D02*
X0284011Y0202535D01*
X0284011Y0197535D01*
X0286511Y0195035D01*
X0284011Y0192535D01*
X0284011Y0187535D01*
X0286511Y0185035D01*
X0284011Y0182535D01*
X0284011Y0177535D01*
X0286511Y0175035D01*
X0291511Y0175035D01*
X0294011Y0177535D01*
X0294011Y0182535D01*
X0291511Y0185035D01*
X0286511Y0185035D01*
X0291511Y0185035D02*
X0294011Y0187535D01*
X0294011Y0192535D01*
X0291511Y0195035D01*
X0286511Y0195035D01*
X0291511Y0195035D02*
X0294011Y0197535D01*
X0294011Y0202535D01*
X0291511Y0205035D01*
X0266452Y0202535D02*
X0266452Y0197535D01*
X0263952Y0195035D01*
X0266452Y0192535D01*
X0266452Y0187535D01*
X0263952Y0185035D01*
X0266452Y0182535D01*
X0266452Y0177535D01*
X0263952Y0175035D01*
X0258952Y0175035D01*
X0256452Y0177535D01*
X0256452Y0182535D01*
X0258952Y0185035D01*
X0256452Y0187535D01*
X0256452Y0192535D01*
X0258952Y0195035D01*
X0256452Y0197535D01*
X0256452Y0202535D01*
X0258952Y0205035D01*
X0263952Y0205035D02*
X0266452Y0202535D01*
X0263952Y0195035D02*
X0258952Y0195035D01*
X0258952Y0185035D02*
X0263952Y0185035D01*
X0263952Y0175035D02*
X0266452Y0172535D01*
X0266452Y0167535D01*
X0263952Y0165035D01*
X0266452Y0162535D01*
X0266452Y0157535D01*
X0263952Y0155035D01*
X0266452Y0152535D01*
X0266452Y0147535D01*
X0263952Y0145035D01*
X0258952Y0145035D01*
X0256452Y0147535D01*
X0256452Y0152535D01*
X0258952Y0155035D01*
X0256452Y0157535D01*
X0256452Y0162535D01*
X0258952Y0165035D01*
X0256452Y0167535D01*
X0256452Y0172535D01*
X0258952Y0175035D01*
X0258952Y0165035D02*
X0263952Y0165035D01*
X0263952Y0155035D02*
X0258952Y0155035D01*
X0258952Y0145035D02*
X0256452Y0142535D01*
X0256452Y0137535D01*
X0258952Y0135035D01*
X0256452Y0132535D01*
X0256452Y0127535D01*
X0258952Y0125035D01*
X0256452Y0122535D01*
X0256452Y0117535D01*
X0258952Y0115035D01*
X0263952Y0115035D01*
X0266452Y0117535D01*
X0266452Y0122535D01*
X0263952Y0125035D01*
X0258952Y0125035D01*
X0263952Y0125035D02*
X0266452Y0127535D01*
X0266452Y0132535D01*
X0263952Y0135035D01*
X0258952Y0135035D01*
X0263952Y0135035D02*
X0266452Y0137535D01*
X0266452Y0142535D01*
X0263952Y0145035D01*
X0284011Y0142535D02*
X0284011Y0137535D01*
X0286511Y0135035D01*
X0284011Y0132535D01*
X0284011Y0127535D01*
X0286511Y0125035D01*
X0284011Y0122535D01*
X0284011Y0117535D01*
X0286511Y0115035D01*
X0291511Y0115035D01*
X0294011Y0117535D01*
X0294011Y0122535D01*
X0291511Y0125035D01*
X0286511Y0125035D01*
X0291511Y0125035D02*
X0294011Y0127535D01*
X0294011Y0132535D01*
X0291511Y0135035D01*
X0286511Y0135035D01*
X0291511Y0135035D02*
X0294011Y0137535D01*
X0294011Y0142535D01*
X0291511Y0145035D01*
X0286511Y0145035D01*
X0284011Y0147535D01*
X0284011Y0152535D01*
X0286511Y0155035D01*
X0284011Y0157535D01*
X0284011Y0162535D01*
X0286511Y0165035D01*
X0284011Y0167535D01*
X0284011Y0172535D01*
X0286511Y0175035D01*
X0291511Y0175035D02*
X0294011Y0172535D01*
X0294011Y0167535D01*
X0291511Y0165035D01*
X0294011Y0162535D01*
X0294011Y0157535D01*
X0291511Y0155035D01*
X0294011Y0152535D01*
X0294011Y0147535D01*
X0291511Y0145035D01*
X0286511Y0145035D02*
X0284011Y0142535D01*
X0286511Y0155035D02*
X0291511Y0155035D01*
X0291511Y0165035D02*
X0286511Y0165035D01*
X0351747Y0160173D02*
X0351747Y0155173D01*
X0351747Y0130173D01*
X0353247Y0130173D01*
X0353247Y0155173D01*
X0353247Y0158673D01*
X0356747Y0158673D01*
X0381747Y0158673D01*
X0381747Y0160173D01*
X0356747Y0160173D01*
X0351747Y0160173D01*
X0351747Y0155173D02*
X0353247Y0155173D01*
X0356747Y0158673D02*
X0356747Y0160173D01*
X0369248Y0132673D02*
X0369490Y0132676D01*
X0369733Y0132685D01*
X0369976Y0132700D01*
X0370218Y0132720D01*
X0370459Y0132747D01*
X0370700Y0132779D01*
X0370940Y0132817D01*
X0371179Y0132861D01*
X0371416Y0132911D01*
X0371653Y0132967D01*
X0371888Y0133028D01*
X0372121Y0133095D01*
X0372353Y0133168D01*
X0372583Y0133246D01*
X0372811Y0133330D01*
X0373037Y0133419D01*
X0373261Y0133514D01*
X0373482Y0133614D01*
X0373701Y0133720D01*
X0373917Y0133830D01*
X0374130Y0133946D01*
X0374341Y0134068D01*
X0374548Y0134194D01*
X0374753Y0134325D01*
X0374954Y0134461D01*
X0375152Y0134602D01*
X0375346Y0134748D01*
X0375537Y0134899D01*
X0375724Y0135054D01*
X0375907Y0135213D01*
X0376086Y0135377D01*
X0376261Y0135545D01*
X0376432Y0135718D01*
X0376599Y0135894D01*
X0376761Y0136075D01*
X0376919Y0136259D01*
X0377073Y0136448D01*
X0377222Y0136640D01*
X0377366Y0136835D01*
X0377505Y0137034D01*
X0377640Y0137236D01*
X0377770Y0137442D01*
X0377894Y0137650D01*
X0378014Y0137862D01*
X0378128Y0138076D01*
X0378237Y0138293D01*
X0378341Y0138513D01*
X0378439Y0138735D01*
X0378532Y0138959D01*
X0375689Y0132549D02*
X0375449Y0132400D01*
X0375204Y0132256D01*
X0374957Y0132118D01*
X0374706Y0131987D01*
X0374452Y0131861D01*
X0374195Y0131741D01*
X0373936Y0131627D01*
X0373674Y0131519D01*
X0373409Y0131418D01*
X0373142Y0131323D01*
X0372873Y0131234D01*
X0372602Y0131152D01*
X0372329Y0131076D01*
X0372054Y0131006D01*
X0371778Y0130943D01*
X0371500Y0130886D01*
X0371221Y0130837D01*
X0370941Y0130793D01*
X0370660Y0130757D01*
X0370379Y0130726D01*
X0370096Y0130703D01*
X0369813Y0130686D01*
X0369530Y0130676D01*
X0369247Y0130673D01*
X0356747Y0126673D02*
X0381747Y0126673D01*
X0384747Y0126673D01*
X0384747Y0130173D01*
X0384747Y0155173D01*
X0386747Y0155173D01*
X0386747Y0130173D01*
X0386747Y0125173D01*
X0381747Y0125173D01*
X0356747Y0125173D01*
X0356747Y0126673D01*
X0353247Y0126673D01*
X0353247Y0130173D01*
X0351747Y0130173D02*
X0351747Y0125173D01*
X0356747Y0125173D01*
X0369247Y0152673D02*
X0369490Y0152670D01*
X0369733Y0152661D01*
X0369975Y0152646D01*
X0370217Y0152626D01*
X0370459Y0152599D01*
X0370700Y0152567D01*
X0370939Y0152529D01*
X0371178Y0152485D01*
X0371416Y0152435D01*
X0371653Y0152379D01*
X0371888Y0152318D01*
X0372121Y0152251D01*
X0372353Y0152178D01*
X0372583Y0152100D01*
X0372811Y0152016D01*
X0373037Y0151927D01*
X0373260Y0151832D01*
X0373482Y0151732D01*
X0373700Y0151627D01*
X0373917Y0151516D01*
X0374130Y0151400D01*
X0374341Y0151279D01*
X0374548Y0151152D01*
X0374752Y0151021D01*
X0374954Y0150885D01*
X0375151Y0150744D01*
X0375346Y0150598D01*
X0375536Y0150448D01*
X0375723Y0150293D01*
X0375906Y0150133D01*
X0376086Y0149969D01*
X0376261Y0149801D01*
X0376432Y0149628D01*
X0376599Y0149452D01*
X0376761Y0149271D01*
X0376919Y0149087D01*
X0377073Y0148898D01*
X0377222Y0148707D01*
X0377366Y0148511D01*
X0377505Y0148312D01*
X0377640Y0148110D01*
X0377769Y0147904D01*
X0377894Y0147696D01*
X0378013Y0147484D01*
X0378128Y0147270D01*
X0378237Y0147053D01*
X0378341Y0146833D01*
X0378439Y0146611D01*
X0378532Y0146387D01*
X0369247Y0152673D02*
X0369002Y0152670D01*
X0368757Y0152661D01*
X0368513Y0152646D01*
X0368268Y0152625D01*
X0368025Y0152598D01*
X0367782Y0152565D01*
X0367540Y0152526D01*
X0367299Y0152482D01*
X0367060Y0152431D01*
X0366821Y0152374D01*
X0366584Y0152312D01*
X0366349Y0152244D01*
X0366115Y0152170D01*
X0365884Y0152090D01*
X0365654Y0152005D01*
X0365427Y0151914D01*
X0365201Y0151818D01*
X0364978Y0151716D01*
X0364758Y0151609D01*
X0364541Y0151496D01*
X0364326Y0151378D01*
X0364114Y0151255D01*
X0363905Y0151127D01*
X0363700Y0150993D01*
X0363498Y0150855D01*
X0363299Y0150712D01*
X0363104Y0150564D01*
X0362912Y0150411D01*
X0362725Y0150253D01*
X0362541Y0150091D01*
X0362361Y0149925D01*
X0362186Y0149754D01*
X0362014Y0149579D01*
X0361847Y0149399D01*
X0361685Y0149216D01*
X0361527Y0149029D01*
X0361373Y0148838D01*
X0361225Y0148643D01*
X0361081Y0148445D01*
X0360942Y0148243D01*
X0360808Y0148038D01*
X0360679Y0147830D01*
X0360555Y0147618D01*
X0360437Y0147404D01*
X0360324Y0147187D01*
X0360216Y0146967D01*
X0360113Y0146744D01*
X0360016Y0146519D01*
X0362805Y0132549D02*
X0363045Y0132400D01*
X0363290Y0132256D01*
X0363537Y0132118D01*
X0363788Y0131987D01*
X0364042Y0131861D01*
X0364299Y0131741D01*
X0364558Y0131627D01*
X0364820Y0131519D01*
X0365085Y0131418D01*
X0365352Y0131323D01*
X0365621Y0131234D01*
X0365892Y0131152D01*
X0366165Y0131076D01*
X0366440Y0131006D01*
X0366716Y0130943D01*
X0366994Y0130886D01*
X0367273Y0130837D01*
X0367553Y0130793D01*
X0367834Y0130757D01*
X0368115Y0130726D01*
X0368398Y0130703D01*
X0368681Y0130686D01*
X0368964Y0130676D01*
X0369247Y0130673D01*
X0381747Y0126673D02*
X0381747Y0125173D01*
X0384747Y0130173D02*
X0386747Y0130173D01*
X0389031Y0130173D02*
X0389031Y0125173D01*
X0394031Y0125173D01*
X0419031Y0125173D01*
X0424031Y0125173D01*
X0424031Y0130173D01*
X0424031Y0155173D01*
X0422031Y0155173D01*
X0422031Y0130173D01*
X0422031Y0126673D01*
X0419031Y0126673D01*
X0394031Y0126673D01*
X0394031Y0125173D01*
X0394031Y0126673D02*
X0390531Y0126673D01*
X0390531Y0130173D01*
X0390531Y0155173D01*
X0390531Y0158673D01*
X0394031Y0158673D01*
X0419031Y0158673D01*
X0419031Y0160173D01*
X0394031Y0160173D01*
X0389031Y0160173D01*
X0389031Y0155173D01*
X0389031Y0130173D01*
X0390531Y0130173D01*
X0406531Y0132673D02*
X0406773Y0132676D01*
X0407016Y0132685D01*
X0407259Y0132700D01*
X0407501Y0132720D01*
X0407742Y0132747D01*
X0407983Y0132779D01*
X0408223Y0132817D01*
X0408462Y0132861D01*
X0408699Y0132911D01*
X0408936Y0132967D01*
X0409171Y0133028D01*
X0409404Y0133095D01*
X0409636Y0133168D01*
X0409866Y0133246D01*
X0410094Y0133330D01*
X0410320Y0133419D01*
X0410544Y0133514D01*
X0410765Y0133614D01*
X0410984Y0133720D01*
X0411200Y0133830D01*
X0411413Y0133946D01*
X0411624Y0134068D01*
X0411831Y0134194D01*
X0412036Y0134325D01*
X0412237Y0134461D01*
X0412435Y0134602D01*
X0412629Y0134748D01*
X0412820Y0134899D01*
X0413007Y0135054D01*
X0413190Y0135213D01*
X0413369Y0135377D01*
X0413544Y0135545D01*
X0413715Y0135718D01*
X0413882Y0135894D01*
X0414044Y0136075D01*
X0414202Y0136259D01*
X0414356Y0136448D01*
X0414505Y0136640D01*
X0414649Y0136835D01*
X0414788Y0137034D01*
X0414923Y0137236D01*
X0415053Y0137442D01*
X0415177Y0137650D01*
X0415297Y0137862D01*
X0415411Y0138076D01*
X0415520Y0138293D01*
X0415624Y0138513D01*
X0415722Y0138735D01*
X0415815Y0138959D01*
X0412973Y0132549D02*
X0412733Y0132400D01*
X0412488Y0132256D01*
X0412241Y0132118D01*
X0411990Y0131987D01*
X0411736Y0131861D01*
X0411479Y0131741D01*
X0411220Y0131627D01*
X0410958Y0131519D01*
X0410693Y0131418D01*
X0410426Y0131323D01*
X0410157Y0131234D01*
X0409886Y0131152D01*
X0409613Y0131076D01*
X0409338Y0131006D01*
X0409062Y0130943D01*
X0408784Y0130886D01*
X0408505Y0130837D01*
X0408225Y0130793D01*
X0407944Y0130757D01*
X0407663Y0130726D01*
X0407380Y0130703D01*
X0407097Y0130686D01*
X0406814Y0130676D01*
X0406531Y0130673D01*
X0419031Y0126673D02*
X0419031Y0125173D01*
X0422031Y0130173D02*
X0424031Y0130173D01*
X0406531Y0152673D02*
X0406286Y0152670D01*
X0406041Y0152661D01*
X0405797Y0152646D01*
X0405552Y0152625D01*
X0405309Y0152598D01*
X0405066Y0152565D01*
X0404824Y0152526D01*
X0404583Y0152482D01*
X0404344Y0152431D01*
X0404105Y0152374D01*
X0403868Y0152312D01*
X0403633Y0152244D01*
X0403399Y0152170D01*
X0403168Y0152090D01*
X0402938Y0152005D01*
X0402711Y0151914D01*
X0402485Y0151818D01*
X0402262Y0151716D01*
X0402042Y0151609D01*
X0401825Y0151496D01*
X0401610Y0151378D01*
X0401398Y0151255D01*
X0401189Y0151127D01*
X0400984Y0150993D01*
X0400782Y0150855D01*
X0400583Y0150712D01*
X0400388Y0150564D01*
X0400196Y0150411D01*
X0400009Y0150253D01*
X0399825Y0150091D01*
X0399645Y0149925D01*
X0399470Y0149754D01*
X0399298Y0149579D01*
X0399131Y0149399D01*
X0398969Y0149216D01*
X0398811Y0149029D01*
X0398657Y0148838D01*
X0398509Y0148643D01*
X0398365Y0148445D01*
X0398226Y0148243D01*
X0398092Y0148038D01*
X0397963Y0147830D01*
X0397839Y0147618D01*
X0397721Y0147404D01*
X0397608Y0147187D01*
X0397500Y0146967D01*
X0397397Y0146744D01*
X0397300Y0146519D01*
X0406531Y0152673D02*
X0406774Y0152670D01*
X0407017Y0152661D01*
X0407259Y0152646D01*
X0407501Y0152626D01*
X0407743Y0152599D01*
X0407984Y0152567D01*
X0408223Y0152529D01*
X0408462Y0152485D01*
X0408700Y0152435D01*
X0408937Y0152379D01*
X0409172Y0152318D01*
X0409405Y0152251D01*
X0409637Y0152178D01*
X0409867Y0152100D01*
X0410095Y0152016D01*
X0410321Y0151927D01*
X0410544Y0151832D01*
X0410766Y0151732D01*
X0410984Y0151627D01*
X0411201Y0151516D01*
X0411414Y0151400D01*
X0411625Y0151279D01*
X0411832Y0151152D01*
X0412036Y0151021D01*
X0412238Y0150885D01*
X0412435Y0150744D01*
X0412630Y0150598D01*
X0412820Y0150448D01*
X0413007Y0150293D01*
X0413190Y0150133D01*
X0413370Y0149969D01*
X0413545Y0149801D01*
X0413716Y0149628D01*
X0413883Y0149452D01*
X0414045Y0149271D01*
X0414203Y0149087D01*
X0414357Y0148898D01*
X0414506Y0148707D01*
X0414650Y0148511D01*
X0414789Y0148312D01*
X0414924Y0148110D01*
X0415053Y0147904D01*
X0415178Y0147696D01*
X0415297Y0147484D01*
X0415412Y0147270D01*
X0415521Y0147053D01*
X0415625Y0146833D01*
X0415723Y0146611D01*
X0415816Y0146387D01*
X0412820Y0152893D02*
X0412573Y0153041D01*
X0412323Y0153183D01*
X0412069Y0153319D01*
X0411812Y0153448D01*
X0411552Y0153572D01*
X0411289Y0153689D01*
X0411024Y0153800D01*
X0410756Y0153905D01*
X0410485Y0154003D01*
X0410212Y0154094D01*
X0409937Y0154179D01*
X0409660Y0154258D01*
X0409381Y0154330D01*
X0409101Y0154395D01*
X0408819Y0154453D01*
X0408536Y0154504D01*
X0408252Y0154549D01*
X0407967Y0154587D01*
X0407680Y0154618D01*
X0407394Y0154642D01*
X0407106Y0154659D01*
X0406819Y0154670D01*
X0406531Y0154673D01*
X0419031Y0158673D02*
X0422031Y0158673D01*
X0422031Y0155173D01*
X0424031Y0155173D02*
X0424031Y0160173D01*
X0419031Y0160173D01*
X0406531Y0132673D02*
X0406290Y0132676D01*
X0406050Y0132685D01*
X0405809Y0132699D01*
X0405570Y0132719D01*
X0405330Y0132745D01*
X0405092Y0132777D01*
X0404854Y0132815D01*
X0404617Y0132858D01*
X0404381Y0132907D01*
X0404147Y0132961D01*
X0403914Y0133022D01*
X0403682Y0133087D01*
X0403452Y0133159D01*
X0403224Y0133236D01*
X0402998Y0133318D01*
X0402774Y0133406D01*
X0402552Y0133499D01*
X0402332Y0133597D01*
X0402115Y0133701D01*
X0401900Y0133810D01*
X0401688Y0133924D01*
X0401479Y0134043D01*
X0401273Y0134167D01*
X0401070Y0134296D01*
X0400870Y0134430D01*
X0400673Y0134569D01*
X0400479Y0134712D01*
X0400290Y0134860D01*
X0400103Y0135012D01*
X0399921Y0135169D01*
X0399742Y0135331D01*
X0399567Y0135496D01*
X0399397Y0135666D01*
X0399230Y0135840D01*
X0399068Y0136017D01*
X0398910Y0136199D01*
X0398756Y0136384D01*
X0398607Y0136573D01*
X0398462Y0136766D01*
X0398322Y0136962D01*
X0398187Y0137161D01*
X0398057Y0137363D01*
X0397932Y0137569D01*
X0397811Y0137777D01*
X0397696Y0137989D01*
X0397586Y0138203D01*
X0397481Y0138419D01*
X0397381Y0138638D01*
X0397287Y0138860D01*
X0397198Y0139083D01*
X0400089Y0132549D02*
X0400329Y0132400D01*
X0400574Y0132256D01*
X0400821Y0132118D01*
X0401072Y0131987D01*
X0401326Y0131861D01*
X0401583Y0131741D01*
X0401842Y0131627D01*
X0402104Y0131519D01*
X0402369Y0131418D01*
X0402636Y0131323D01*
X0402905Y0131234D01*
X0403176Y0131152D01*
X0403449Y0131076D01*
X0403724Y0131006D01*
X0404000Y0130943D01*
X0404278Y0130886D01*
X0404557Y0130837D01*
X0404837Y0130793D01*
X0405118Y0130757D01*
X0405399Y0130726D01*
X0405682Y0130703D01*
X0405965Y0130686D01*
X0406248Y0130676D01*
X0406531Y0130673D01*
X0400274Y0152912D02*
X0400520Y0153059D01*
X0400769Y0153199D01*
X0401022Y0153334D01*
X0401277Y0153462D01*
X0401536Y0153584D01*
X0401798Y0153700D01*
X0402062Y0153810D01*
X0402329Y0153913D01*
X0402598Y0154010D01*
X0402870Y0154101D01*
X0403143Y0154185D01*
X0403419Y0154262D01*
X0403696Y0154333D01*
X0403975Y0154398D01*
X0404255Y0154455D01*
X0404537Y0154506D01*
X0404820Y0154550D01*
X0405103Y0154588D01*
X0405388Y0154618D01*
X0405673Y0154642D01*
X0405959Y0154659D01*
X0406245Y0154670D01*
X0406531Y0154673D01*
X0394031Y0158673D02*
X0394031Y0160173D01*
X0390531Y0155173D02*
X0389031Y0155173D01*
X0386747Y0155173D02*
X0386747Y0160173D01*
X0381747Y0160173D01*
X0381747Y0158673D02*
X0384747Y0158673D01*
X0384747Y0155173D01*
X0375536Y0152893D02*
X0375289Y0153041D01*
X0375039Y0153183D01*
X0374785Y0153319D01*
X0374528Y0153448D01*
X0374268Y0153572D01*
X0374005Y0153689D01*
X0373740Y0153800D01*
X0373472Y0153905D01*
X0373201Y0154003D01*
X0372928Y0154094D01*
X0372653Y0154179D01*
X0372376Y0154258D01*
X0372097Y0154330D01*
X0371817Y0154395D01*
X0371535Y0154453D01*
X0371252Y0154504D01*
X0370968Y0154549D01*
X0370683Y0154587D01*
X0370396Y0154618D01*
X0370110Y0154642D01*
X0369822Y0154659D01*
X0369535Y0154670D01*
X0369247Y0154673D01*
X0368961Y0154670D01*
X0368675Y0154659D01*
X0368389Y0154642D01*
X0368104Y0154618D01*
X0367819Y0154588D01*
X0367536Y0154550D01*
X0367253Y0154506D01*
X0366971Y0154455D01*
X0366691Y0154398D01*
X0366412Y0154333D01*
X0366135Y0154262D01*
X0365859Y0154185D01*
X0365586Y0154101D01*
X0365314Y0154010D01*
X0365045Y0153913D01*
X0364778Y0153810D01*
X0364514Y0153700D01*
X0364252Y0153584D01*
X0363993Y0153462D01*
X0363738Y0153334D01*
X0363485Y0153199D01*
X0363236Y0153059D01*
X0362990Y0152912D01*
X0359914Y0139083D02*
X0360003Y0138860D01*
X0360097Y0138638D01*
X0360197Y0138419D01*
X0360302Y0138203D01*
X0360412Y0137989D01*
X0360527Y0137777D01*
X0360648Y0137569D01*
X0360773Y0137363D01*
X0360903Y0137161D01*
X0361038Y0136962D01*
X0361178Y0136766D01*
X0361323Y0136573D01*
X0361472Y0136384D01*
X0361626Y0136199D01*
X0361784Y0136017D01*
X0361946Y0135840D01*
X0362113Y0135666D01*
X0362283Y0135496D01*
X0362458Y0135331D01*
X0362637Y0135169D01*
X0362819Y0135012D01*
X0363006Y0134860D01*
X0363195Y0134712D01*
X0363389Y0134569D01*
X0363586Y0134430D01*
X0363786Y0134296D01*
X0363989Y0134167D01*
X0364195Y0134043D01*
X0364404Y0133924D01*
X0364616Y0133810D01*
X0364831Y0133701D01*
X0365048Y0133597D01*
X0365268Y0133499D01*
X0365490Y0133406D01*
X0365714Y0133318D01*
X0365940Y0133236D01*
X0366168Y0133159D01*
X0366398Y0133087D01*
X0366630Y0133022D01*
X0366863Y0132961D01*
X0367097Y0132907D01*
X0367333Y0132858D01*
X0367570Y0132815D01*
X0367808Y0132777D01*
X0368046Y0132745D01*
X0368286Y0132719D01*
X0368525Y0132699D01*
X0368766Y0132685D01*
X0369006Y0132676D01*
X0369247Y0132673D01*
X0377401Y0081535D02*
X0377401Y0068035D01*
X0370901Y0068035D02*
X0370901Y0074535D01*
X0368401Y0074535D01*
X0348401Y0074535D01*
X0348401Y0070035D01*
X0368401Y0070035D01*
X0368401Y0072535D01*
X0369901Y0072535D01*
X0369901Y0068035D01*
X0368401Y0072535D02*
X0368401Y0074535D01*
X0377401Y0081535D02*
X0274401Y0081535D01*
X0274401Y0068035D01*
X0283401Y0070035D02*
X0283401Y0074535D01*
X0303401Y0074535D01*
X0303401Y0070035D01*
X0283401Y0070035D01*
X0263361Y0072858D02*
X0263361Y0066358D01*
X0263361Y0072858D02*
X0263359Y0072934D01*
X0263353Y0073010D01*
X0263344Y0073085D01*
X0263330Y0073160D01*
X0263313Y0073234D01*
X0263292Y0073307D01*
X0263268Y0073379D01*
X0263239Y0073450D01*
X0263208Y0073519D01*
X0263173Y0073586D01*
X0263134Y0073651D01*
X0263092Y0073715D01*
X0263047Y0073776D01*
X0262999Y0073835D01*
X0262948Y0073891D01*
X0262894Y0073945D01*
X0262838Y0073996D01*
X0262779Y0074044D01*
X0262718Y0074089D01*
X0262654Y0074131D01*
X0262589Y0074170D01*
X0262522Y0074205D01*
X0262453Y0074236D01*
X0262382Y0074265D01*
X0262310Y0074289D01*
X0262237Y0074310D01*
X0262163Y0074327D01*
X0262088Y0074341D01*
X0262013Y0074350D01*
X0261937Y0074356D01*
X0261861Y0074358D01*
X0258361Y0074358D01*
X0257361Y0073358D01*
X0204361Y0073358D01*
X0203361Y0074358D01*
X0199861Y0074358D01*
X0199785Y0074356D01*
X0199709Y0074350D01*
X0199634Y0074341D01*
X0199559Y0074327D01*
X0199485Y0074310D01*
X0199412Y0074289D01*
X0199340Y0074265D01*
X0199269Y0074236D01*
X0199200Y0074205D01*
X0199133Y0074170D01*
X0199068Y0074131D01*
X0199004Y0074089D01*
X0198943Y0074044D01*
X0198884Y0073996D01*
X0198828Y0073945D01*
X0198774Y0073891D01*
X0198723Y0073835D01*
X0198675Y0073776D01*
X0198630Y0073715D01*
X0198588Y0073651D01*
X0198549Y0073586D01*
X0198514Y0073519D01*
X0198483Y0073450D01*
X0198454Y0073379D01*
X0198430Y0073307D01*
X0198409Y0073234D01*
X0198392Y0073160D01*
X0198378Y0073085D01*
X0198369Y0073010D01*
X0198363Y0072934D01*
X0198361Y0072858D01*
X0198361Y0066358D01*
X0198361Y0058358D02*
X0198361Y0051858D01*
X0198363Y0051782D01*
X0198369Y0051706D01*
X0198378Y0051631D01*
X0198392Y0051556D01*
X0198409Y0051482D01*
X0198430Y0051409D01*
X0198454Y0051337D01*
X0198483Y0051266D01*
X0198514Y0051197D01*
X0198549Y0051130D01*
X0198588Y0051065D01*
X0198630Y0051001D01*
X0198675Y0050940D01*
X0198723Y0050881D01*
X0198774Y0050825D01*
X0198828Y0050771D01*
X0198884Y0050720D01*
X0198943Y0050672D01*
X0199004Y0050627D01*
X0199068Y0050585D01*
X0199133Y0050546D01*
X0199200Y0050511D01*
X0199269Y0050480D01*
X0199340Y0050451D01*
X0199412Y0050427D01*
X0199485Y0050406D01*
X0199559Y0050389D01*
X0199634Y0050375D01*
X0199709Y0050366D01*
X0199785Y0050360D01*
X0199861Y0050358D01*
X0203361Y0050358D01*
X0204361Y0051358D01*
X0257361Y0051358D01*
X0258361Y0050358D01*
X0261861Y0050358D01*
X0261937Y0050360D01*
X0262013Y0050366D01*
X0262088Y0050375D01*
X0262163Y0050389D01*
X0262237Y0050406D01*
X0262310Y0050427D01*
X0262382Y0050451D01*
X0262453Y0050480D01*
X0262522Y0050511D01*
X0262589Y0050546D01*
X0262654Y0050585D01*
X0262718Y0050627D01*
X0262779Y0050672D01*
X0262838Y0050720D01*
X0262894Y0050771D01*
X0262948Y0050825D01*
X0262999Y0050881D01*
X0263047Y0050940D01*
X0263092Y0051001D01*
X0263134Y0051065D01*
X0263173Y0051130D01*
X0263208Y0051197D01*
X0263239Y0051266D01*
X0263268Y0051337D01*
X0263292Y0051409D01*
X0263313Y0051482D01*
X0263330Y0051556D01*
X0263344Y0051631D01*
X0263353Y0051706D01*
X0263359Y0051782D01*
X0263361Y0051858D01*
X0263361Y0058358D01*
X0274401Y0052035D02*
X0274401Y0038535D01*
X0377401Y0038535D01*
X0377401Y0052035D01*
X0368401Y0050035D02*
X0368401Y0045535D01*
X0348401Y0045535D01*
X0348401Y0050035D01*
X0368401Y0050035D01*
X0303401Y0050035D02*
X0303401Y0045535D01*
X0283401Y0045535D01*
X0280901Y0045535D01*
X0280901Y0052035D01*
X0281901Y0052035D02*
X0281901Y0047535D01*
X0283401Y0047535D01*
X0283401Y0050035D01*
X0303401Y0050035D01*
X0283401Y0047535D02*
X0283401Y0045535D01*
X0253035Y0017895D02*
X0251613Y0012917D01*
X0255168Y0012917D01*
X0254102Y0014339D02*
X0254102Y0011495D01*
X0249014Y0011495D02*
X0245459Y0011495D01*
X0248481Y0015050D01*
X0247414Y0017895D02*
X0247325Y0017893D01*
X0247236Y0017887D01*
X0247147Y0017878D01*
X0247059Y0017864D01*
X0246972Y0017847D01*
X0246885Y0017826D01*
X0246799Y0017801D01*
X0246715Y0017773D01*
X0246632Y0017740D01*
X0246550Y0017705D01*
X0246470Y0017665D01*
X0246392Y0017623D01*
X0246315Y0017577D01*
X0246241Y0017528D01*
X0246169Y0017475D01*
X0246099Y0017420D01*
X0246032Y0017361D01*
X0245967Y0017300D01*
X0245905Y0017236D01*
X0245846Y0017169D01*
X0245790Y0017100D01*
X0245737Y0017028D01*
X0245687Y0016954D01*
X0245640Y0016878D01*
X0245597Y0016801D01*
X0245557Y0016721D01*
X0245520Y0016640D01*
X0245487Y0016557D01*
X0245458Y0016472D01*
X0248482Y0015050D02*
X0248539Y0015108D01*
X0248595Y0015169D01*
X0248647Y0015232D01*
X0248696Y0015297D01*
X0248742Y0015365D01*
X0248784Y0015435D01*
X0248824Y0015507D01*
X0248859Y0015580D01*
X0248892Y0015656D01*
X0248920Y0015732D01*
X0248945Y0015810D01*
X0248966Y0015889D01*
X0248984Y0015969D01*
X0248997Y0016050D01*
X0249007Y0016131D01*
X0249013Y0016213D01*
X0249015Y0016295D01*
X0249014Y0016295D02*
X0249012Y0016374D01*
X0249006Y0016452D01*
X0248997Y0016530D01*
X0248983Y0016607D01*
X0248966Y0016684D01*
X0248945Y0016759D01*
X0248920Y0016834D01*
X0248892Y0016907D01*
X0248860Y0016979D01*
X0248825Y0017049D01*
X0248786Y0017118D01*
X0248744Y0017184D01*
X0248699Y0017248D01*
X0248651Y0017310D01*
X0248600Y0017369D01*
X0248545Y0017426D01*
X0248488Y0017481D01*
X0248429Y0017532D01*
X0248367Y0017580D01*
X0248303Y0017625D01*
X0248237Y0017667D01*
X0248168Y0017706D01*
X0248098Y0017741D01*
X0248026Y0017773D01*
X0247953Y0017801D01*
X0247878Y0017826D01*
X0247803Y0017847D01*
X0247726Y0017864D01*
X0247649Y0017878D01*
X0247571Y0017887D01*
X0247493Y0017893D01*
X0247414Y0017895D01*
X0239865Y0015050D02*
X0236843Y0011495D01*
X0240399Y0011495D01*
X0242751Y0011495D02*
X0243106Y0011495D01*
X0243106Y0011850D01*
X0242751Y0011850D01*
X0242751Y0011495D01*
X0238799Y0017895D02*
X0238710Y0017893D01*
X0238621Y0017887D01*
X0238532Y0017878D01*
X0238444Y0017864D01*
X0238357Y0017847D01*
X0238270Y0017826D01*
X0238184Y0017801D01*
X0238100Y0017773D01*
X0238017Y0017740D01*
X0237935Y0017705D01*
X0237855Y0017665D01*
X0237777Y0017623D01*
X0237700Y0017577D01*
X0237626Y0017528D01*
X0237554Y0017475D01*
X0237484Y0017420D01*
X0237417Y0017361D01*
X0237352Y0017300D01*
X0237290Y0017236D01*
X0237231Y0017169D01*
X0237175Y0017100D01*
X0237122Y0017028D01*
X0237072Y0016954D01*
X0237025Y0016878D01*
X0236982Y0016801D01*
X0236942Y0016721D01*
X0236905Y0016640D01*
X0236872Y0016557D01*
X0236843Y0016472D01*
X0239866Y0015050D02*
X0239923Y0015108D01*
X0239979Y0015169D01*
X0240031Y0015232D01*
X0240080Y0015297D01*
X0240126Y0015365D01*
X0240168Y0015435D01*
X0240208Y0015507D01*
X0240243Y0015580D01*
X0240276Y0015656D01*
X0240304Y0015732D01*
X0240329Y0015810D01*
X0240350Y0015889D01*
X0240368Y0015969D01*
X0240381Y0016050D01*
X0240391Y0016131D01*
X0240397Y0016213D01*
X0240399Y0016295D01*
X0240397Y0016374D01*
X0240391Y0016452D01*
X0240382Y0016530D01*
X0240368Y0016607D01*
X0240351Y0016684D01*
X0240330Y0016759D01*
X0240305Y0016834D01*
X0240277Y0016907D01*
X0240245Y0016979D01*
X0240210Y0017049D01*
X0240171Y0017118D01*
X0240129Y0017184D01*
X0240084Y0017248D01*
X0240036Y0017310D01*
X0239985Y0017369D01*
X0239930Y0017426D01*
X0239873Y0017481D01*
X0239814Y0017532D01*
X0239752Y0017580D01*
X0239688Y0017625D01*
X0239622Y0017667D01*
X0239553Y0017706D01*
X0239483Y0017741D01*
X0239411Y0017773D01*
X0239338Y0017801D01*
X0239263Y0017826D01*
X0239188Y0017847D01*
X0239111Y0017864D01*
X0239034Y0017878D01*
X0238956Y0017887D01*
X0238878Y0017893D01*
X0238799Y0017895D01*
X0230689Y0014695D02*
X0230691Y0014554D01*
X0230697Y0014414D01*
X0230706Y0014273D01*
X0230719Y0014133D01*
X0230736Y0013993D01*
X0230756Y0013854D01*
X0230781Y0013716D01*
X0230809Y0013578D01*
X0230840Y0013441D01*
X0230876Y0013304D01*
X0230915Y0013169D01*
X0230957Y0013035D01*
X0231003Y0012902D01*
X0231053Y0012770D01*
X0231106Y0012640D01*
X0231162Y0012511D01*
X0231222Y0012384D01*
X0231045Y0012917D02*
X0233889Y0016473D01*
X0233712Y0017006D02*
X0233687Y0017072D01*
X0233659Y0017137D01*
X0233627Y0017201D01*
X0233592Y0017262D01*
X0233553Y0017322D01*
X0233512Y0017380D01*
X0233467Y0017435D01*
X0233419Y0017487D01*
X0233369Y0017537D01*
X0233316Y0017585D01*
X0233261Y0017629D01*
X0233203Y0017670D01*
X0233143Y0017708D01*
X0233081Y0017743D01*
X0233017Y0017774D01*
X0232952Y0017802D01*
X0232885Y0017827D01*
X0232818Y0017847D01*
X0232749Y0017864D01*
X0232679Y0017878D01*
X0232609Y0017887D01*
X0232538Y0017893D01*
X0232467Y0017895D01*
X0232396Y0017893D01*
X0232325Y0017887D01*
X0232255Y0017878D01*
X0232185Y0017864D01*
X0232116Y0017847D01*
X0232049Y0017827D01*
X0231982Y0017802D01*
X0231917Y0017774D01*
X0231853Y0017743D01*
X0231791Y0017708D01*
X0231731Y0017670D01*
X0231673Y0017629D01*
X0231618Y0017585D01*
X0231565Y0017537D01*
X0231515Y0017487D01*
X0231467Y0017435D01*
X0231422Y0017380D01*
X0231381Y0017322D01*
X0231342Y0017262D01*
X0231307Y0017201D01*
X0231275Y0017137D01*
X0231247Y0017072D01*
X0231222Y0017006D01*
X0233712Y0017006D02*
X0233772Y0016879D01*
X0233828Y0016750D01*
X0233881Y0016620D01*
X0233931Y0016488D01*
X0233977Y0016355D01*
X0234019Y0016221D01*
X0234058Y0016086D01*
X0234094Y0015949D01*
X0234125Y0015812D01*
X0234153Y0015674D01*
X0234178Y0015536D01*
X0234198Y0015397D01*
X0234215Y0015257D01*
X0234228Y0015117D01*
X0234237Y0014976D01*
X0234243Y0014836D01*
X0234245Y0014695D01*
X0230689Y0014695D02*
X0230691Y0014836D01*
X0230697Y0014976D01*
X0230706Y0015117D01*
X0230719Y0015257D01*
X0230736Y0015397D01*
X0230756Y0015536D01*
X0230781Y0015674D01*
X0230809Y0015812D01*
X0230840Y0015949D01*
X0230876Y0016086D01*
X0230915Y0016221D01*
X0230957Y0016355D01*
X0231003Y0016488D01*
X0231053Y0016620D01*
X0231106Y0016750D01*
X0231162Y0016879D01*
X0231222Y0017006D01*
X0234244Y0014695D02*
X0234242Y0014554D01*
X0234236Y0014414D01*
X0234227Y0014273D01*
X0234214Y0014133D01*
X0234197Y0013993D01*
X0234177Y0013854D01*
X0234152Y0013716D01*
X0234124Y0013578D01*
X0234093Y0013441D01*
X0234057Y0013304D01*
X0234018Y0013169D01*
X0233976Y0013035D01*
X0233930Y0012902D01*
X0233880Y0012770D01*
X0233827Y0012640D01*
X0233771Y0012511D01*
X0233711Y0012384D01*
X0233712Y0012383D02*
X0233687Y0012317D01*
X0233659Y0012252D01*
X0233627Y0012188D01*
X0233592Y0012127D01*
X0233553Y0012067D01*
X0233512Y0012009D01*
X0233467Y0011954D01*
X0233419Y0011902D01*
X0233369Y0011852D01*
X0233316Y0011804D01*
X0233260Y0011760D01*
X0233203Y0011719D01*
X0233143Y0011681D01*
X0233081Y0011646D01*
X0233017Y0011615D01*
X0232952Y0011587D01*
X0232885Y0011562D01*
X0232818Y0011542D01*
X0232749Y0011525D01*
X0232679Y0011511D01*
X0232609Y0011502D01*
X0232538Y0011496D01*
X0232467Y0011494D01*
X0232396Y0011496D01*
X0232325Y0011502D01*
X0232255Y0011511D01*
X0232185Y0011525D01*
X0232116Y0011542D01*
X0232049Y0011562D01*
X0231982Y0011587D01*
X0231917Y0011615D01*
X0231853Y0011646D01*
X0231791Y0011681D01*
X0231731Y0011719D01*
X0231673Y0011760D01*
X0231618Y0011804D01*
X0231565Y0011852D01*
X0231515Y0011902D01*
X0231467Y0011954D01*
X0231422Y0012009D01*
X0231381Y0012067D01*
X0231342Y0012127D01*
X0231307Y0012188D01*
X0231275Y0012252D01*
X0231247Y0012317D01*
X0231222Y0012383D01*
X0228091Y0011495D02*
X0224535Y0011495D01*
X0226313Y0011495D02*
X0226313Y0017895D01*
X0224535Y0016473D01*
X0177062Y0073795D02*
X0177062Y0075795D01*
X0256452Y0097535D02*
X0256452Y0102535D01*
X0258952Y0105035D01*
X0256452Y0107535D01*
X0256452Y0112535D01*
X0258952Y0115035D01*
X0263952Y0115035D02*
X0266452Y0112535D01*
X0266452Y0107535D01*
X0263952Y0105035D01*
X0266452Y0102535D01*
X0266452Y0097535D01*
X0263952Y0095035D01*
X0258952Y0095035D01*
X0256452Y0097535D01*
X0258952Y0105035D02*
X0263952Y0105035D01*
X0284011Y0102535D02*
X0284011Y0097535D01*
X0286511Y0095035D01*
X0291511Y0095035D01*
X0294011Y0097535D01*
X0294011Y0102535D01*
X0291511Y0105035D01*
X0286511Y0105035D01*
X0284011Y0102535D01*
X0286511Y0105035D02*
X0284011Y0107535D01*
X0284011Y0112535D01*
X0286511Y0115035D01*
X0291511Y0115035D02*
X0294011Y0112535D01*
X0294011Y0107535D01*
X0291511Y0105035D01*
X0449380Y0154170D02*
X0449380Y0157726D01*
X0455780Y0155948D01*
X0455780Y0160324D02*
X0455780Y0163880D01*
X0455780Y0162102D02*
X0449380Y0162102D01*
X0450802Y0160324D01*
X0450091Y0154170D02*
X0449380Y0154170D01*
X0455424Y0166232D02*
X0455424Y0166587D01*
X0455780Y0166587D01*
X0455780Y0166232D01*
X0455424Y0166232D01*
X0455780Y0168940D02*
X0455780Y0172495D01*
X0455780Y0170717D02*
X0449380Y0170717D01*
X0450802Y0168940D01*
X0455780Y0175094D02*
X0455780Y0178649D01*
X0455780Y0175094D02*
X0452224Y0178116D01*
X0449380Y0177049D02*
X0449382Y0176960D01*
X0449388Y0176871D01*
X0449397Y0176782D01*
X0449411Y0176694D01*
X0449428Y0176607D01*
X0449449Y0176520D01*
X0449474Y0176434D01*
X0449502Y0176350D01*
X0449535Y0176267D01*
X0449570Y0176185D01*
X0449610Y0176105D01*
X0449652Y0176027D01*
X0449698Y0175950D01*
X0449747Y0175876D01*
X0449800Y0175804D01*
X0449855Y0175734D01*
X0449914Y0175667D01*
X0449975Y0175602D01*
X0450039Y0175540D01*
X0450106Y0175481D01*
X0450175Y0175425D01*
X0450247Y0175372D01*
X0450321Y0175322D01*
X0450397Y0175275D01*
X0450474Y0175232D01*
X0450554Y0175192D01*
X0450635Y0175155D01*
X0450718Y0175122D01*
X0450803Y0175093D01*
X0452225Y0178117D02*
X0452167Y0178174D01*
X0452106Y0178230D01*
X0452043Y0178282D01*
X0451978Y0178331D01*
X0451910Y0178377D01*
X0451840Y0178419D01*
X0451768Y0178459D01*
X0451695Y0178494D01*
X0451619Y0178527D01*
X0451543Y0178555D01*
X0451465Y0178580D01*
X0451386Y0178601D01*
X0451306Y0178619D01*
X0451225Y0178632D01*
X0451144Y0178642D01*
X0451062Y0178648D01*
X0450980Y0178650D01*
X0450980Y0178649D02*
X0450901Y0178647D01*
X0450823Y0178641D01*
X0450745Y0178632D01*
X0450668Y0178618D01*
X0450591Y0178601D01*
X0450516Y0178580D01*
X0450441Y0178555D01*
X0450368Y0178527D01*
X0450296Y0178495D01*
X0450226Y0178460D01*
X0450157Y0178421D01*
X0450091Y0178379D01*
X0450027Y0178334D01*
X0449965Y0178286D01*
X0449906Y0178235D01*
X0449849Y0178180D01*
X0449794Y0178123D01*
X0449743Y0178064D01*
X0449695Y0178002D01*
X0449650Y0177938D01*
X0449608Y0177872D01*
X0449569Y0177803D01*
X0449534Y0177733D01*
X0449502Y0177661D01*
X0449474Y0177588D01*
X0449449Y0177513D01*
X0449428Y0177438D01*
X0449411Y0177361D01*
X0449397Y0177284D01*
X0449388Y0177206D01*
X0449382Y0177128D01*
X0449380Y0177049D01*
X0318893Y0273925D02*
X0318893Y0275425D01*
X0317393Y0275425D01*
X0318893Y0275425D02*
X0318893Y0276925D01*
X0318893Y0275425D02*
X0320393Y0275425D01*
X0312893Y0281925D02*
X0312896Y0282195D01*
X0312906Y0282465D01*
X0312923Y0282734D01*
X0312946Y0283003D01*
X0312976Y0283272D01*
X0313012Y0283539D01*
X0313055Y0283806D01*
X0313104Y0284071D01*
X0313160Y0284335D01*
X0313223Y0284598D01*
X0313291Y0284859D01*
X0313367Y0285118D01*
X0313448Y0285375D01*
X0313536Y0285631D01*
X0313630Y0285884D01*
X0313730Y0286135D01*
X0313837Y0286383D01*
X0313949Y0286628D01*
X0314068Y0286871D01*
X0314192Y0287110D01*
X0314322Y0287347D01*
X0314458Y0287580D01*
X0314600Y0287810D01*
X0314747Y0288036D01*
X0314900Y0288259D01*
X0315058Y0288478D01*
X0315221Y0288693D01*
X0315390Y0288903D01*
X0315564Y0289110D01*
X0315743Y0289312D01*
X0315926Y0289510D01*
X0316115Y0289703D01*
X0316308Y0289892D01*
X0316506Y0290075D01*
X0316708Y0290254D01*
X0316915Y0290428D01*
X0317125Y0290597D01*
X0317340Y0290760D01*
X0317559Y0290918D01*
X0317782Y0291071D01*
X0318008Y0291218D01*
X0318238Y0291360D01*
X0318471Y0291496D01*
X0318708Y0291626D01*
X0318947Y0291750D01*
X0319190Y0291869D01*
X0319435Y0291981D01*
X0319683Y0292088D01*
X0319934Y0292188D01*
X0320187Y0292282D01*
X0320443Y0292370D01*
X0320700Y0292451D01*
X0320959Y0292527D01*
X0321220Y0292595D01*
X0321483Y0292658D01*
X0321747Y0292714D01*
X0322012Y0292763D01*
X0322279Y0292806D01*
X0322546Y0292842D01*
X0322815Y0292872D01*
X0323084Y0292895D01*
X0323353Y0292912D01*
X0323623Y0292922D01*
X0323893Y0292925D01*
X0324163Y0292922D01*
X0324433Y0292912D01*
X0324702Y0292895D01*
X0324971Y0292872D01*
X0325240Y0292842D01*
X0325507Y0292806D01*
X0325774Y0292763D01*
X0326039Y0292714D01*
X0326303Y0292658D01*
X0326566Y0292595D01*
X0326827Y0292527D01*
X0327086Y0292451D01*
X0327343Y0292370D01*
X0327599Y0292282D01*
X0327852Y0292188D01*
X0328103Y0292088D01*
X0328351Y0291981D01*
X0328596Y0291869D01*
X0328839Y0291750D01*
X0329078Y0291626D01*
X0329315Y0291496D01*
X0329548Y0291360D01*
X0329778Y0291218D01*
X0330004Y0291071D01*
X0330227Y0290918D01*
X0330446Y0290760D01*
X0330661Y0290597D01*
X0330871Y0290428D01*
X0331078Y0290254D01*
X0331280Y0290075D01*
X0331478Y0289892D01*
X0331671Y0289703D01*
X0331860Y0289510D01*
X0332043Y0289312D01*
X0332222Y0289110D01*
X0332396Y0288903D01*
X0332565Y0288693D01*
X0332728Y0288478D01*
X0332886Y0288259D01*
X0333039Y0288036D01*
X0333186Y0287810D01*
X0333328Y0287580D01*
X0333464Y0287347D01*
X0333594Y0287110D01*
X0333718Y0286871D01*
X0333837Y0286628D01*
X0333949Y0286383D01*
X0334056Y0286135D01*
X0334156Y0285884D01*
X0334250Y0285631D01*
X0334338Y0285375D01*
X0334419Y0285118D01*
X0334495Y0284859D01*
X0334563Y0284598D01*
X0334626Y0284335D01*
X0334682Y0284071D01*
X0334731Y0283806D01*
X0334774Y0283539D01*
X0334810Y0283272D01*
X0334840Y0283003D01*
X0334863Y0282734D01*
X0334880Y0282465D01*
X0334890Y0282195D01*
X0334893Y0281925D01*
X0334890Y0281655D01*
X0334880Y0281385D01*
X0334863Y0281116D01*
X0334840Y0280847D01*
X0334810Y0280578D01*
X0334774Y0280311D01*
X0334731Y0280044D01*
X0334682Y0279779D01*
X0334626Y0279515D01*
X0334563Y0279252D01*
X0334495Y0278991D01*
X0334419Y0278732D01*
X0334338Y0278475D01*
X0334250Y0278219D01*
X0334156Y0277966D01*
X0334056Y0277715D01*
X0333949Y0277467D01*
X0333837Y0277222D01*
X0333718Y0276979D01*
X0333594Y0276740D01*
X0333464Y0276503D01*
X0333328Y0276270D01*
X0333186Y0276040D01*
X0333039Y0275814D01*
X0332886Y0275591D01*
X0332728Y0275372D01*
X0332565Y0275157D01*
X0332396Y0274947D01*
X0332222Y0274740D01*
X0332043Y0274538D01*
X0331860Y0274340D01*
X0331671Y0274147D01*
X0331478Y0273958D01*
X0331280Y0273775D01*
X0331078Y0273596D01*
X0330871Y0273422D01*
X0330661Y0273253D01*
X0330446Y0273090D01*
X0330227Y0272932D01*
X0330004Y0272779D01*
X0329778Y0272632D01*
X0329548Y0272490D01*
X0329315Y0272354D01*
X0329078Y0272224D01*
X0328839Y0272100D01*
X0328596Y0271981D01*
X0328351Y0271869D01*
X0328103Y0271762D01*
X0327852Y0271662D01*
X0327599Y0271568D01*
X0327343Y0271480D01*
X0327086Y0271399D01*
X0326827Y0271323D01*
X0326566Y0271255D01*
X0326303Y0271192D01*
X0326039Y0271136D01*
X0325774Y0271087D01*
X0325507Y0271044D01*
X0325240Y0271008D01*
X0324971Y0270978D01*
X0324702Y0270955D01*
X0324433Y0270938D01*
X0324163Y0270928D01*
X0323893Y0270925D01*
X0323623Y0270928D01*
X0323353Y0270938D01*
X0323084Y0270955D01*
X0322815Y0270978D01*
X0322546Y0271008D01*
X0322279Y0271044D01*
X0322012Y0271087D01*
X0321747Y0271136D01*
X0321483Y0271192D01*
X0321220Y0271255D01*
X0320959Y0271323D01*
X0320700Y0271399D01*
X0320443Y0271480D01*
X0320187Y0271568D01*
X0319934Y0271662D01*
X0319683Y0271762D01*
X0319435Y0271869D01*
X0319190Y0271981D01*
X0318947Y0272100D01*
X0318708Y0272224D01*
X0318471Y0272354D01*
X0318238Y0272490D01*
X0318008Y0272632D01*
X0317782Y0272779D01*
X0317559Y0272932D01*
X0317340Y0273090D01*
X0317125Y0273253D01*
X0316915Y0273422D01*
X0316708Y0273596D01*
X0316506Y0273775D01*
X0316308Y0273958D01*
X0316115Y0274147D01*
X0315926Y0274340D01*
X0315743Y0274538D01*
X0315564Y0274740D01*
X0315390Y0274947D01*
X0315221Y0275157D01*
X0315058Y0275372D01*
X0314900Y0275591D01*
X0314747Y0275814D01*
X0314600Y0276040D01*
X0314458Y0276270D01*
X0314322Y0276503D01*
X0314192Y0276740D01*
X0314068Y0276979D01*
X0313949Y0277222D01*
X0313837Y0277467D01*
X0313730Y0277715D01*
X0313630Y0277966D01*
X0313536Y0278219D01*
X0313448Y0278475D01*
X0313367Y0278732D01*
X0313291Y0278991D01*
X0313223Y0279252D01*
X0313160Y0279515D01*
X0313104Y0279779D01*
X0313055Y0280044D01*
X0313012Y0280311D01*
X0312976Y0280578D01*
X0312946Y0280847D01*
X0312923Y0281116D01*
X0312906Y0281385D01*
X0312896Y0281655D01*
X0312893Y0281925D01*
X0291511Y0275035D02*
X0286511Y0275035D01*
X0263952Y0275035D02*
X0258952Y0275035D01*
X0254102Y0323995D02*
X0254102Y0326839D01*
X0255168Y0325417D02*
X0251613Y0325417D01*
X0253035Y0330395D01*
X0248481Y0327550D02*
X0245459Y0323995D01*
X0249014Y0323995D01*
X0243106Y0323995D02*
X0242751Y0323995D01*
X0242751Y0324350D01*
X0243106Y0324350D01*
X0243106Y0323995D01*
X0240399Y0323995D02*
X0236843Y0323995D01*
X0239865Y0327550D01*
X0238799Y0330395D02*
X0238710Y0330393D01*
X0238621Y0330387D01*
X0238532Y0330378D01*
X0238444Y0330364D01*
X0238357Y0330347D01*
X0238270Y0330326D01*
X0238184Y0330301D01*
X0238100Y0330273D01*
X0238017Y0330240D01*
X0237935Y0330205D01*
X0237855Y0330165D01*
X0237777Y0330123D01*
X0237700Y0330077D01*
X0237626Y0330028D01*
X0237554Y0329975D01*
X0237484Y0329920D01*
X0237417Y0329861D01*
X0237352Y0329800D01*
X0237290Y0329736D01*
X0237231Y0329669D01*
X0237175Y0329600D01*
X0237122Y0329528D01*
X0237072Y0329454D01*
X0237025Y0329378D01*
X0236982Y0329301D01*
X0236942Y0329221D01*
X0236905Y0329140D01*
X0236872Y0329057D01*
X0236843Y0328972D01*
X0239866Y0327550D02*
X0239923Y0327608D01*
X0239979Y0327669D01*
X0240031Y0327732D01*
X0240080Y0327797D01*
X0240126Y0327865D01*
X0240168Y0327935D01*
X0240208Y0328007D01*
X0240243Y0328080D01*
X0240276Y0328156D01*
X0240304Y0328232D01*
X0240329Y0328310D01*
X0240350Y0328389D01*
X0240368Y0328469D01*
X0240381Y0328550D01*
X0240391Y0328631D01*
X0240397Y0328713D01*
X0240399Y0328795D01*
X0240397Y0328874D01*
X0240391Y0328952D01*
X0240382Y0329030D01*
X0240368Y0329107D01*
X0240351Y0329184D01*
X0240330Y0329259D01*
X0240305Y0329334D01*
X0240277Y0329407D01*
X0240245Y0329479D01*
X0240210Y0329549D01*
X0240171Y0329618D01*
X0240129Y0329684D01*
X0240084Y0329748D01*
X0240036Y0329810D01*
X0239985Y0329869D01*
X0239930Y0329926D01*
X0239873Y0329981D01*
X0239814Y0330032D01*
X0239752Y0330080D01*
X0239688Y0330125D01*
X0239622Y0330167D01*
X0239553Y0330206D01*
X0239483Y0330241D01*
X0239411Y0330273D01*
X0239338Y0330301D01*
X0239263Y0330326D01*
X0239188Y0330347D01*
X0239111Y0330364D01*
X0239034Y0330378D01*
X0238956Y0330387D01*
X0238878Y0330393D01*
X0238799Y0330395D01*
X0230689Y0327195D02*
X0230691Y0327054D01*
X0230697Y0326914D01*
X0230706Y0326773D01*
X0230719Y0326633D01*
X0230736Y0326493D01*
X0230756Y0326354D01*
X0230781Y0326216D01*
X0230809Y0326078D01*
X0230840Y0325941D01*
X0230876Y0325804D01*
X0230915Y0325669D01*
X0230957Y0325535D01*
X0231003Y0325402D01*
X0231053Y0325270D01*
X0231106Y0325140D01*
X0231162Y0325011D01*
X0231222Y0324884D01*
X0231045Y0325417D02*
X0233889Y0328973D01*
X0233712Y0329506D02*
X0233687Y0329572D01*
X0233659Y0329637D01*
X0233627Y0329701D01*
X0233592Y0329762D01*
X0233553Y0329822D01*
X0233512Y0329880D01*
X0233467Y0329935D01*
X0233419Y0329987D01*
X0233369Y0330037D01*
X0233316Y0330085D01*
X0233261Y0330129D01*
X0233203Y0330170D01*
X0233143Y0330208D01*
X0233081Y0330243D01*
X0233017Y0330274D01*
X0232952Y0330302D01*
X0232885Y0330327D01*
X0232818Y0330347D01*
X0232749Y0330364D01*
X0232679Y0330378D01*
X0232609Y0330387D01*
X0232538Y0330393D01*
X0232467Y0330395D01*
X0232396Y0330393D01*
X0232325Y0330387D01*
X0232255Y0330378D01*
X0232185Y0330364D01*
X0232116Y0330347D01*
X0232049Y0330327D01*
X0231982Y0330302D01*
X0231917Y0330274D01*
X0231853Y0330243D01*
X0231791Y0330208D01*
X0231731Y0330170D01*
X0231673Y0330129D01*
X0231618Y0330085D01*
X0231565Y0330037D01*
X0231515Y0329987D01*
X0231467Y0329935D01*
X0231422Y0329880D01*
X0231381Y0329822D01*
X0231342Y0329762D01*
X0231307Y0329701D01*
X0231275Y0329637D01*
X0231247Y0329572D01*
X0231222Y0329506D01*
X0233712Y0329506D02*
X0233772Y0329379D01*
X0233828Y0329250D01*
X0233881Y0329120D01*
X0233931Y0328988D01*
X0233977Y0328855D01*
X0234019Y0328721D01*
X0234058Y0328586D01*
X0234094Y0328449D01*
X0234125Y0328312D01*
X0234153Y0328174D01*
X0234178Y0328036D01*
X0234198Y0327897D01*
X0234215Y0327757D01*
X0234228Y0327617D01*
X0234237Y0327476D01*
X0234243Y0327336D01*
X0234245Y0327195D01*
X0230689Y0327195D02*
X0230691Y0327336D01*
X0230697Y0327476D01*
X0230706Y0327617D01*
X0230719Y0327757D01*
X0230736Y0327897D01*
X0230756Y0328036D01*
X0230781Y0328174D01*
X0230809Y0328312D01*
X0230840Y0328449D01*
X0230876Y0328586D01*
X0230915Y0328721D01*
X0230957Y0328855D01*
X0231003Y0328988D01*
X0231053Y0329120D01*
X0231106Y0329250D01*
X0231162Y0329379D01*
X0231222Y0329506D01*
X0234244Y0327195D02*
X0234242Y0327054D01*
X0234236Y0326914D01*
X0234227Y0326773D01*
X0234214Y0326633D01*
X0234197Y0326493D01*
X0234177Y0326354D01*
X0234152Y0326216D01*
X0234124Y0326078D01*
X0234093Y0325941D01*
X0234057Y0325804D01*
X0234018Y0325669D01*
X0233976Y0325535D01*
X0233930Y0325402D01*
X0233880Y0325270D01*
X0233827Y0325140D01*
X0233771Y0325011D01*
X0233711Y0324884D01*
X0233712Y0324883D02*
X0233687Y0324817D01*
X0233659Y0324752D01*
X0233627Y0324688D01*
X0233592Y0324627D01*
X0233553Y0324567D01*
X0233512Y0324509D01*
X0233467Y0324454D01*
X0233419Y0324402D01*
X0233369Y0324352D01*
X0233316Y0324304D01*
X0233260Y0324260D01*
X0233203Y0324219D01*
X0233143Y0324181D01*
X0233081Y0324146D01*
X0233017Y0324115D01*
X0232952Y0324087D01*
X0232885Y0324062D01*
X0232818Y0324042D01*
X0232749Y0324025D01*
X0232679Y0324011D01*
X0232609Y0324002D01*
X0232538Y0323996D01*
X0232467Y0323994D01*
X0232396Y0323996D01*
X0232325Y0324002D01*
X0232255Y0324011D01*
X0232185Y0324025D01*
X0232116Y0324042D01*
X0232049Y0324062D01*
X0231982Y0324087D01*
X0231917Y0324115D01*
X0231853Y0324146D01*
X0231791Y0324181D01*
X0231731Y0324219D01*
X0231673Y0324260D01*
X0231618Y0324304D01*
X0231565Y0324352D01*
X0231515Y0324402D01*
X0231467Y0324454D01*
X0231422Y0324509D01*
X0231381Y0324567D01*
X0231342Y0324627D01*
X0231307Y0324688D01*
X0231275Y0324752D01*
X0231247Y0324817D01*
X0231222Y0324883D01*
X0228091Y0323995D02*
X0224535Y0323995D01*
X0226313Y0323995D02*
X0226313Y0330395D01*
X0224535Y0328973D01*
X0248482Y0327550D02*
X0248539Y0327608D01*
X0248595Y0327669D01*
X0248647Y0327732D01*
X0248696Y0327797D01*
X0248742Y0327865D01*
X0248784Y0327935D01*
X0248824Y0328007D01*
X0248859Y0328080D01*
X0248892Y0328156D01*
X0248920Y0328232D01*
X0248945Y0328310D01*
X0248966Y0328389D01*
X0248984Y0328469D01*
X0248997Y0328550D01*
X0249007Y0328631D01*
X0249013Y0328713D01*
X0249015Y0328795D01*
X0249014Y0328795D02*
X0249012Y0328874D01*
X0249006Y0328952D01*
X0248997Y0329030D01*
X0248983Y0329107D01*
X0248966Y0329184D01*
X0248945Y0329259D01*
X0248920Y0329334D01*
X0248892Y0329407D01*
X0248860Y0329479D01*
X0248825Y0329549D01*
X0248786Y0329618D01*
X0248744Y0329684D01*
X0248699Y0329748D01*
X0248651Y0329810D01*
X0248600Y0329869D01*
X0248545Y0329926D01*
X0248488Y0329981D01*
X0248429Y0330032D01*
X0248367Y0330080D01*
X0248303Y0330125D01*
X0248237Y0330167D01*
X0248168Y0330206D01*
X0248098Y0330241D01*
X0248026Y0330273D01*
X0247953Y0330301D01*
X0247878Y0330326D01*
X0247803Y0330347D01*
X0247726Y0330364D01*
X0247649Y0330378D01*
X0247571Y0330387D01*
X0247493Y0330393D01*
X0247414Y0330395D01*
X0247325Y0330393D01*
X0247236Y0330387D01*
X0247147Y0330378D01*
X0247059Y0330364D01*
X0246972Y0330347D01*
X0246885Y0330326D01*
X0246799Y0330301D01*
X0246715Y0330273D01*
X0246632Y0330240D01*
X0246550Y0330205D01*
X0246470Y0330165D01*
X0246392Y0330123D01*
X0246315Y0330077D01*
X0246241Y0330028D01*
X0246169Y0329975D01*
X0246099Y0329920D01*
X0246032Y0329861D01*
X0245967Y0329800D01*
X0245905Y0329736D01*
X0245846Y0329669D01*
X0245790Y0329600D01*
X0245737Y0329528D01*
X0245687Y0329454D01*
X0245640Y0329378D01*
X0245597Y0329301D01*
X0245557Y0329221D01*
X0245520Y0329140D01*
X0245487Y0329057D01*
X0245458Y0328972D01*
X0338980Y0293752D02*
X0338980Y0279752D01*
X0339980Y0279752D01*
X0411980Y0279752D02*
X0412980Y0279752D01*
X0412980Y0293752D01*
X0117889Y0162909D02*
X0112889Y0162909D01*
X0010780Y0162102D02*
X0004380Y0162102D01*
X0005802Y0160324D01*
X0004380Y0157726D02*
X0004380Y0154170D01*
X0005091Y0154170D01*
X0004380Y0157726D02*
X0010780Y0155948D01*
X0010780Y0160324D02*
X0010780Y0163880D01*
X0010780Y0166232D02*
X0010780Y0166587D01*
X0010424Y0166587D01*
X0010424Y0166232D01*
X0010780Y0166232D01*
X0010780Y0168940D02*
X0010780Y0172495D01*
X0010780Y0170717D02*
X0004380Y0170717D01*
X0005802Y0168940D01*
X0010780Y0175094D02*
X0010780Y0178649D01*
X0010780Y0175094D02*
X0007224Y0178116D01*
X0004380Y0177049D02*
X0004382Y0176960D01*
X0004388Y0176871D01*
X0004397Y0176782D01*
X0004411Y0176694D01*
X0004428Y0176607D01*
X0004449Y0176520D01*
X0004474Y0176434D01*
X0004502Y0176350D01*
X0004535Y0176267D01*
X0004570Y0176185D01*
X0004610Y0176105D01*
X0004652Y0176027D01*
X0004698Y0175950D01*
X0004747Y0175876D01*
X0004800Y0175804D01*
X0004855Y0175734D01*
X0004914Y0175667D01*
X0004975Y0175602D01*
X0005039Y0175540D01*
X0005106Y0175481D01*
X0005175Y0175425D01*
X0005247Y0175372D01*
X0005321Y0175322D01*
X0005397Y0175275D01*
X0005474Y0175232D01*
X0005554Y0175192D01*
X0005635Y0175155D01*
X0005718Y0175122D01*
X0005803Y0175093D01*
X0007225Y0178117D02*
X0007167Y0178174D01*
X0007106Y0178230D01*
X0007043Y0178282D01*
X0006978Y0178331D01*
X0006910Y0178377D01*
X0006840Y0178419D01*
X0006768Y0178459D01*
X0006695Y0178494D01*
X0006619Y0178527D01*
X0006543Y0178555D01*
X0006465Y0178580D01*
X0006386Y0178601D01*
X0006306Y0178619D01*
X0006225Y0178632D01*
X0006144Y0178642D01*
X0006062Y0178648D01*
X0005980Y0178650D01*
X0005980Y0178649D02*
X0005901Y0178647D01*
X0005823Y0178641D01*
X0005745Y0178632D01*
X0005668Y0178618D01*
X0005591Y0178601D01*
X0005516Y0178580D01*
X0005441Y0178555D01*
X0005368Y0178527D01*
X0005296Y0178495D01*
X0005226Y0178460D01*
X0005157Y0178421D01*
X0005091Y0178379D01*
X0005027Y0178334D01*
X0004965Y0178286D01*
X0004906Y0178235D01*
X0004849Y0178180D01*
X0004794Y0178123D01*
X0004743Y0178064D01*
X0004695Y0178002D01*
X0004650Y0177938D01*
X0004608Y0177872D01*
X0004569Y0177803D01*
X0004534Y0177733D01*
X0004502Y0177661D01*
X0004474Y0177588D01*
X0004449Y0177513D01*
X0004428Y0177438D01*
X0004411Y0177361D01*
X0004397Y0177284D01*
X0004388Y0177206D01*
X0004382Y0177128D01*
X0004380Y0177049D01*
D14*
X0088365Y0186217D03*
D15*
X0207592Y0226177D03*
X0207592Y0248933D03*
D16*
X0200592Y0248933D03*
X0200592Y0226177D03*
X0236092Y0226177D03*
X0236092Y0248933D03*
D17*
X0305901Y0071535D02*
X0345901Y0071535D01*
X0346401Y0060035D02*
X0305401Y0060035D01*
X0305901Y0048535D02*
X0345901Y0048535D01*
X0155062Y0061295D02*
X0114062Y0061295D01*
X0114562Y0072795D02*
X0154562Y0072795D01*
X0154562Y0049795D02*
X0114562Y0049795D01*
D18*
X0093812Y0061295D03*
X0175312Y0061295D03*
X0285151Y0060035D03*
X0366651Y0060035D03*
D19*
X0365651Y0052285D03*
X0365651Y0067785D03*
X0286151Y0067785D03*
X0286151Y0052285D03*
X0174312Y0053545D03*
X0174312Y0069045D03*
X0094812Y0069045D03*
X0094812Y0053545D03*
D20*
X0113312Y0051045D03*
X0113312Y0071545D03*
X0155812Y0071545D03*
X0155812Y0051045D03*
X0304651Y0049785D03*
X0304651Y0070285D03*
X0347151Y0070285D03*
X0347151Y0049785D03*
D21*
X0347151Y0060035D03*
X0304651Y0060035D03*
X0155812Y0061295D03*
X0113312Y0061295D03*
D22*
X0134562Y0051795D03*
X0134562Y0070795D03*
X0325901Y0069535D03*
X0325901Y0050535D03*
D23*
X0295651Y0052285D03*
X0295651Y0067785D03*
X0356151Y0067785D03*
X0356151Y0052285D03*
X0164812Y0053545D03*
X0164812Y0069045D03*
X0104312Y0069045D03*
X0104312Y0053545D03*
D24*
X0102562Y0052295D03*
X0102562Y0070295D03*
X0166562Y0070295D03*
X0166562Y0052295D03*
X0293901Y0051035D03*
X0293901Y0069035D03*
X0357901Y0069035D03*
X0357901Y0051035D03*
D25*
X0374877Y0165035D02*
X0374877Y0243776D01*
X0408342Y0243776D01*
X0408342Y0165035D01*
X0374877Y0165035D01*
X0098932Y0201610D02*
X0098932Y0240980D01*
X0065468Y0240980D01*
X0065468Y0201610D01*
X0098932Y0201610D01*
X0075877Y0176858D02*
X0064377Y0177358D01*
X0075877Y0176858D02*
X0076877Y0175858D01*
X0076877Y0138858D01*
X0075877Y0137858D01*
X0064377Y0137358D01*
X0073477Y0139658D02*
X0073479Y0139721D01*
X0073485Y0139783D01*
X0073495Y0139845D01*
X0073508Y0139907D01*
X0073526Y0139967D01*
X0073547Y0140026D01*
X0073572Y0140084D01*
X0073601Y0140140D01*
X0073633Y0140194D01*
X0073668Y0140246D01*
X0073706Y0140295D01*
X0073748Y0140343D01*
X0073792Y0140387D01*
X0073840Y0140429D01*
X0073889Y0140467D01*
X0073941Y0140502D01*
X0073995Y0140534D01*
X0074051Y0140563D01*
X0074109Y0140588D01*
X0074168Y0140609D01*
X0074228Y0140627D01*
X0074290Y0140640D01*
X0074352Y0140650D01*
X0074414Y0140656D01*
X0074477Y0140658D01*
X0074540Y0140656D01*
X0074602Y0140650D01*
X0074664Y0140640D01*
X0074726Y0140627D01*
X0074786Y0140609D01*
X0074845Y0140588D01*
X0074903Y0140563D01*
X0074959Y0140534D01*
X0075013Y0140502D01*
X0075065Y0140467D01*
X0075114Y0140429D01*
X0075162Y0140387D01*
X0075206Y0140343D01*
X0075248Y0140295D01*
X0075286Y0140246D01*
X0075321Y0140194D01*
X0075353Y0140140D01*
X0075382Y0140084D01*
X0075407Y0140026D01*
X0075428Y0139967D01*
X0075446Y0139907D01*
X0075459Y0139845D01*
X0075469Y0139783D01*
X0075475Y0139721D01*
X0075477Y0139658D01*
X0075475Y0139595D01*
X0075469Y0139533D01*
X0075459Y0139471D01*
X0075446Y0139409D01*
X0075428Y0139349D01*
X0075407Y0139290D01*
X0075382Y0139232D01*
X0075353Y0139176D01*
X0075321Y0139122D01*
X0075286Y0139070D01*
X0075248Y0139021D01*
X0075206Y0138973D01*
X0075162Y0138929D01*
X0075114Y0138887D01*
X0075065Y0138849D01*
X0075013Y0138814D01*
X0074959Y0138782D01*
X0074903Y0138753D01*
X0074845Y0138728D01*
X0074786Y0138707D01*
X0074726Y0138689D01*
X0074664Y0138676D01*
X0074602Y0138666D01*
X0074540Y0138660D01*
X0074477Y0138658D01*
X0074414Y0138660D01*
X0074352Y0138666D01*
X0074290Y0138676D01*
X0074228Y0138689D01*
X0074168Y0138707D01*
X0074109Y0138728D01*
X0074051Y0138753D01*
X0073995Y0138782D01*
X0073941Y0138814D01*
X0073889Y0138849D01*
X0073840Y0138887D01*
X0073792Y0138929D01*
X0073748Y0138973D01*
X0073706Y0139021D01*
X0073668Y0139070D01*
X0073633Y0139122D01*
X0073601Y0139176D01*
X0073572Y0139232D01*
X0073547Y0139290D01*
X0073526Y0139349D01*
X0073508Y0139409D01*
X0073495Y0139471D01*
X0073485Y0139533D01*
X0073479Y0139595D01*
X0073477Y0139658D01*
X0075405Y0129339D02*
X0063905Y0129839D01*
X0075405Y0129339D02*
X0076405Y0128339D01*
X0076405Y0091339D01*
X0075405Y0090339D01*
X0063905Y0089839D01*
X0073005Y0092139D02*
X0073007Y0092202D01*
X0073013Y0092264D01*
X0073023Y0092326D01*
X0073036Y0092388D01*
X0073054Y0092448D01*
X0073075Y0092507D01*
X0073100Y0092565D01*
X0073129Y0092621D01*
X0073161Y0092675D01*
X0073196Y0092727D01*
X0073234Y0092776D01*
X0073276Y0092824D01*
X0073320Y0092868D01*
X0073368Y0092910D01*
X0073417Y0092948D01*
X0073469Y0092983D01*
X0073523Y0093015D01*
X0073579Y0093044D01*
X0073637Y0093069D01*
X0073696Y0093090D01*
X0073756Y0093108D01*
X0073818Y0093121D01*
X0073880Y0093131D01*
X0073942Y0093137D01*
X0074005Y0093139D01*
X0074068Y0093137D01*
X0074130Y0093131D01*
X0074192Y0093121D01*
X0074254Y0093108D01*
X0074314Y0093090D01*
X0074373Y0093069D01*
X0074431Y0093044D01*
X0074487Y0093015D01*
X0074541Y0092983D01*
X0074593Y0092948D01*
X0074642Y0092910D01*
X0074690Y0092868D01*
X0074734Y0092824D01*
X0074776Y0092776D01*
X0074814Y0092727D01*
X0074849Y0092675D01*
X0074881Y0092621D01*
X0074910Y0092565D01*
X0074935Y0092507D01*
X0074956Y0092448D01*
X0074974Y0092388D01*
X0074987Y0092326D01*
X0074997Y0092264D01*
X0075003Y0092202D01*
X0075005Y0092139D01*
X0075003Y0092076D01*
X0074997Y0092014D01*
X0074987Y0091952D01*
X0074974Y0091890D01*
X0074956Y0091830D01*
X0074935Y0091771D01*
X0074910Y0091713D01*
X0074881Y0091657D01*
X0074849Y0091603D01*
X0074814Y0091551D01*
X0074776Y0091502D01*
X0074734Y0091454D01*
X0074690Y0091410D01*
X0074642Y0091368D01*
X0074593Y0091330D01*
X0074541Y0091295D01*
X0074487Y0091263D01*
X0074431Y0091234D01*
X0074373Y0091209D01*
X0074314Y0091188D01*
X0074254Y0091170D01*
X0074192Y0091157D01*
X0074130Y0091147D01*
X0074068Y0091141D01*
X0074005Y0091139D01*
X0073942Y0091141D01*
X0073880Y0091147D01*
X0073818Y0091157D01*
X0073756Y0091170D01*
X0073696Y0091188D01*
X0073637Y0091209D01*
X0073579Y0091234D01*
X0073523Y0091263D01*
X0073469Y0091295D01*
X0073417Y0091330D01*
X0073368Y0091368D01*
X0073320Y0091410D01*
X0073276Y0091454D01*
X0073234Y0091502D01*
X0073196Y0091551D01*
X0073161Y0091603D01*
X0073129Y0091657D01*
X0073100Y0091713D01*
X0073075Y0091771D01*
X0073054Y0091830D01*
X0073036Y0091890D01*
X0073023Y0091952D01*
X0073013Y0092014D01*
X0073007Y0092076D01*
X0073005Y0092139D01*
D26*
X0339458Y0252250D02*
X0342013Y0252250D01*
X0340735Y0252250D02*
X0340735Y0256850D01*
X0339458Y0255828D01*
X0343989Y0287952D02*
X0346544Y0287952D01*
X0343989Y0287952D02*
X0346161Y0290508D01*
X0345394Y0292552D02*
X0345320Y0292550D01*
X0345246Y0292545D01*
X0345172Y0292535D01*
X0345099Y0292522D01*
X0345026Y0292506D01*
X0344955Y0292485D01*
X0344885Y0292461D01*
X0344816Y0292434D01*
X0344748Y0292403D01*
X0344682Y0292369D01*
X0344618Y0292332D01*
X0344556Y0292291D01*
X0344496Y0292247D01*
X0344438Y0292201D01*
X0344382Y0292151D01*
X0344329Y0292099D01*
X0344279Y0292044D01*
X0344232Y0291987D01*
X0344188Y0291927D01*
X0344146Y0291865D01*
X0344108Y0291802D01*
X0344073Y0291736D01*
X0344042Y0291669D01*
X0344014Y0291600D01*
X0343989Y0291530D01*
X0346161Y0290508D02*
X0346208Y0290555D01*
X0346252Y0290605D01*
X0346294Y0290657D01*
X0346333Y0290711D01*
X0346368Y0290767D01*
X0346401Y0290825D01*
X0346431Y0290885D01*
X0346457Y0290946D01*
X0346480Y0291009D01*
X0346499Y0291073D01*
X0346515Y0291137D01*
X0346528Y0291203D01*
X0346537Y0291269D01*
X0346542Y0291335D01*
X0346544Y0291402D01*
X0346542Y0291469D01*
X0346536Y0291536D01*
X0346527Y0291602D01*
X0346513Y0291667D01*
X0346496Y0291732D01*
X0346475Y0291795D01*
X0346450Y0291857D01*
X0346422Y0291918D01*
X0346390Y0291977D01*
X0346355Y0292034D01*
X0346316Y0292089D01*
X0346275Y0292141D01*
X0346230Y0292191D01*
X0346183Y0292238D01*
X0346133Y0292283D01*
X0346081Y0292324D01*
X0346026Y0292363D01*
X0345969Y0292398D01*
X0345910Y0292430D01*
X0345849Y0292458D01*
X0345787Y0292483D01*
X0345724Y0292504D01*
X0345659Y0292521D01*
X0345594Y0292535D01*
X0345528Y0292544D01*
X0345461Y0292550D01*
X0345394Y0292552D01*
X0402434Y0291530D02*
X0403711Y0292552D01*
X0403711Y0287952D01*
X0402434Y0287952D02*
X0404989Y0287952D01*
X0406934Y0288974D02*
X0407956Y0292552D01*
X0408722Y0289996D02*
X0408722Y0287952D01*
X0409489Y0288974D02*
X0406934Y0288974D01*
X0409180Y0257083D02*
X0409180Y0252483D01*
X0407902Y0252483D02*
X0410458Y0252483D01*
X0412402Y0252483D02*
X0413936Y0252483D01*
X0413998Y0252485D01*
X0414059Y0252490D01*
X0414120Y0252500D01*
X0414181Y0252513D01*
X0414240Y0252529D01*
X0414298Y0252549D01*
X0414355Y0252573D01*
X0414411Y0252600D01*
X0414465Y0252630D01*
X0414517Y0252664D01*
X0414566Y0252700D01*
X0414614Y0252740D01*
X0414659Y0252782D01*
X0414701Y0252827D01*
X0414741Y0252875D01*
X0414777Y0252924D01*
X0414811Y0252976D01*
X0414841Y0253030D01*
X0414868Y0253086D01*
X0414892Y0253143D01*
X0414912Y0253201D01*
X0414928Y0253260D01*
X0414941Y0253321D01*
X0414951Y0253382D01*
X0414956Y0253443D01*
X0414958Y0253505D01*
X0414958Y0254016D01*
X0414956Y0254078D01*
X0414951Y0254139D01*
X0414941Y0254200D01*
X0414928Y0254261D01*
X0414912Y0254320D01*
X0414892Y0254378D01*
X0414868Y0254435D01*
X0414841Y0254491D01*
X0414811Y0254545D01*
X0414777Y0254597D01*
X0414741Y0254646D01*
X0414701Y0254694D01*
X0414659Y0254739D01*
X0414614Y0254781D01*
X0414566Y0254821D01*
X0414517Y0254857D01*
X0414465Y0254891D01*
X0414411Y0254921D01*
X0414355Y0254948D01*
X0414298Y0254972D01*
X0414240Y0254992D01*
X0414181Y0255008D01*
X0414120Y0255021D01*
X0414059Y0255031D01*
X0413998Y0255036D01*
X0413936Y0255038D01*
X0413936Y0255039D02*
X0412402Y0255039D01*
X0412402Y0257083D01*
X0414958Y0257083D01*
X0409180Y0257083D02*
X0407902Y0256061D01*
D27*
X0375980Y0296738D03*
D28*
X0360389Y0233264D02*
X0352515Y0233264D01*
X0344247Y0226965D02*
X0344247Y0215154D01*
X0337712Y0215665D02*
X0337712Y0227476D01*
X0329444Y0233776D02*
X0321570Y0233776D01*
X0313302Y0227476D02*
X0313302Y0215665D01*
X0321570Y0209366D02*
X0329444Y0209366D01*
X0318617Y0221571D02*
X0318619Y0221740D01*
X0318625Y0221909D01*
X0318636Y0222078D01*
X0318650Y0222246D01*
X0318669Y0222414D01*
X0318692Y0222582D01*
X0318718Y0222749D01*
X0318749Y0222915D01*
X0318784Y0223081D01*
X0318823Y0223245D01*
X0318867Y0223409D01*
X0318914Y0223571D01*
X0318965Y0223732D01*
X0319020Y0223892D01*
X0319079Y0224051D01*
X0319141Y0224208D01*
X0319208Y0224363D01*
X0319279Y0224517D01*
X0319353Y0224669D01*
X0319431Y0224819D01*
X0319512Y0224967D01*
X0319597Y0225113D01*
X0319686Y0225257D01*
X0319778Y0225399D01*
X0319874Y0225538D01*
X0319973Y0225675D01*
X0320075Y0225810D01*
X0320181Y0225942D01*
X0320290Y0226071D01*
X0320402Y0226198D01*
X0320517Y0226322D01*
X0320635Y0226443D01*
X0320756Y0226561D01*
X0320880Y0226676D01*
X0321007Y0226788D01*
X0321136Y0226897D01*
X0321268Y0227003D01*
X0321403Y0227105D01*
X0321540Y0227204D01*
X0321679Y0227300D01*
X0321821Y0227392D01*
X0321965Y0227481D01*
X0322111Y0227566D01*
X0322259Y0227647D01*
X0322409Y0227725D01*
X0322561Y0227799D01*
X0322715Y0227870D01*
X0322870Y0227937D01*
X0323027Y0227999D01*
X0323186Y0228058D01*
X0323346Y0228113D01*
X0323507Y0228164D01*
X0323669Y0228211D01*
X0323833Y0228255D01*
X0323997Y0228294D01*
X0324163Y0228329D01*
X0324329Y0228360D01*
X0324496Y0228386D01*
X0324664Y0228409D01*
X0324832Y0228428D01*
X0325000Y0228442D01*
X0325169Y0228453D01*
X0325338Y0228459D01*
X0325507Y0228461D01*
X0325676Y0228459D01*
X0325845Y0228453D01*
X0326014Y0228442D01*
X0326182Y0228428D01*
X0326350Y0228409D01*
X0326518Y0228386D01*
X0326685Y0228360D01*
X0326851Y0228329D01*
X0327017Y0228294D01*
X0327181Y0228255D01*
X0327345Y0228211D01*
X0327507Y0228164D01*
X0327668Y0228113D01*
X0327828Y0228058D01*
X0327987Y0227999D01*
X0328144Y0227937D01*
X0328299Y0227870D01*
X0328453Y0227799D01*
X0328605Y0227725D01*
X0328755Y0227647D01*
X0328903Y0227566D01*
X0329049Y0227481D01*
X0329193Y0227392D01*
X0329335Y0227300D01*
X0329474Y0227204D01*
X0329611Y0227105D01*
X0329746Y0227003D01*
X0329878Y0226897D01*
X0330007Y0226788D01*
X0330134Y0226676D01*
X0330258Y0226561D01*
X0330379Y0226443D01*
X0330497Y0226322D01*
X0330612Y0226198D01*
X0330724Y0226071D01*
X0330833Y0225942D01*
X0330939Y0225810D01*
X0331041Y0225675D01*
X0331140Y0225538D01*
X0331236Y0225399D01*
X0331328Y0225257D01*
X0331417Y0225113D01*
X0331502Y0224967D01*
X0331583Y0224819D01*
X0331661Y0224669D01*
X0331735Y0224517D01*
X0331806Y0224363D01*
X0331873Y0224208D01*
X0331935Y0224051D01*
X0331994Y0223892D01*
X0332049Y0223732D01*
X0332100Y0223571D01*
X0332147Y0223409D01*
X0332191Y0223245D01*
X0332230Y0223081D01*
X0332265Y0222915D01*
X0332296Y0222749D01*
X0332322Y0222582D01*
X0332345Y0222414D01*
X0332364Y0222246D01*
X0332378Y0222078D01*
X0332389Y0221909D01*
X0332395Y0221740D01*
X0332397Y0221571D01*
X0332395Y0221402D01*
X0332389Y0221233D01*
X0332378Y0221064D01*
X0332364Y0220896D01*
X0332345Y0220728D01*
X0332322Y0220560D01*
X0332296Y0220393D01*
X0332265Y0220227D01*
X0332230Y0220061D01*
X0332191Y0219897D01*
X0332147Y0219733D01*
X0332100Y0219571D01*
X0332049Y0219410D01*
X0331994Y0219250D01*
X0331935Y0219091D01*
X0331873Y0218934D01*
X0331806Y0218779D01*
X0331735Y0218625D01*
X0331661Y0218473D01*
X0331583Y0218323D01*
X0331502Y0218175D01*
X0331417Y0218029D01*
X0331328Y0217885D01*
X0331236Y0217743D01*
X0331140Y0217604D01*
X0331041Y0217467D01*
X0330939Y0217332D01*
X0330833Y0217200D01*
X0330724Y0217071D01*
X0330612Y0216944D01*
X0330497Y0216820D01*
X0330379Y0216699D01*
X0330258Y0216581D01*
X0330134Y0216466D01*
X0330007Y0216354D01*
X0329878Y0216245D01*
X0329746Y0216139D01*
X0329611Y0216037D01*
X0329474Y0215938D01*
X0329335Y0215842D01*
X0329193Y0215750D01*
X0329049Y0215661D01*
X0328903Y0215576D01*
X0328755Y0215495D01*
X0328605Y0215417D01*
X0328453Y0215343D01*
X0328299Y0215272D01*
X0328144Y0215205D01*
X0327987Y0215143D01*
X0327828Y0215084D01*
X0327668Y0215029D01*
X0327507Y0214978D01*
X0327345Y0214931D01*
X0327181Y0214887D01*
X0327017Y0214848D01*
X0326851Y0214813D01*
X0326685Y0214782D01*
X0326518Y0214756D01*
X0326350Y0214733D01*
X0326182Y0214714D01*
X0326014Y0214700D01*
X0325845Y0214689D01*
X0325676Y0214683D01*
X0325507Y0214681D01*
X0325338Y0214683D01*
X0325169Y0214689D01*
X0325000Y0214700D01*
X0324832Y0214714D01*
X0324664Y0214733D01*
X0324496Y0214756D01*
X0324329Y0214782D01*
X0324163Y0214813D01*
X0323997Y0214848D01*
X0323833Y0214887D01*
X0323669Y0214931D01*
X0323507Y0214978D01*
X0323346Y0215029D01*
X0323186Y0215084D01*
X0323027Y0215143D01*
X0322870Y0215205D01*
X0322715Y0215272D01*
X0322561Y0215343D01*
X0322409Y0215417D01*
X0322259Y0215495D01*
X0322111Y0215576D01*
X0321965Y0215661D01*
X0321821Y0215750D01*
X0321679Y0215842D01*
X0321540Y0215938D01*
X0321403Y0216037D01*
X0321268Y0216139D01*
X0321136Y0216245D01*
X0321007Y0216354D01*
X0320880Y0216466D01*
X0320756Y0216581D01*
X0320635Y0216699D01*
X0320517Y0216820D01*
X0320402Y0216944D01*
X0320290Y0217071D01*
X0320181Y0217200D01*
X0320075Y0217332D01*
X0319973Y0217467D01*
X0319874Y0217604D01*
X0319778Y0217743D01*
X0319686Y0217885D01*
X0319597Y0218029D01*
X0319512Y0218175D01*
X0319431Y0218323D01*
X0319353Y0218473D01*
X0319279Y0218625D01*
X0319208Y0218779D01*
X0319141Y0218934D01*
X0319079Y0219091D01*
X0319020Y0219250D01*
X0318965Y0219410D01*
X0318914Y0219571D01*
X0318867Y0219733D01*
X0318823Y0219897D01*
X0318784Y0220061D01*
X0318749Y0220227D01*
X0318718Y0220393D01*
X0318692Y0220560D01*
X0318669Y0220728D01*
X0318650Y0220896D01*
X0318636Y0221064D01*
X0318625Y0221233D01*
X0318619Y0221402D01*
X0318617Y0221571D01*
X0352515Y0208854D02*
X0360389Y0208854D01*
X0368657Y0215154D02*
X0368657Y0226965D01*
X0349562Y0221059D02*
X0349564Y0221228D01*
X0349570Y0221397D01*
X0349581Y0221566D01*
X0349595Y0221734D01*
X0349614Y0221902D01*
X0349637Y0222070D01*
X0349663Y0222237D01*
X0349694Y0222403D01*
X0349729Y0222569D01*
X0349768Y0222733D01*
X0349812Y0222897D01*
X0349859Y0223059D01*
X0349910Y0223220D01*
X0349965Y0223380D01*
X0350024Y0223539D01*
X0350086Y0223696D01*
X0350153Y0223851D01*
X0350224Y0224005D01*
X0350298Y0224157D01*
X0350376Y0224307D01*
X0350457Y0224455D01*
X0350542Y0224601D01*
X0350631Y0224745D01*
X0350723Y0224887D01*
X0350819Y0225026D01*
X0350918Y0225163D01*
X0351020Y0225298D01*
X0351126Y0225430D01*
X0351235Y0225559D01*
X0351347Y0225686D01*
X0351462Y0225810D01*
X0351580Y0225931D01*
X0351701Y0226049D01*
X0351825Y0226164D01*
X0351952Y0226276D01*
X0352081Y0226385D01*
X0352213Y0226491D01*
X0352348Y0226593D01*
X0352485Y0226692D01*
X0352624Y0226788D01*
X0352766Y0226880D01*
X0352910Y0226969D01*
X0353056Y0227054D01*
X0353204Y0227135D01*
X0353354Y0227213D01*
X0353506Y0227287D01*
X0353660Y0227358D01*
X0353815Y0227425D01*
X0353972Y0227487D01*
X0354131Y0227546D01*
X0354291Y0227601D01*
X0354452Y0227652D01*
X0354614Y0227699D01*
X0354778Y0227743D01*
X0354942Y0227782D01*
X0355108Y0227817D01*
X0355274Y0227848D01*
X0355441Y0227874D01*
X0355609Y0227897D01*
X0355777Y0227916D01*
X0355945Y0227930D01*
X0356114Y0227941D01*
X0356283Y0227947D01*
X0356452Y0227949D01*
X0356621Y0227947D01*
X0356790Y0227941D01*
X0356959Y0227930D01*
X0357127Y0227916D01*
X0357295Y0227897D01*
X0357463Y0227874D01*
X0357630Y0227848D01*
X0357796Y0227817D01*
X0357962Y0227782D01*
X0358126Y0227743D01*
X0358290Y0227699D01*
X0358452Y0227652D01*
X0358613Y0227601D01*
X0358773Y0227546D01*
X0358932Y0227487D01*
X0359089Y0227425D01*
X0359244Y0227358D01*
X0359398Y0227287D01*
X0359550Y0227213D01*
X0359700Y0227135D01*
X0359848Y0227054D01*
X0359994Y0226969D01*
X0360138Y0226880D01*
X0360280Y0226788D01*
X0360419Y0226692D01*
X0360556Y0226593D01*
X0360691Y0226491D01*
X0360823Y0226385D01*
X0360952Y0226276D01*
X0361079Y0226164D01*
X0361203Y0226049D01*
X0361324Y0225931D01*
X0361442Y0225810D01*
X0361557Y0225686D01*
X0361669Y0225559D01*
X0361778Y0225430D01*
X0361884Y0225298D01*
X0361986Y0225163D01*
X0362085Y0225026D01*
X0362181Y0224887D01*
X0362273Y0224745D01*
X0362362Y0224601D01*
X0362447Y0224455D01*
X0362528Y0224307D01*
X0362606Y0224157D01*
X0362680Y0224005D01*
X0362751Y0223851D01*
X0362818Y0223696D01*
X0362880Y0223539D01*
X0362939Y0223380D01*
X0362994Y0223220D01*
X0363045Y0223059D01*
X0363092Y0222897D01*
X0363136Y0222733D01*
X0363175Y0222569D01*
X0363210Y0222403D01*
X0363241Y0222237D01*
X0363267Y0222070D01*
X0363290Y0221902D01*
X0363309Y0221734D01*
X0363323Y0221566D01*
X0363334Y0221397D01*
X0363340Y0221228D01*
X0363342Y0221059D01*
X0363340Y0220890D01*
X0363334Y0220721D01*
X0363323Y0220552D01*
X0363309Y0220384D01*
X0363290Y0220216D01*
X0363267Y0220048D01*
X0363241Y0219881D01*
X0363210Y0219715D01*
X0363175Y0219549D01*
X0363136Y0219385D01*
X0363092Y0219221D01*
X0363045Y0219059D01*
X0362994Y0218898D01*
X0362939Y0218738D01*
X0362880Y0218579D01*
X0362818Y0218422D01*
X0362751Y0218267D01*
X0362680Y0218113D01*
X0362606Y0217961D01*
X0362528Y0217811D01*
X0362447Y0217663D01*
X0362362Y0217517D01*
X0362273Y0217373D01*
X0362181Y0217231D01*
X0362085Y0217092D01*
X0361986Y0216955D01*
X0361884Y0216820D01*
X0361778Y0216688D01*
X0361669Y0216559D01*
X0361557Y0216432D01*
X0361442Y0216308D01*
X0361324Y0216187D01*
X0361203Y0216069D01*
X0361079Y0215954D01*
X0360952Y0215842D01*
X0360823Y0215733D01*
X0360691Y0215627D01*
X0360556Y0215525D01*
X0360419Y0215426D01*
X0360280Y0215330D01*
X0360138Y0215238D01*
X0359994Y0215149D01*
X0359848Y0215064D01*
X0359700Y0214983D01*
X0359550Y0214905D01*
X0359398Y0214831D01*
X0359244Y0214760D01*
X0359089Y0214693D01*
X0358932Y0214631D01*
X0358773Y0214572D01*
X0358613Y0214517D01*
X0358452Y0214466D01*
X0358290Y0214419D01*
X0358126Y0214375D01*
X0357962Y0214336D01*
X0357796Y0214301D01*
X0357630Y0214270D01*
X0357463Y0214244D01*
X0357295Y0214221D01*
X0357127Y0214202D01*
X0356959Y0214188D01*
X0356790Y0214177D01*
X0356621Y0214171D01*
X0356452Y0214169D01*
X0356283Y0214171D01*
X0356114Y0214177D01*
X0355945Y0214188D01*
X0355777Y0214202D01*
X0355609Y0214221D01*
X0355441Y0214244D01*
X0355274Y0214270D01*
X0355108Y0214301D01*
X0354942Y0214336D01*
X0354778Y0214375D01*
X0354614Y0214419D01*
X0354452Y0214466D01*
X0354291Y0214517D01*
X0354131Y0214572D01*
X0353972Y0214631D01*
X0353815Y0214693D01*
X0353660Y0214760D01*
X0353506Y0214831D01*
X0353354Y0214905D01*
X0353204Y0214983D01*
X0353056Y0215064D01*
X0352910Y0215149D01*
X0352766Y0215238D01*
X0352624Y0215330D01*
X0352485Y0215426D01*
X0352348Y0215525D01*
X0352213Y0215627D01*
X0352081Y0215733D01*
X0351952Y0215842D01*
X0351825Y0215954D01*
X0351701Y0216069D01*
X0351580Y0216187D01*
X0351462Y0216308D01*
X0351347Y0216432D01*
X0351235Y0216559D01*
X0351126Y0216688D01*
X0351020Y0216820D01*
X0350918Y0216955D01*
X0350819Y0217092D01*
X0350723Y0217231D01*
X0350631Y0217373D01*
X0350542Y0217517D01*
X0350457Y0217663D01*
X0350376Y0217811D01*
X0350298Y0217961D01*
X0350224Y0218113D01*
X0350153Y0218267D01*
X0350086Y0218422D01*
X0350024Y0218579D01*
X0349965Y0218738D01*
X0349910Y0218898D01*
X0349859Y0219059D01*
X0349812Y0219221D01*
X0349768Y0219385D01*
X0349729Y0219549D01*
X0349694Y0219715D01*
X0349663Y0219881D01*
X0349637Y0220048D01*
X0349614Y0220216D01*
X0349595Y0220384D01*
X0349581Y0220552D01*
X0349570Y0220721D01*
X0349564Y0220890D01*
X0349562Y0221059D01*
X0352279Y0192949D02*
X0360153Y0192949D01*
X0368421Y0186650D02*
X0368421Y0174839D01*
X0360153Y0168539D02*
X0352279Y0168539D01*
X0344011Y0174839D02*
X0344011Y0186650D01*
X0338893Y0185823D02*
X0338893Y0174012D01*
X0330625Y0167713D02*
X0322751Y0167713D01*
X0314484Y0174012D02*
X0314484Y0185823D01*
X0322751Y0192122D02*
X0330625Y0192122D01*
X0319798Y0179917D02*
X0319800Y0180086D01*
X0319806Y0180255D01*
X0319817Y0180424D01*
X0319831Y0180592D01*
X0319850Y0180760D01*
X0319873Y0180928D01*
X0319899Y0181095D01*
X0319930Y0181261D01*
X0319965Y0181427D01*
X0320004Y0181591D01*
X0320048Y0181755D01*
X0320095Y0181917D01*
X0320146Y0182078D01*
X0320201Y0182238D01*
X0320260Y0182397D01*
X0320322Y0182554D01*
X0320389Y0182709D01*
X0320460Y0182863D01*
X0320534Y0183015D01*
X0320612Y0183165D01*
X0320693Y0183313D01*
X0320778Y0183459D01*
X0320867Y0183603D01*
X0320959Y0183745D01*
X0321055Y0183884D01*
X0321154Y0184021D01*
X0321256Y0184156D01*
X0321362Y0184288D01*
X0321471Y0184417D01*
X0321583Y0184544D01*
X0321698Y0184668D01*
X0321816Y0184789D01*
X0321937Y0184907D01*
X0322061Y0185022D01*
X0322188Y0185134D01*
X0322317Y0185243D01*
X0322449Y0185349D01*
X0322584Y0185451D01*
X0322721Y0185550D01*
X0322860Y0185646D01*
X0323002Y0185738D01*
X0323146Y0185827D01*
X0323292Y0185912D01*
X0323440Y0185993D01*
X0323590Y0186071D01*
X0323742Y0186145D01*
X0323896Y0186216D01*
X0324051Y0186283D01*
X0324208Y0186345D01*
X0324367Y0186404D01*
X0324527Y0186459D01*
X0324688Y0186510D01*
X0324850Y0186557D01*
X0325014Y0186601D01*
X0325178Y0186640D01*
X0325344Y0186675D01*
X0325510Y0186706D01*
X0325677Y0186732D01*
X0325845Y0186755D01*
X0326013Y0186774D01*
X0326181Y0186788D01*
X0326350Y0186799D01*
X0326519Y0186805D01*
X0326688Y0186807D01*
X0326857Y0186805D01*
X0327026Y0186799D01*
X0327195Y0186788D01*
X0327363Y0186774D01*
X0327531Y0186755D01*
X0327699Y0186732D01*
X0327866Y0186706D01*
X0328032Y0186675D01*
X0328198Y0186640D01*
X0328362Y0186601D01*
X0328526Y0186557D01*
X0328688Y0186510D01*
X0328849Y0186459D01*
X0329009Y0186404D01*
X0329168Y0186345D01*
X0329325Y0186283D01*
X0329480Y0186216D01*
X0329634Y0186145D01*
X0329786Y0186071D01*
X0329936Y0185993D01*
X0330084Y0185912D01*
X0330230Y0185827D01*
X0330374Y0185738D01*
X0330516Y0185646D01*
X0330655Y0185550D01*
X0330792Y0185451D01*
X0330927Y0185349D01*
X0331059Y0185243D01*
X0331188Y0185134D01*
X0331315Y0185022D01*
X0331439Y0184907D01*
X0331560Y0184789D01*
X0331678Y0184668D01*
X0331793Y0184544D01*
X0331905Y0184417D01*
X0332014Y0184288D01*
X0332120Y0184156D01*
X0332222Y0184021D01*
X0332321Y0183884D01*
X0332417Y0183745D01*
X0332509Y0183603D01*
X0332598Y0183459D01*
X0332683Y0183313D01*
X0332764Y0183165D01*
X0332842Y0183015D01*
X0332916Y0182863D01*
X0332987Y0182709D01*
X0333054Y0182554D01*
X0333116Y0182397D01*
X0333175Y0182238D01*
X0333230Y0182078D01*
X0333281Y0181917D01*
X0333328Y0181755D01*
X0333372Y0181591D01*
X0333411Y0181427D01*
X0333446Y0181261D01*
X0333477Y0181095D01*
X0333503Y0180928D01*
X0333526Y0180760D01*
X0333545Y0180592D01*
X0333559Y0180424D01*
X0333570Y0180255D01*
X0333576Y0180086D01*
X0333578Y0179917D01*
X0333576Y0179748D01*
X0333570Y0179579D01*
X0333559Y0179410D01*
X0333545Y0179242D01*
X0333526Y0179074D01*
X0333503Y0178906D01*
X0333477Y0178739D01*
X0333446Y0178573D01*
X0333411Y0178407D01*
X0333372Y0178243D01*
X0333328Y0178079D01*
X0333281Y0177917D01*
X0333230Y0177756D01*
X0333175Y0177596D01*
X0333116Y0177437D01*
X0333054Y0177280D01*
X0332987Y0177125D01*
X0332916Y0176971D01*
X0332842Y0176819D01*
X0332764Y0176669D01*
X0332683Y0176521D01*
X0332598Y0176375D01*
X0332509Y0176231D01*
X0332417Y0176089D01*
X0332321Y0175950D01*
X0332222Y0175813D01*
X0332120Y0175678D01*
X0332014Y0175546D01*
X0331905Y0175417D01*
X0331793Y0175290D01*
X0331678Y0175166D01*
X0331560Y0175045D01*
X0331439Y0174927D01*
X0331315Y0174812D01*
X0331188Y0174700D01*
X0331059Y0174591D01*
X0330927Y0174485D01*
X0330792Y0174383D01*
X0330655Y0174284D01*
X0330516Y0174188D01*
X0330374Y0174096D01*
X0330230Y0174007D01*
X0330084Y0173922D01*
X0329936Y0173841D01*
X0329786Y0173763D01*
X0329634Y0173689D01*
X0329480Y0173618D01*
X0329325Y0173551D01*
X0329168Y0173489D01*
X0329009Y0173430D01*
X0328849Y0173375D01*
X0328688Y0173324D01*
X0328526Y0173277D01*
X0328362Y0173233D01*
X0328198Y0173194D01*
X0328032Y0173159D01*
X0327866Y0173128D01*
X0327699Y0173102D01*
X0327531Y0173079D01*
X0327363Y0173060D01*
X0327195Y0173046D01*
X0327026Y0173035D01*
X0326857Y0173029D01*
X0326688Y0173027D01*
X0326519Y0173029D01*
X0326350Y0173035D01*
X0326181Y0173046D01*
X0326013Y0173060D01*
X0325845Y0173079D01*
X0325677Y0173102D01*
X0325510Y0173128D01*
X0325344Y0173159D01*
X0325178Y0173194D01*
X0325014Y0173233D01*
X0324850Y0173277D01*
X0324688Y0173324D01*
X0324527Y0173375D01*
X0324367Y0173430D01*
X0324208Y0173489D01*
X0324051Y0173551D01*
X0323896Y0173618D01*
X0323742Y0173689D01*
X0323590Y0173763D01*
X0323440Y0173841D01*
X0323292Y0173922D01*
X0323146Y0174007D01*
X0323002Y0174096D01*
X0322860Y0174188D01*
X0322721Y0174284D01*
X0322584Y0174383D01*
X0322449Y0174485D01*
X0322317Y0174591D01*
X0322188Y0174700D01*
X0322061Y0174812D01*
X0321937Y0174927D01*
X0321816Y0175045D01*
X0321698Y0175166D01*
X0321583Y0175290D01*
X0321471Y0175417D01*
X0321362Y0175546D01*
X0321256Y0175678D01*
X0321154Y0175813D01*
X0321055Y0175950D01*
X0320959Y0176089D01*
X0320867Y0176231D01*
X0320778Y0176375D01*
X0320693Y0176521D01*
X0320612Y0176669D01*
X0320534Y0176819D01*
X0320460Y0176971D01*
X0320389Y0177125D01*
X0320322Y0177280D01*
X0320260Y0177437D01*
X0320201Y0177596D01*
X0320146Y0177756D01*
X0320095Y0177917D01*
X0320048Y0178079D01*
X0320004Y0178243D01*
X0319965Y0178407D01*
X0319930Y0178573D01*
X0319899Y0178739D01*
X0319873Y0178906D01*
X0319850Y0179074D01*
X0319831Y0179242D01*
X0319817Y0179410D01*
X0319806Y0179579D01*
X0319800Y0179748D01*
X0319798Y0179917D01*
X0349326Y0180744D02*
X0349328Y0180913D01*
X0349334Y0181082D01*
X0349345Y0181251D01*
X0349359Y0181419D01*
X0349378Y0181587D01*
X0349401Y0181755D01*
X0349427Y0181922D01*
X0349458Y0182088D01*
X0349493Y0182254D01*
X0349532Y0182418D01*
X0349576Y0182582D01*
X0349623Y0182744D01*
X0349674Y0182905D01*
X0349729Y0183065D01*
X0349788Y0183224D01*
X0349850Y0183381D01*
X0349917Y0183536D01*
X0349988Y0183690D01*
X0350062Y0183842D01*
X0350140Y0183992D01*
X0350221Y0184140D01*
X0350306Y0184286D01*
X0350395Y0184430D01*
X0350487Y0184572D01*
X0350583Y0184711D01*
X0350682Y0184848D01*
X0350784Y0184983D01*
X0350890Y0185115D01*
X0350999Y0185244D01*
X0351111Y0185371D01*
X0351226Y0185495D01*
X0351344Y0185616D01*
X0351465Y0185734D01*
X0351589Y0185849D01*
X0351716Y0185961D01*
X0351845Y0186070D01*
X0351977Y0186176D01*
X0352112Y0186278D01*
X0352249Y0186377D01*
X0352388Y0186473D01*
X0352530Y0186565D01*
X0352674Y0186654D01*
X0352820Y0186739D01*
X0352968Y0186820D01*
X0353118Y0186898D01*
X0353270Y0186972D01*
X0353424Y0187043D01*
X0353579Y0187110D01*
X0353736Y0187172D01*
X0353895Y0187231D01*
X0354055Y0187286D01*
X0354216Y0187337D01*
X0354378Y0187384D01*
X0354542Y0187428D01*
X0354706Y0187467D01*
X0354872Y0187502D01*
X0355038Y0187533D01*
X0355205Y0187559D01*
X0355373Y0187582D01*
X0355541Y0187601D01*
X0355709Y0187615D01*
X0355878Y0187626D01*
X0356047Y0187632D01*
X0356216Y0187634D01*
X0356385Y0187632D01*
X0356554Y0187626D01*
X0356723Y0187615D01*
X0356891Y0187601D01*
X0357059Y0187582D01*
X0357227Y0187559D01*
X0357394Y0187533D01*
X0357560Y0187502D01*
X0357726Y0187467D01*
X0357890Y0187428D01*
X0358054Y0187384D01*
X0358216Y0187337D01*
X0358377Y0187286D01*
X0358537Y0187231D01*
X0358696Y0187172D01*
X0358853Y0187110D01*
X0359008Y0187043D01*
X0359162Y0186972D01*
X0359314Y0186898D01*
X0359464Y0186820D01*
X0359612Y0186739D01*
X0359758Y0186654D01*
X0359902Y0186565D01*
X0360044Y0186473D01*
X0360183Y0186377D01*
X0360320Y0186278D01*
X0360455Y0186176D01*
X0360587Y0186070D01*
X0360716Y0185961D01*
X0360843Y0185849D01*
X0360967Y0185734D01*
X0361088Y0185616D01*
X0361206Y0185495D01*
X0361321Y0185371D01*
X0361433Y0185244D01*
X0361542Y0185115D01*
X0361648Y0184983D01*
X0361750Y0184848D01*
X0361849Y0184711D01*
X0361945Y0184572D01*
X0362037Y0184430D01*
X0362126Y0184286D01*
X0362211Y0184140D01*
X0362292Y0183992D01*
X0362370Y0183842D01*
X0362444Y0183690D01*
X0362515Y0183536D01*
X0362582Y0183381D01*
X0362644Y0183224D01*
X0362703Y0183065D01*
X0362758Y0182905D01*
X0362809Y0182744D01*
X0362856Y0182582D01*
X0362900Y0182418D01*
X0362939Y0182254D01*
X0362974Y0182088D01*
X0363005Y0181922D01*
X0363031Y0181755D01*
X0363054Y0181587D01*
X0363073Y0181419D01*
X0363087Y0181251D01*
X0363098Y0181082D01*
X0363104Y0180913D01*
X0363106Y0180744D01*
X0363104Y0180575D01*
X0363098Y0180406D01*
X0363087Y0180237D01*
X0363073Y0180069D01*
X0363054Y0179901D01*
X0363031Y0179733D01*
X0363005Y0179566D01*
X0362974Y0179400D01*
X0362939Y0179234D01*
X0362900Y0179070D01*
X0362856Y0178906D01*
X0362809Y0178744D01*
X0362758Y0178583D01*
X0362703Y0178423D01*
X0362644Y0178264D01*
X0362582Y0178107D01*
X0362515Y0177952D01*
X0362444Y0177798D01*
X0362370Y0177646D01*
X0362292Y0177496D01*
X0362211Y0177348D01*
X0362126Y0177202D01*
X0362037Y0177058D01*
X0361945Y0176916D01*
X0361849Y0176777D01*
X0361750Y0176640D01*
X0361648Y0176505D01*
X0361542Y0176373D01*
X0361433Y0176244D01*
X0361321Y0176117D01*
X0361206Y0175993D01*
X0361088Y0175872D01*
X0360967Y0175754D01*
X0360843Y0175639D01*
X0360716Y0175527D01*
X0360587Y0175418D01*
X0360455Y0175312D01*
X0360320Y0175210D01*
X0360183Y0175111D01*
X0360044Y0175015D01*
X0359902Y0174923D01*
X0359758Y0174834D01*
X0359612Y0174749D01*
X0359464Y0174668D01*
X0359314Y0174590D01*
X0359162Y0174516D01*
X0359008Y0174445D01*
X0358853Y0174378D01*
X0358696Y0174316D01*
X0358537Y0174257D01*
X0358377Y0174202D01*
X0358216Y0174151D01*
X0358054Y0174104D01*
X0357890Y0174060D01*
X0357726Y0174021D01*
X0357560Y0173986D01*
X0357394Y0173955D01*
X0357227Y0173929D01*
X0357059Y0173906D01*
X0356891Y0173887D01*
X0356723Y0173873D01*
X0356554Y0173862D01*
X0356385Y0173856D01*
X0356216Y0173854D01*
X0356047Y0173856D01*
X0355878Y0173862D01*
X0355709Y0173873D01*
X0355541Y0173887D01*
X0355373Y0173906D01*
X0355205Y0173929D01*
X0355038Y0173955D01*
X0354872Y0173986D01*
X0354706Y0174021D01*
X0354542Y0174060D01*
X0354378Y0174104D01*
X0354216Y0174151D01*
X0354055Y0174202D01*
X0353895Y0174257D01*
X0353736Y0174316D01*
X0353579Y0174378D01*
X0353424Y0174445D01*
X0353270Y0174516D01*
X0353118Y0174590D01*
X0352968Y0174668D01*
X0352820Y0174749D01*
X0352674Y0174834D01*
X0352530Y0174923D01*
X0352388Y0175015D01*
X0352249Y0175111D01*
X0352112Y0175210D01*
X0351977Y0175312D01*
X0351845Y0175418D01*
X0351716Y0175527D01*
X0351589Y0175639D01*
X0351465Y0175754D01*
X0351344Y0175872D01*
X0351226Y0175993D01*
X0351111Y0176117D01*
X0350999Y0176244D01*
X0350890Y0176373D01*
X0350784Y0176505D01*
X0350682Y0176640D01*
X0350583Y0176777D01*
X0350487Y0176916D01*
X0350395Y0177058D01*
X0350306Y0177202D01*
X0350221Y0177348D01*
X0350140Y0177496D01*
X0350062Y0177646D01*
X0349988Y0177798D01*
X0349917Y0177952D01*
X0349850Y0178107D01*
X0349788Y0178264D01*
X0349729Y0178423D01*
X0349674Y0178583D01*
X0349623Y0178744D01*
X0349576Y0178906D01*
X0349532Y0179070D01*
X0349493Y0179234D01*
X0349458Y0179400D01*
X0349427Y0179566D01*
X0349401Y0179733D01*
X0349378Y0179901D01*
X0349359Y0180069D01*
X0349345Y0180237D01*
X0349334Y0180406D01*
X0349328Y0180575D01*
X0349326Y0180744D01*
X0345192Y0145665D02*
X0312909Y0145665D01*
X0316058Y0142516D01*
X0342043Y0142516D01*
X0345192Y0145665D01*
X0345192Y0085272D01*
X0342043Y0088421D01*
X0342043Y0107988D01*
X0342121Y0107988D02*
X0344917Y0107988D01*
X0344917Y0122949D02*
X0342121Y0122949D01*
X0342043Y0122949D02*
X0342043Y0142516D01*
X0316058Y0142516D02*
X0316058Y0088421D01*
X0312909Y0085272D01*
X0312909Y0145665D01*
X0386413Y0116374D02*
X0389562Y0113224D01*
X0415547Y0113224D01*
X0418696Y0116374D01*
X0386413Y0116374D01*
X0386413Y0035980D01*
X0389562Y0039130D01*
X0389562Y0113224D01*
X0415547Y0113224D02*
X0415547Y0083657D01*
X0415625Y0083657D02*
X0418421Y0083657D01*
X0418421Y0068697D02*
X0415625Y0068697D01*
X0415547Y0068697D02*
X0415547Y0039130D01*
X0418696Y0035980D01*
X0418696Y0116374D01*
X0345192Y0085272D02*
X0312909Y0085272D01*
X0316058Y0088421D02*
X0342043Y0088421D01*
X0389562Y0039130D02*
X0415547Y0039130D01*
X0418696Y0035980D02*
X0386413Y0035980D01*
D29*
X0410310Y0046650D02*
X0410310Y0052161D01*
X0414523Y0049406D01*
X0410310Y0046650D01*
X0341019Y0098697D02*
X0336806Y0095941D01*
X0336806Y0101453D01*
X0341019Y0098697D01*
D30*
X0060905Y0109839D03*
X0061377Y0157358D03*
D31*
X0063877Y0174608D03*
X0063877Y0140108D03*
X0063405Y0127089D03*
X0063405Y0092589D03*
D32*
X0063405Y0104839D03*
X0063405Y0114839D03*
X0063877Y0152358D03*
X0063877Y0162358D03*
D33*
X0063972Y0251650D02*
X0063972Y0253618D01*
X0070468Y0253618D01*
X0070468Y0251650D02*
X0063972Y0251650D01*
X0068972Y0259524D02*
X0095468Y0259524D01*
X0095468Y0253618D01*
X0088972Y0253618D01*
X0088972Y0251650D02*
X0095468Y0251650D01*
X0095468Y0253618D01*
X0095468Y0259524D02*
X0097436Y0259524D01*
X0097436Y0306768D01*
X0092318Y0306768D01*
X0092318Y0302831D01*
X0092318Y0306768D02*
X0067121Y0306768D01*
X0067121Y0302831D01*
X0067121Y0306768D02*
X0062003Y0306768D01*
X0062003Y0274524D01*
X0067121Y0275272D02*
X0067121Y0271335D01*
X0074798Y0271335D01*
X0077751Y0271335D01*
X0081688Y0271335D02*
X0084641Y0271335D01*
X0092318Y0271335D01*
X0092318Y0275272D01*
X0092318Y0279209D02*
X0092318Y0283146D01*
X0092318Y0287083D02*
X0092318Y0291020D01*
X0095468Y0292988D02*
X0095468Y0259524D01*
X0067121Y0279209D02*
X0067121Y0283146D01*
X0067121Y0287083D02*
X0067121Y0291020D01*
X0062003Y0292988D02*
X0095468Y0292988D01*
X0097436Y0292988D01*
X0092318Y0294957D02*
X0092318Y0298894D01*
X0084641Y0298894D02*
X0084639Y0299033D01*
X0084633Y0299172D01*
X0084623Y0299311D01*
X0084609Y0299450D01*
X0084592Y0299588D01*
X0084570Y0299726D01*
X0084545Y0299863D01*
X0084515Y0299999D01*
X0084482Y0300134D01*
X0084445Y0300268D01*
X0084404Y0300401D01*
X0084360Y0300533D01*
X0084312Y0300664D01*
X0084260Y0300793D01*
X0084204Y0300921D01*
X0084145Y0301047D01*
X0084082Y0301171D01*
X0084016Y0301294D01*
X0083946Y0301415D01*
X0083873Y0301533D01*
X0083797Y0301650D01*
X0083717Y0301764D01*
X0083635Y0301876D01*
X0083549Y0301985D01*
X0083460Y0302093D01*
X0083368Y0302197D01*
X0083273Y0302299D01*
X0083175Y0302398D01*
X0083074Y0302495D01*
X0082971Y0302588D01*
X0082865Y0302679D01*
X0082757Y0302766D01*
X0082646Y0302850D01*
X0082533Y0302932D01*
X0082418Y0303010D01*
X0082300Y0303084D01*
X0082181Y0303156D01*
X0082059Y0303224D01*
X0081935Y0303288D01*
X0081810Y0303349D01*
X0081683Y0303406D01*
X0081555Y0303460D01*
X0081425Y0303510D01*
X0081294Y0303557D01*
X0081161Y0303599D01*
X0081027Y0303638D01*
X0080892Y0303673D01*
X0080757Y0303705D01*
X0080620Y0303732D01*
X0080483Y0303755D01*
X0080345Y0303775D01*
X0080207Y0303791D01*
X0080068Y0303803D01*
X0079929Y0303811D01*
X0079790Y0303815D01*
X0079650Y0303815D01*
X0079511Y0303811D01*
X0079372Y0303803D01*
X0079233Y0303791D01*
X0079095Y0303775D01*
X0078957Y0303755D01*
X0078820Y0303732D01*
X0078683Y0303705D01*
X0078548Y0303673D01*
X0078413Y0303638D01*
X0078279Y0303599D01*
X0078146Y0303557D01*
X0078015Y0303510D01*
X0077885Y0303460D01*
X0077757Y0303406D01*
X0077630Y0303349D01*
X0077505Y0303288D01*
X0077381Y0303224D01*
X0077260Y0303156D01*
X0077140Y0303084D01*
X0077022Y0303010D01*
X0076907Y0302932D01*
X0076794Y0302850D01*
X0076683Y0302766D01*
X0076575Y0302679D01*
X0076469Y0302588D01*
X0076366Y0302495D01*
X0076265Y0302398D01*
X0076167Y0302299D01*
X0076072Y0302197D01*
X0075980Y0302093D01*
X0075891Y0301985D01*
X0075805Y0301876D01*
X0075723Y0301764D01*
X0075643Y0301650D01*
X0075567Y0301533D01*
X0075494Y0301415D01*
X0075424Y0301294D01*
X0075358Y0301171D01*
X0075295Y0301047D01*
X0075236Y0300921D01*
X0075180Y0300793D01*
X0075128Y0300664D01*
X0075080Y0300533D01*
X0075036Y0300401D01*
X0074995Y0300268D01*
X0074958Y0300134D01*
X0074925Y0299999D01*
X0074895Y0299863D01*
X0074870Y0299726D01*
X0074848Y0299588D01*
X0074831Y0299450D01*
X0074817Y0299311D01*
X0074807Y0299172D01*
X0074801Y0299033D01*
X0074799Y0298894D01*
X0067121Y0298894D02*
X0067121Y0294957D01*
M02*
