%
M48
M72
T01C0.01378
T02C0.03150
T03C0.03200
T04C0.03937
T05C0.04000
T06C0.04400
T07C0.04724
T08C0.05118
T09C0.05200
T10C0.11811
%
T01
X185861Y130587
X214208Y123500
X224838Y138461
X250035Y128815
X246885Y92201
X289405Y86819
X383499Y92791
X388342Y148933
X378775Y178618
X314995Y157358
X244720Y190035
X231137Y205783
X243878Y208736
X216964Y214839
X229956Y165978
X301806Y219563
X323263Y237280
X334287Y283736
X406954Y251285
X408342Y238933
X224050Y293579
T02
X79720Y276256
X60822Y264445
T03
X69365Y186217
X86373Y166807
X96373Y166807
X99365Y186217
X95586Y143185
X85586Y143185
X85743Y119996
X95743Y119996
X95507Y95902
X85507Y95902
X311491Y252437
X331491Y252437
X323893Y276925
X323893Y286925
X359247Y152673
X359247Y142673
X359247Y132673
X379247Y132673
X379247Y142673
X379247Y152673
X396531Y152673
X396531Y142673
X396531Y132673
X416531Y132673
X416531Y142673
X416531Y152673
T04
X365074Y167949
X347358Y167949
X335547Y167122
X317830Y167122
X317830Y192713
X335547Y192713
X347358Y193539
X365074Y193539
X365310Y208264
X347594Y208264
X334365Y208776
X316649Y208776
X347594Y233854
X334365Y234366
X316649Y234366
X365310Y233854
X334050Y125469
X324050Y125469
X324050Y115469
X334050Y115469
X334050Y105469
X324050Y105469
X397554Y96177
X407554Y96177
X407554Y86177
X397554Y86177
X397554Y76177
X407554Y76177
X407554Y66177
X397554Y66177
X397554Y56177
X407554Y56177
X79720Y252634
T05
X114602Y250744
X114602Y260744
X114602Y270744
X114602Y280744
X114602Y290744
X133499Y280035
X133499Y270035
X133499Y260035
X133499Y250035
X133499Y240035
X133499Y230035
X133499Y220035
X133499Y210035
X133499Y200035
X133499Y190035
X133499Y180035
X133499Y170035
X133499Y160035
X133499Y150035
X133499Y140035
X133499Y130035
X133499Y120035
X133499Y110035
X133499Y100035
X161058Y100035
X161058Y110035
X161058Y120035
X161058Y130035
X161058Y140035
X161058Y150035
X161058Y160035
X161058Y170035
X161058Y180035
X161058Y190035
X161058Y200035
X161058Y210035
X161058Y220035
X161058Y230035
X161058Y240035
X161058Y250035
X161058Y260035
X161058Y270035
X161058Y280035
X114995Y230902
X114995Y220902
X114995Y210902
X114995Y200902
X114995Y190902
X115389Y167909
X115389Y157909
X115389Y147909
X115389Y137909
X115389Y127909
X69405Y119839
X69405Y109839
X69405Y99839
X65783Y78146
X65783Y68146
X65783Y58146
X65783Y48146
X65783Y38146
X195861Y62358
X261452Y100035
X261452Y110035
X261452Y120035
X261452Y130035
X261452Y140035
X261452Y150035
X261452Y160035
X261452Y170035
X261452Y180035
X261452Y190035
X261452Y200035
X261452Y210035
X261452Y220035
X261452Y230035
X261452Y240035
X261452Y250035
X261452Y260035
X261452Y270035
X261452Y280035
X289011Y280035
X289011Y270035
X289011Y260035
X289011Y250035
X289011Y240035
X289011Y230035
X289011Y220035
X289011Y210035
X289011Y200035
X289011Y190035
X289011Y180035
X289011Y170035
X289011Y160035
X289011Y150035
X289011Y140035
X289011Y130035
X289011Y120035
X289011Y110035
X289011Y100035
X265861Y62358
X69877Y147358
X69877Y157358
X69877Y167358
T06
X193342Y226177
X193342Y248933
X243342Y248933
X243342Y226177
T07
X340980Y262752
X350980Y262752
X360980Y262752
X370980Y262752
X380980Y262752
X390980Y262752
X400980Y262752
X410980Y262752
X405980Y282752
X395980Y282752
X385980Y282752
X375980Y282752
X365980Y282752
X355980Y282752
X345980Y282752
T08
X391610Y233933
X391610Y214248
X391610Y194563
X391610Y174878
X82200Y211453
X82200Y231138
T09
X85262Y61295
X183862Y61295
X276601Y60035
X375201Y60035
T10
X48854Y36492
X48854Y296335
X428775Y296335
X428775Y36492
M30
