G75*
%MOIN*%
%OFA0B0*%
%FSLAX25Y25*%
%IPPOS*%
%LPD*%
%AMOC8*
5,1,8,0,0,1.08239X$1,22.5*
%
%ADD10C,0.12611*%
%ADD11OC8,0.06800*%
%ADD12OC8,0.07100*%
%ADD13C,0.07100*%
%ADD14C,0.06000*%
%ADD15C,0.07400*%
%ADD16C,0.10800*%
%ADD17C,0.08477*%
%ADD18C,0.06800*%
%ADD19C,0.07887*%
%ADD20OC8,0.06737*%
%ADD21C,0.09400*%
%ADD22C,0.06737*%
%ADD23C,0.03778*%
D10*
X0048854Y0036492D03*
X0048854Y0296335D03*
X0428775Y0296335D03*
X0428775Y0036492D03*
D11*
X0265861Y0062358D03*
X0195861Y0062358D03*
D12*
X0095507Y0095902D03*
X0095743Y0119996D03*
X0095586Y0143185D03*
X0096373Y0166807D03*
X0311491Y0252437D03*
X0331491Y0252437D03*
X0323893Y0286925D03*
D13*
X0323893Y0276925D03*
X0086373Y0166807D03*
X0085586Y0143185D03*
X0085743Y0119996D03*
X0085507Y0095902D03*
D14*
X0096765Y0186217D02*
X0101965Y0186217D01*
X0071965Y0186217D02*
X0066765Y0186217D01*
X0356647Y0152673D02*
X0361847Y0152673D01*
X0361847Y0142673D02*
X0356647Y0142673D01*
X0356647Y0132673D02*
X0361847Y0132673D01*
X0376647Y0132673D02*
X0381847Y0132673D01*
X0381847Y0142673D02*
X0376647Y0142673D01*
X0376647Y0152673D02*
X0381847Y0152673D01*
X0393931Y0152673D02*
X0399131Y0152673D01*
X0399131Y0142673D02*
X0393931Y0142673D01*
X0393931Y0132673D02*
X0399131Y0132673D01*
X0413931Y0132673D02*
X0419131Y0132673D01*
X0419131Y0142673D02*
X0413931Y0142673D01*
X0413931Y0152673D02*
X0419131Y0152673D01*
D15*
X0246642Y0226177D02*
X0240042Y0226177D01*
X0240042Y0248933D02*
X0246642Y0248933D01*
X0196642Y0248933D02*
X0190042Y0248933D01*
X0190042Y0226177D02*
X0196642Y0226177D01*
D16*
X0183862Y0066295D02*
X0183862Y0056295D01*
X0276601Y0055035D02*
X0276601Y0065035D01*
X0375201Y0065035D02*
X0375201Y0055035D01*
X0085262Y0056295D02*
X0085262Y0066295D01*
D17*
X0082200Y0211453D03*
X0082200Y0231138D03*
X0391610Y0233933D03*
X0391610Y0214248D03*
X0391610Y0194563D03*
X0391610Y0174878D03*
D18*
X0292011Y0170035D02*
X0286011Y0170035D01*
X0286011Y0160035D02*
X0292011Y0160035D01*
X0292011Y0150035D02*
X0286011Y0150035D01*
X0286011Y0140035D02*
X0292011Y0140035D01*
X0292011Y0130035D02*
X0286011Y0130035D01*
X0286011Y0120035D02*
X0292011Y0120035D01*
X0292011Y0110035D02*
X0286011Y0110035D01*
X0286011Y0100035D02*
X0292011Y0100035D01*
X0264452Y0100035D02*
X0258452Y0100035D01*
X0258452Y0110035D02*
X0264452Y0110035D01*
X0264452Y0120035D02*
X0258452Y0120035D01*
X0258452Y0130035D02*
X0264452Y0130035D01*
X0264452Y0140035D02*
X0258452Y0140035D01*
X0258452Y0150035D02*
X0264452Y0150035D01*
X0264452Y0160035D02*
X0258452Y0160035D01*
X0258452Y0170035D02*
X0264452Y0170035D01*
X0264452Y0180035D02*
X0258452Y0180035D01*
X0258452Y0190035D02*
X0264452Y0190035D01*
X0264452Y0200035D02*
X0258452Y0200035D01*
X0258452Y0210035D02*
X0264452Y0210035D01*
X0264452Y0220035D02*
X0258452Y0220035D01*
X0258452Y0230035D02*
X0264452Y0230035D01*
X0264452Y0240035D02*
X0258452Y0240035D01*
X0258452Y0250035D02*
X0264452Y0250035D01*
X0264452Y0260035D02*
X0258452Y0260035D01*
X0258452Y0270035D02*
X0264452Y0270035D01*
X0264452Y0280035D02*
X0258452Y0280035D01*
X0286011Y0280035D02*
X0292011Y0280035D01*
X0292011Y0270035D02*
X0286011Y0270035D01*
X0286011Y0260035D02*
X0292011Y0260035D01*
X0292011Y0250035D02*
X0286011Y0250035D01*
X0286011Y0240035D02*
X0292011Y0240035D01*
X0292011Y0230035D02*
X0286011Y0230035D01*
X0286011Y0220035D02*
X0292011Y0220035D01*
X0292011Y0210035D02*
X0286011Y0210035D01*
X0286011Y0200035D02*
X0292011Y0200035D01*
X0292011Y0190035D02*
X0286011Y0190035D01*
X0286011Y0180035D02*
X0292011Y0180035D01*
X0164058Y0180035D02*
X0158058Y0180035D01*
X0158058Y0170035D02*
X0164058Y0170035D01*
X0164058Y0160035D02*
X0158058Y0160035D01*
X0158058Y0150035D02*
X0164058Y0150035D01*
X0164058Y0140035D02*
X0158058Y0140035D01*
X0158058Y0130035D02*
X0164058Y0130035D01*
X0164058Y0120035D02*
X0158058Y0120035D01*
X0158058Y0110035D02*
X0164058Y0110035D01*
X0164058Y0100035D02*
X0158058Y0100035D01*
X0136499Y0100035D02*
X0130499Y0100035D01*
X0130499Y0110035D02*
X0136499Y0110035D01*
X0136499Y0120035D02*
X0130499Y0120035D01*
X0130499Y0130035D02*
X0136499Y0130035D01*
X0136499Y0140035D02*
X0130499Y0140035D01*
X0118389Y0137909D02*
X0112389Y0137909D01*
X0112389Y0127909D02*
X0118389Y0127909D01*
X0118389Y0147909D02*
X0112389Y0147909D01*
X0112389Y0157909D02*
X0118389Y0157909D01*
X0130499Y0160035D02*
X0136499Y0160035D01*
X0136499Y0150035D02*
X0130499Y0150035D01*
X0130499Y0170035D02*
X0136499Y0170035D01*
X0136499Y0180035D02*
X0130499Y0180035D01*
X0130499Y0190035D02*
X0136499Y0190035D01*
X0136499Y0200035D02*
X0130499Y0200035D01*
X0117995Y0200902D02*
X0111995Y0200902D01*
X0111995Y0210902D02*
X0117995Y0210902D01*
X0130499Y0210035D02*
X0136499Y0210035D01*
X0136499Y0220035D02*
X0130499Y0220035D01*
X0117995Y0220902D02*
X0111995Y0220902D01*
X0111995Y0230902D02*
X0117995Y0230902D01*
X0130499Y0230035D02*
X0136499Y0230035D01*
X0136499Y0240035D02*
X0130499Y0240035D01*
X0130499Y0250035D02*
X0136499Y0250035D01*
X0136499Y0260035D02*
X0130499Y0260035D01*
X0117602Y0260744D02*
X0111602Y0260744D01*
X0111602Y0250744D02*
X0117602Y0250744D01*
X0117602Y0270744D02*
X0111602Y0270744D01*
X0111602Y0280744D02*
X0117602Y0280744D01*
X0130499Y0280035D02*
X0136499Y0280035D01*
X0136499Y0270035D02*
X0130499Y0270035D01*
X0117602Y0290744D02*
X0111602Y0290744D01*
X0158058Y0280035D02*
X0164058Y0280035D01*
X0164058Y0270035D02*
X0158058Y0270035D01*
X0158058Y0260035D02*
X0164058Y0260035D01*
X0164058Y0250035D02*
X0158058Y0250035D01*
X0158058Y0240035D02*
X0164058Y0240035D01*
X0164058Y0230035D02*
X0158058Y0230035D01*
X0158058Y0220035D02*
X0164058Y0220035D01*
X0164058Y0210035D02*
X0158058Y0210035D01*
X0158058Y0200035D02*
X0164058Y0200035D01*
X0164058Y0190035D02*
X0158058Y0190035D01*
X0117995Y0190902D02*
X0111995Y0190902D01*
X0112389Y0167909D02*
X0118389Y0167909D01*
X0072877Y0167358D02*
X0066877Y0167358D01*
X0066877Y0157358D02*
X0072877Y0157358D01*
X0072877Y0147358D02*
X0066877Y0147358D01*
X0066405Y0119839D02*
X0072405Y0119839D01*
X0072405Y0109839D02*
X0066405Y0109839D01*
X0066405Y0099839D02*
X0072405Y0099839D01*
X0068783Y0078146D02*
X0062783Y0078146D01*
X0062783Y0068146D02*
X0068783Y0068146D01*
X0068783Y0058146D02*
X0062783Y0058146D01*
X0062783Y0048146D02*
X0068783Y0048146D01*
X0068783Y0038146D02*
X0062783Y0038146D01*
D19*
X0340980Y0259209D02*
X0340980Y0266295D01*
X0350980Y0266295D02*
X0350980Y0259209D01*
X0360980Y0259209D02*
X0360980Y0266295D01*
X0370980Y0266295D02*
X0370980Y0259209D01*
X0380980Y0259209D02*
X0380980Y0266295D01*
X0390980Y0266295D02*
X0390980Y0259209D01*
X0400980Y0259209D02*
X0400980Y0266295D01*
X0410980Y0266295D02*
X0410980Y0259209D01*
X0405980Y0279209D02*
X0405980Y0286295D01*
X0395980Y0286295D02*
X0395980Y0279209D01*
X0385980Y0279209D02*
X0385980Y0286295D01*
X0375980Y0286295D02*
X0375980Y0279209D01*
X0365980Y0279209D02*
X0365980Y0286295D01*
X0355980Y0286295D02*
X0355980Y0279209D01*
X0345980Y0279209D02*
X0345980Y0286295D01*
D20*
X0334050Y0125469D03*
X0324050Y0125469D03*
X0324050Y0115469D03*
X0334050Y0115469D03*
X0334050Y0105469D03*
X0324050Y0105469D03*
X0397554Y0096177D03*
X0407554Y0096177D03*
X0407554Y0086177D03*
X0397554Y0086177D03*
X0397554Y0076177D03*
X0407554Y0076177D03*
X0407554Y0066177D03*
X0397554Y0066177D03*
X0397554Y0056177D03*
X0407554Y0056177D03*
D21*
X0084020Y0252634D02*
X0075420Y0252634D01*
X0060822Y0260145D02*
X0060822Y0268745D01*
X0075420Y0276256D02*
X0084020Y0276256D01*
D22*
X0316649Y0237335D02*
X0316649Y0231398D01*
X0334365Y0231398D02*
X0334365Y0237335D01*
X0347594Y0236823D02*
X0347594Y0230886D01*
X0365310Y0230886D02*
X0365310Y0236823D01*
X0365310Y0211232D02*
X0365310Y0205295D01*
X0365074Y0196508D02*
X0365074Y0190571D01*
X0347358Y0190571D02*
X0347358Y0196508D01*
X0347594Y0205295D02*
X0347594Y0211232D01*
X0334365Y0211744D02*
X0334365Y0205807D01*
X0335547Y0195681D02*
X0335547Y0189744D01*
X0317830Y0189744D02*
X0317830Y0195681D01*
X0316649Y0205807D02*
X0316649Y0211744D01*
X0347358Y0170917D02*
X0347358Y0164980D01*
X0335547Y0164154D02*
X0335547Y0170091D01*
X0317830Y0170091D02*
X0317830Y0164154D01*
X0365074Y0164980D02*
X0365074Y0170917D01*
D23*
X0378775Y0178618D03*
X0388342Y0148933D03*
X0314995Y0157358D03*
X0250035Y0128815D03*
X0224838Y0138461D03*
X0214208Y0123500D03*
X0185861Y0130587D03*
X0229956Y0165978D03*
X0244720Y0190035D03*
X0231137Y0205783D03*
X0243878Y0208736D03*
X0216964Y0214839D03*
X0301806Y0219563D03*
X0323263Y0237280D03*
X0334287Y0283736D03*
X0406954Y0251285D03*
X0408342Y0238933D03*
X0224050Y0293579D03*
X0246885Y0092201D03*
X0289405Y0086819D03*
X0383499Y0092791D03*
M02*
